<svg height="79" viewBox="0 0 113 79" width="113" xmlns="http://www.w3.org/2000/svg"><path d="m99.7408874 28.9228826c-.8483768-1.0785039-1.4063478-2.418799-1.5349618-3.9006545-.3435502-3.9570095 2.5037144-7.487722 6.3247844-7.8423294 3.82354-.3558875 7.229383 2.5936271 7.570462 6.5519168.344786 3.9582895-2.501243 7.4877218-6.322313 7.8436094-1.179229.1090059-2.318937-.096231-3.341359-.5484224-3.3988929 8.5681169-8.7277171 22.9470925-8.3010379 27.8775191l1.1035624 12.7338639s-20.1100446-.5491935-34.9457286.829551l-34.473656 5.6225123-1.1628804-12.7287432c-.4099621-4.7380961-7.5729624-17.0768442-12.4214856-24.9577543-1.1449483.7497467-2.50178758 1.1836932-3.95646692 1.1836932-4.09505495 0-7.41475252-3.4389129-7.41475252-7.6810277 0-4.2421146 3.31969757-7.6810277 7.41475252-7.6810277 4.09505502 0 7.41475252 3.4389131 7.41475252 7.6810277 0 1.0784045-.2145345 2.1049023-.6018037 3.0361926 8.4929246 3.9871145 21.9742839 9.8814927 26.6003976 9.4518784 4.9256998-.457436 9.3793123-19.9141053 11.5543449-31.2000685-3.1903481-.8581186-5.5459237-3.8615868-5.5459237-7.43498717 0-4.2421147 3.3196975-7.68102776 7.4147524-7.68102776 4.095055 0 7.4147526 3.43891306 7.4147526 7.68102776 0 3.13619897-1.814433 5.83339537-4.4151907 7.02656037 5.1009951 10.61621 14.5546334 28.7304812 19.4720814 28.273649 4.6768655-.4359733 15.5456117-8.7481077 22.1529171-14.1369589zm-16.2248224 28.6694634c.2310931 2.6397133-1.9204209 5.4394479-4.6403993 5.6916416-2.8373786.2637153-5.551178-2.0841188-5.7797995-4.7225519-.2706385-3.1197774 2.0069263-5.8094173 4.8430691-6.0718524 2.7212142-.254754 5.3089628 1.9829854 5.5771297 5.1027627zm-38.2156345 3.4923074c.232329 2.698601-1.9179493 5.4983357-4.8690208 5.7735725-2.6075213.2406722-5.3213207-2.1058818-5.5524139-4.8032027-.2656952-3.0608895 2.009398-5.7492493 4.6156835-5.993762 2.9535431-.2726764 5.5400559 1.9663431 5.8057512 5.0233922zm20.6698584-3.9147639c.3435503 3.9570095-2.4394536 7.5414891-6.3754514 7.9076182-3.9384693.3648487-7.1762445-2.6589159-7.518559-6.6159254-.3336639-3.8405138 2.3356471-7.4121917 6.2716449-7.7783207 3.934762-.3674091 7.2899375 2.646114 7.6223655 6.4866279z" fill="#f5dd27"/></svg>