<?xml version="1.0" encoding="UTF-8"?>
<svg width="598px" height="389px" viewBox="0 0 598 389" version="1.1" xmlns="http://www.w3.org/2000/svg" xmlns:xlink="http://www.w3.org/1999/xlink">
    <title>Illo-Hero</title>
    <defs>
        <linearGradient x1="114.723695%" y1="59.1906931%" x2="19.2523057%" y2="50.1629842%" id="linearGradient-1">
            <stop stop-color="#0D0E0F" offset="0%"></stop>
            <stop stop-color="#151F44" offset="100%"></stop>
        </linearGradient>
        <linearGradient x1="100%" y1="50.0546094%" x2="0.00706297848%" y2="50.0546094%" id="linearGradient-2">
            <stop stop-color="#0D0E0F" offset="0%"></stop>
            <stop stop-color="#151F44" offset="100%"></stop>
        </linearGradient>
        <linearGradient x1="49.9961506%" y1="99.815942%" x2="49.9961506%" y2="-0.0746194433%" id="linearGradient-3">
            <stop stop-color="#213067" offset="0%"></stop>
            <stop stop-color="#151F44" offset="100%"></stop>
        </linearGradient>
        <filter x="-19.7%" y="-24.5%" width="139.3%" height="149.0%" filterUnits="objectBoundingBox" id="filter-4">
            <feGaussianBlur stdDeviation="1.74400005" in="SourceGraphic"></feGaussianBlur>
        </filter>
        <linearGradient x1="99.9666142%" y1="49.8980196%" x2="-0.01666426%" y2="49.8980196%" id="linearGradient-5">
            <stop stop-color="#0D0E0F" offset="0%"></stop>
            <stop stop-color="#151F44" offset="100%"></stop>
        </linearGradient>
        <linearGradient x1="-0.262032882%" y1="7.96663%" x2="84.9097519%" y2="84.6534653%" id="linearGradient-6">
            <stop stop-color="#B3FFFF" offset="0%"></stop>
            <stop stop-color="#55FFFA" offset="100%"></stop>
        </linearGradient>
        <linearGradient x1="100%" y1="50%" x2="4.4408921e-14%" y2="50%" id="linearGradient-7">
            <stop stop-color="#FFFFFF" offset="0%"></stop>
            <stop stop-color="#FAFEFF" offset="76.8633868%"></stop>
            <stop stop-color="#E6FCFF" offset="100%"></stop>
        </linearGradient>
        <linearGradient x1="50%" y1="0%" x2="50%" y2="100%" id="linearGradient-8">
            <stop stop-color="#E6FCFF" offset="0%"></stop>
            <stop stop-color="#FFFFFF" offset="100%"></stop>
        </linearGradient>
        <linearGradient x1="50.7968207%" y1="13.1390262%" x2="47.6249379%" y2="330.337614%" id="linearGradient-9">
            <stop stop-color="#79E2F2" offset="0%"></stop>
            <stop stop-color="#B3F5FF" offset="17%"></stop>
            <stop stop-color="#F9FDFF" offset="99%"></stop>
        </linearGradient>
        <linearGradient x1="50.7386985%" y1="20.5389412%" x2="48.7039245%" y2="224.158612%" id="linearGradient-10">
            <stop stop-color="#79E2F2" offset="0%"></stop>
            <stop stop-color="#B3F5FF" offset="17%"></stop>
            <stop stop-color="#F9FDFF" offset="99%"></stop>
        </linearGradient>
        <linearGradient x1="49.2225201%" y1="-71.0526316%" x2="52.4396783%" y2="146.616541%" id="linearGradient-11">
            <stop stop-color="#79E2F2" offset="0%"></stop>
            <stop stop-color="#B3F5FF" offset="17%"></stop>
            <stop stop-color="#F9FDFF" offset="99%"></stop>
        </linearGradient>
        <linearGradient x1="106.607647%" y1="31.0222199%" x2="1.37875862%" y2="61.121177%" id="linearGradient-12">
            <stop stop-color="#0D0E0F" offset="0%"></stop>
            <stop stop-color="#151F44" offset="100%"></stop>
        </linearGradient>
        <filter x="-19.7%" y="-24.5%" width="139.3%" height="149.0%" filterUnits="objectBoundingBox" id="filter-13">
            <feGaussianBlur stdDeviation="1.74400005" in="SourceGraphic"></feGaussianBlur>
        </filter>
        <filter x="-19.7%" y="-24.5%" width="139.3%" height="149.0%" filterUnits="objectBoundingBox" id="filter-14">
            <feGaussianBlur stdDeviation="1.74400005" in="SourceGraphic"></feGaussianBlur>
        </filter>
        <linearGradient x1="-0.0165407359%" y1="49.9993408%" x2="99.9855905%" y2="49.9993408%" id="linearGradient-15">
            <stop stop-color="#998DD9" offset="0%"></stop>
            <stop stop-color="#8777D9" offset="100%"></stop>
        </linearGradient>
        <linearGradient x1="41.6027246%" y1="33.955439%" x2="48.3484234%" y2="47.7112005%" id="linearGradient-16">
            <stop stop-color="#42526E" offset="0%"></stop>
            <stop stop-color="#111219" offset="100%"></stop>
        </linearGradient>
        <linearGradient x1="70.9146741%" y1="91.6219417%" x2="25.8045722%" y2="5.00065642%" id="linearGradient-17">
            <stop stop-color="#6554C0" offset="0%"></stop>
            <stop stop-color="#F99CDB" offset="100%"></stop>
        </linearGradient>
        <linearGradient x1="21.3462106%" y1="3.18273511%" x2="70.690476%" y2="110.969353%" id="linearGradient-18">
            <stop stop-color="#FFFFFF" offset="0%"></stop>
            <stop stop-color="#C0B6F2" offset="100%"></stop>
        </linearGradient>
        <linearGradient x1="51.9202961%" y1="99.6245487%" x2="48.6563347%" y2="-1.35740072%" id="linearGradient-19">
            <stop stop-color="#C1C7D0" offset="0%"></stop>
            <stop stop-color="#FFFFFF" offset="100%"></stop>
        </linearGradient>
        <linearGradient x1="59.4287498%" y1="-47.8345184%" x2="41.6068751%" y2="124.434389%" id="linearGradient-20">
            <stop stop-color="#FFBDAD" offset="0%"></stop>
            <stop stop-color="#FF7452" offset="100%"></stop>
        </linearGradient>
        <linearGradient x1="151.112366%" y1="95.6033613%" x2="6.93691839%" y2="8.8264353%" id="linearGradient-21">
            <stop stop-color="#FFBDAD" offset="0%"></stop>
            <stop stop-color="#FF7452" offset="100%"></stop>
        </linearGradient>
        <linearGradient x1="57.6284371%" y1="32.2394047%" x2="74.4109284%" y2="3.97496548%" id="linearGradient-22">
            <stop stop-color="#DEEBFF" offset="0%"></stop>
            <stop stop-color="#DFE1E5" offset="100%"></stop>
        </linearGradient>
        <linearGradient x1="25.9884698%" y1="38.6837881%" x2="145.095667%" y2="100.481541%" id="linearGradient-23">
            <stop stop-color="#FFBDAD" offset="0%"></stop>
            <stop stop-color="#FF7452" offset="100%"></stop>
        </linearGradient>
        <linearGradient x1="45.6072044%" y1="139.34418%" x2="46.6116065%" y2="119.730506%" id="linearGradient-24">
            <stop stop-color="#C1C7D0" offset="0%"></stop>
            <stop stop-color="#FFFFFF" offset="100%"></stop>
        </linearGradient>
        <linearGradient x1="-0.825004102%" y1="45.9866487%" x2="98.9575682%" y2="53.9137187%" id="linearGradient-25">
            <stop stop-color="#DEEBFF" offset="0%"></stop>
            <stop stop-color="#DFE1E5" offset="100%"></stop>
        </linearGradient>
        <linearGradient x1="50.2155492%" y1="-0.624764569%" x2="50.2155492%" y2="99.4807367%" id="linearGradient-26">
            <stop stop-color="#344563" offset="0%"></stop>
            <stop stop-color="#111219" offset="100%"></stop>
        </linearGradient>
        <linearGradient x1="0%" y1="50.2300618%" x2="100%" y2="50.2300618%" id="linearGradient-27">
            <stop stop-color="#FFBDAD" offset="0%"></stop>
            <stop stop-color="#FF7452" offset="100%"></stop>
        </linearGradient>
        <linearGradient x1="-3.74976161%" y1="32.1260976%" x2="95.1653512%" y2="70.9422841%" id="linearGradient-28">
            <stop stop-color="#FFBDAD" offset="0%"></stop>
            <stop stop-color="#FF7452" offset="100%"></stop>
        </linearGradient>
        <linearGradient x1="50%" y1="-1.15794294e-13%" x2="50%" y2="100%" id="linearGradient-29">
            <stop stop-color="#344563" offset="0%"></stop>
            <stop stop-color="#505F79" offset="100%"></stop>
        </linearGradient>
        <linearGradient x1="50.0194326%" y1="45.6943192%" x2="50.0194326%" y2="91.3886384%" id="linearGradient-30">
            <stop stop-color="#344563" offset="0%"></stop>
            <stop stop-color="#505F79" offset="100%"></stop>
        </linearGradient>
        <linearGradient x1="18.5581444%" y1="39.5023383%" x2="80.8464911%" y2="60.3216688%" id="linearGradient-31">
            <stop stop-color="#FFBDAD" offset="0%"></stop>
            <stop stop-color="#505F79" offset="100%"></stop>
        </linearGradient>
        <linearGradient x1="78.0152672%" y1="49.8920086%" x2="-27.7862595%" y2="49.8920086%" id="linearGradient-32">
            <stop stop-color="#FFFFFF" offset="45%"></stop>
            <stop stop-color="#FFF0B2" offset="100%"></stop>
        </linearGradient>
        <linearGradient x1="50.0508441%" y1="99.608129%" x2="50.0508441%" y2="-0.0937216763%" id="linearGradient-33">
            <stop stop-color="#F99CDB" offset="0%"></stop>
            <stop stop-color="#FFF0B2" offset="100%"></stop>
        </linearGradient>
        <linearGradient x1="99.8802682%" y1="50%" x2="0.0957854406%" y2="50%" id="linearGradient-34">
            <stop stop-color="#F99CDB" offset="0%"></stop>
            <stop stop-color="#5243AA" offset="100%"></stop>
        </linearGradient>
        <linearGradient x1="18.618042%" y1="39.4917501%" x2="81.0188638%" y2="60.3642384%" id="linearGradient-35">
            <stop stop-color="#FFBDAD" offset="0%"></stop>
            <stop stop-color="#505F79" offset="100%"></stop>
        </linearGradient>
        <linearGradient x1="50.2449843%" y1="99.2183301%" x2="50.2449843%" y2="-0.0933549131%" id="linearGradient-36">
            <stop stop-color="#F99CDB" offset="0%"></stop>
            <stop stop-color="#FFF0B2" offset="100%"></stop>
        </linearGradient>
        <linearGradient x1="50%" y1="80.591716%" x2="50%" y2="-0.710059172%" id="linearGradient-37">
            <stop stop-color="#F99CDB" offset="0%"></stop>
            <stop stop-color="#FFF0B2" offset="100%"></stop>
        </linearGradient>
    </defs>
    <g id="Design" stroke="none" stroke-width="1" fill="none" fill-rule="evenodd">
        <g id="TREL-223---Logged-In-+-Collapsed---DRD" transform="translate(-766.000000, -160.000000)">
            <g id="01-Hero">
                <g id="Illo-Hero" transform="translate(766.000000, 162.000000)">
                    <g id="Group-46" transform="translate(63.800000, 0.000000)" stroke="#A9FFFB" stroke-linecap="round" stroke-linejoin="round" stroke-width="3.2">
                        <path d="M178.837824,190.8 L311.562176,190.8 C317.105777,190.8 321.6,186.307086 321.6,180.7651 L321.6,10.4349 C321.6,4.89265817 317.105777,0.4 311.562176,0.4 L178.837824,0.4 C173.293967,0.4 168.8,4.89265817 168.8,10.4349 L168.8,180.7651 C168.8,186.307086 173.293967,190.8 178.837824,190.8 Z" id="Stroke-1"></path>
                        <path d="M183.977598,176.8 L306.422146,176.8 C310.386154,176.8 313.6,173.583085 313.6,169.614976 L313.6,145.18528 C313.6,141.216915 310.386154,138 306.422146,138 L183.977598,138 C180.01359,138 176.8,141.216915 176.8,145.18528 L176.8,169.614976 C176.8,173.583085 180.01359,176.8 183.977598,176.8 Z" id="Stroke-6"></path>
                        <path d="M182.711386,128.8 L307.288614,128.8 C310.774174,128.8 313.6,125.970627 313.6,122.48069 L313.6,43.9193099 C313.6,40.4293734 310.774174,37.6 307.288614,37.6 L182.711386,37.6 C179.225826,37.6 176.4,40.4293734 176.4,43.9193099 L176.4,122.48069 C176.4,125.970627 179.225826,128.8 182.711386,128.8 Z" id="Stroke-10"></path>
                        <path d="M181.563943,18.8 L265.236057,18.8 C267.756649,18.8 269.8,16.740506 269.8,14.2 L269.8,14.2 C269.8,11.659494 267.756649,9.6 265.236057,9.6 L181.563943,9.6 C179.043351,9.6 177,11.659494 177,14.2 L177,14.2 C177,16.740506 179.043351,18.8 181.563943,18.8 Z" id="Stroke-13"></path>
                        <path d="M10.0374285,242.8 L143.162571,242.8 C148.70621,242.8 153.2,238.304154 153.2,232.758552 L153.2,10.0414478 C153.2,4.49558965 148.70621,0 143.162571,0 L10.0374285,0 C4.49379021,0 0,4.49558965 0,10.0414478 L0,232.758552 C0,238.304154 4.49379021,242.8 10.0374285,242.8 Z" id="Stroke-16"></path>
                        <path d="M12.7639428,18.8 L96.4360572,18.8 C98.9566494,18.8 101,16.740506 101,14.2 C101,11.659494 98.9566494,9.6 96.4360572,9.6 L12.7639428,9.6 C10.2433506,9.6 8.2,11.659494 8.2,14.2 C8.2,16.740506 10.2433506,18.8 12.7639428,18.8 Z" id="Stroke-21"></path>
                        <path d="M14.3113859,229.2 L138.888614,229.2 C142.374174,229.2 145.2,226.370875 145.2,222.880929 L145.2,144.319328 C145.2,140.829125 142.374174,138 138.888614,138 L14.3113859,138 C10.8255695,138 8,140.829125 8,144.319328 L8,222.880929 C8,226.370875 10.8255695,229.2 14.3113859,229.2 Z" id="Stroke-25"></path>
                        <path d="M14.3113859,128.8 L138.888614,128.8 C142.374174,128.8 145.2,125.970627 145.2,122.48069 L145.2,43.9193099 C145.2,40.4293734 142.374174,37.6 138.888614,37.6 L14.3113859,37.6 C10.8255695,37.6 8,40.4293734 8,43.9193099 L8,122.48069 C8,125.970627 10.8255695,128.8 14.3113859,128.8 Z" id="Stroke-28"></path>
                        <path d="M347.237412,242.8 L480.362332,242.8 C485.906217,242.8 490.4,238.307946 490.4,232.76702 L490.4,10.4332354 C490.4,4.89205428 485.906217,0.4 480.362332,0.4 L347.237412,0.4 C341.694039,0.4 337.2,4.89205428 337.2,10.4332354 L337.2,232.76702 C337.2,238.307946 341.694039,242.8 347.237412,242.8 Z" id="Stroke-31"></path>
                        <path d="M349.9637,18.8 L433.6363,18.8 C436.156644,18.8 438.2,16.740506 438.2,14.2 C438.2,11.659494 436.156644,9.6 433.6363,9.6 L349.9637,9.6 C347.443356,9.6 345.4,11.659494 345.4,14.2 C345.4,16.740506 347.443356,18.8 349.9637,18.8 Z" id="Stroke-36"></path>
                        <path d="M351.511386,229.2 L476.088614,229.2 C479.57443,229.2 482.4,226.370875 482.4,222.880929 L482.4,144.319328 C482.4,140.829125 479.57443,138 476.088614,138 L351.511386,138 C348.025826,138 345.2,140.829125 345.2,144.319328 L345.2,222.880929 C345.2,226.370875 348.025826,229.2 351.511386,229.2 Z" id="Stroke-40"></path>
                        <path d="M351.511386,128.8 L476.088614,128.8 C479.57443,128.8 482.4,125.970627 482.4,122.48069 L482.4,43.9193099 C482.4,40.4293734 479.57443,37.6 476.088614,37.6 L351.511386,37.6 C348.025826,37.6 345.2,40.4293734 345.2,43.9193099 L345.2,122.48069 C345.2,125.970627 348.025826,128.8 351.511386,128.8 Z" id="Stroke-43"></path>
                    </g>
                    <g id="Group-7" transform="translate(229.000000, 95.000000)">
                        <g id="Asset-2" transform="translate(50.000000, 45.500000) scale(-1, 1) translate(-50.000000, -45.500000) ">
                            <g id="Layer6_0_1_STROKES" transform="translate(3.180062, 65.836002)" fill="url(#linearGradient-1)" fill-rule="nonzero">
                                <path d="M12.3019386,11.6457898 C14.0548103,12.1235444 15.8505358,12.4178621 17.6614885,12.5242151 C23.118544,12.8369878 28.6471034,11.3796003 34.087908,8.19863604 C35.6486829,7.27980857 36.186363,5.23964579 35.2888501,3.64180489 C34.3913372,2.04396399 32.3985011,1.49351479 30.837726,2.41234218 C22.136989,7.51319812 13.7775211,7.02074758 5.27504525,0.911698975 C4.32287916,0.227570867 3.08652998,0.115448575 2.03171849,0.617567482 C0.976907002,1.11968639 0.263884163,2.15976269 0.161238783,3.34600969 C0.0585934017,4.5322567 0.581919754,5.68445527 1.53408587,6.36858335 C4.79013743,8.76597258 8.43595466,10.5527476 12.3019386,11.6457898 Z" id="Path"></path>
                            </g>
                            <path d="M45.472063,70.2218865 C45.1558136,70.8553254 44.7317929,71.4317683 44.2180556,71.9266703 C42.453985,73.6445027 39.8045234,74.1565659 37.5034028,73.2244157 C35.2022822,72.2922654 33.7018918,70.099158 33.7008941,67.6663222 C33.6733735,66.0688399 34.3301002,64.5326843 35.5126047,63.4285326 C35.7532079,63.201374 36.0054322,62.9862552 36.2683091,62.7840019 C37.0029721,63.7382707 37.8069499,64.6397156 38.6740232,65.481363 C40.6379314,67.4385063 42.9389902,69.0431193 45.472063,70.2218865 Z" id="Path" fill="url(#linearGradient-2)" fill-rule="nonzero"></path>
                            <path d="M64.8652858,59.2960018 L76.4280639,59.2960018 C75.2542522,61.5897371 73.7085397,63.6778638 71.852296,65.4774767 C71.668081,65.679188 71.4739974,65.871139 71.2733347,66.0533299 C70.9911573,65.0480658 70.4452917,64.1344435 69.6910598,63.4050559 C67.3485428,61.0671176 63.5484975,61.0026137 61.12624,63.2596724 C58.7039825,65.516731 58.5429146,69.2721986 60.7632135,71.7240197 C58.8930561,72.1610556 56.9774881,72.3794441 55.0558394,72.3747013 C51.6048599,72.4108223 48.1882336,71.6943496 45.0490198,70.2762532 C42.5229767,69.0823225 40.2291509,67.4579453 38.272541,65.4774767 C37.4082178,64.6277973 36.6067899,63.7177499 35.874457,62.7543743 C35.0507428,61.6653727 34.3232635,60.5083176 33.7000626,59.2960018 L64.8652858,59.2960018 Z" id="Path" fill="url(#linearGradient-3)" fill-rule="nonzero"></path>
                            <path d="M1.3613005,64.1859679 C3.54875538,63.806807 5.3176758,64.5751069 6.66806178,66.4908676 M0.128061575,67.8877765 C2.31551645,67.5086155 4.08976175,68.2780241 5.45079745,70.1960021" id="Layer6_0_2_STROKES" stroke="#577288" stroke-width="2.79476009" stroke-linecap="round" stroke-linejoin="round"></path>
                            <path d="M67.8748653,17.1855611 L66.7931216,17.1855611 C67.3449874,17.1766717 67.7881858,16.7281742 67.7898945,16.1768703 L67.7898945,15.7949388 C67.7424773,10.0748046 63.1647679,5.42147629 57.4397976,5.27386931 C58.6710889,4.8067061 59.3926012,3.52773304 59.1548467,2.23372472 C58.9170922,0.939716403 57.7879292,0 56.4708036,0 C55.1536781,0 54.0245151,0.939716403 53.7867606,2.23372472 C53.5490061,3.52773304 54.2705183,4.8067061 55.5018097,5.27386931 C49.8273874,5.36157909 45.2884691,10.0090528 45.3412631,15.6774215 L45.3412631,16.3629395 C45.3466539,16.9187504 45.8011832,17.3654609 46.3576445,17.3618372 L45.279169,17.3618372 C44.7475689,17.3652822 44.2392127,17.5799787 43.8663852,17.9585049 C43.4935578,18.3370312 43.2869365,18.8482408 43.2920629,19.3792188 L43.2920629,19.3792188 C43.3011504,20.4831051 44.2034195,21.3711966 45.308582,21.3640007 L67.9010101,21.1811519 C69.0066845,21.1703829 69.8952756,20.2682093 69.8880637,19.1637703 L69.8880637,19.1637703 C69.8754562,18.0637227 68.97623,17.1801056 67.8748653,17.1855611 L67.8748653,17.1855611 Z" id="Path" fill-opacity="0.6" fill="#7DFFFF" fill-rule="nonzero" filter="url(#filter-4)"></path>
                            <path d="M59.0292873,67.7715631 C58.9987102,66.0953102 59.6684941,64.4820032 60.8779129,63.318782 C62.4728454,61.7378905 64.7854996,61.1153379 66.9603756,61.6814196 C69.1352516,62.2475013 70.8489948,63.9180539 71.467655,66.0751043 C71.6046667,66.6290168 71.6730177,67.1976303 71.6711734,67.7681769 C71.6987842,69.4531041 71.0359275,71.0762085 69.8361156,72.2615918 C68.6501662,73.4512039 67.0382426,74.1200023 65.3570143,74.1200023 C63.6757859,74.1200023 62.0638623,73.4512039 60.8779129,72.2615918 L60.6302989,71.9907002 C59.5708225,70.8435138 58.9970962,69.3315759 59.0292873,67.7715631 Z" id="Path" fill="url(#linearGradient-5)" fill-rule="nonzero"></path>
                            <path d="M94.5819941,23.5472783 C97.8847078,23.5472783 99.5360646,25.1860756 99.5360646,28.4636701 L99.5360646,54.37961 C99.5360646,57.6572046 97.8847078,59.2960018 94.5819941,59.2960018 L65.0920636,59.2960018 C65.5052564,59.2726359 65.9166458,59.2244765 66.3239758,59.1517877 C68.6622971,58.7147751 69.8314577,57.1207716 69.8314577,54.3697772 L69.8314577,28.4603925 C69.8314577,25.2614603 68.2516597,23.622663 65.0920636,23.5440007 L94.5819941,23.5472783 Z" id="Path" fill="url(#linearGradient-6)" fill-rule="nonzero"></path>
                            <path d="M11.4640619,54.3706635 L11.4640619,28.4594886 C11.4640619,25.1824967 13.1057389,23.5440007 16.389093,23.5440007 L65.1764507,23.5440007 C68.3153371,23.6226485 69.8858748,25.2611445 69.8880637,28.4594886 L69.8880637,54.3706635 C69.8880637,57.121152 68.7257564,58.7148624 66.4011417,59.1517946 C65.9961994,59.2244701 65.5872215,59.2726206 65.1764507,59.2960018 L16.3825263,59.2960018 C13.10355,59.3025363 11.4640619,57.6607633 11.4640619,54.3706635 Z" id="Path" fill="url(#linearGradient-7)" fill-rule="nonzero"></path>
                            <g id="Layer2_0_FILL" transform="translate(21.056062, 35.752001)" fill-rule="nonzero">
                                <path d="M23.5290947,15.8388281 C24.0537854,15.8388281 24.2702202,16.103886 24.184958,16.6049102 C24.0996958,17.1059343 23.5290947,17.5358454 22.5452998,17.8978757 C21.4685176,18.2915496 20.3291851,18.492952 19.1807213,18.4926399 C18.0319566,18.4963195 16.8920199,18.2948103 15.8161427,17.8978757 C14.8093926,17.532613 14.2650261,17.1027019 14.1764845,16.6049102 C14.087943,16.1071184 14.2650261,15.8485253 14.7831581,15.8388281 L23.5290947,15.8388281 Z" id="Path" fill="#993333"></path>
                                <path d="M1.05593986,1.0473021 C0.577680878,1.50619698 0.311025748,2.13818427 0.318093685,2.79603802 L0.318093685,7.64465885 C0.302512626,8.30883751 0.570156021,8.94902961 1.05593986,9.40955684 C1.53098937,9.88249151 2.18117968,10.1439844 2.85628453,10.1336176 C4.24294102,10.121228 5.36142598,9.01153438 5.36496153,7.64465885 L5.36496153,2.79603802 C5.3714037,2.13636673 5.10079101,1.50343885 4.61727741,1.0473021 C4.15962898,0.572314857 3.52074853,0.308456116 2.85628453,0.320008975 C2.18048021,0.309356961 1.5297848,0.572221238 1.05593986,1.0473021 M33.265385,2.79603802 L33.265385,7.64465885 C33.2495704,8.30632324 33.5118415,8.94501968 33.9901139,9.40955684 C34.4611291,9.88050227 35.1064788,10.1419532 35.7773413,10.1336176 C36.4487893,10.1449946 37.0953069,9.88307041 37.5645687,9.40955684 C38.0494876,8.94869751 38.3159755,8.30842382 38.2991355,7.64465885 L38.2991355,2.79603802 C38.2939316,1.79205947 37.6772814,0.889466558 36.7354268,0.50723247 C35.7935722,0.124998381 34.7109551,0.337975418 33.9901139,1.0473021 C33.5192352,1.51006653 33.2579001,2.14065567 33.265385,2.79603802 L33.265385,2.79603802 Z" id="Shape" fill="#19232B"></path>
                            </g>
                            <path d="M66.9657765,18.1079154 L67.0932879,18.1131514 C67.6797265,18.1616103 68.1378556,18.5406802 68.1440042,19.0095086 C68.1504709,19.5118248 67.6282916,19.9239816 66.9755674,19.9239816 L66.9755674,19.9239816 L45.7816129,20.0560006 L45.65406,20.0508057 C45.0672423,20.0027208 44.6062702,19.6264559 44.600122,19.1576275 C44.5936549,18.6553113 45.1190979,18.2399344 45.7718221,18.2399344 L45.7718221,18.2399344 L66.9657765,18.1079154 Z M56.9188395,7.19876213 C61.3781183,7.17545263 65.1672684,10.4514046 65.785464,14.864501 C65.8069527,15.0593805 65.7443564,15.254181 65.6133478,15.4001283 C65.4823391,15.5460757 65.295322,15.6293518 65.0991216,15.6291059 L47.6384393,15.7702132 C47.4433851,15.768602 47.2581371,15.6845226 47.1285846,15.538803 C46.9990321,15.3930833 46.9372943,15.1993551 46.9586647,15.0056083 C47.5065984,10.5785022 51.2497757,7.24069439 55.7136354,7.19876213 L56.9188395,7.19876213 Z M56.1758641,1.74400005 C57.0427259,1.74400005 57.7454562,2.44175 57.7454562,3.30246819 C57.7454562,4.16318637 57.0427259,4.86093632 56.1758641,4.86093632 C55.3090023,4.86093632 54.606272,4.16318637 54.606272,3.30246819 C54.606272,2.44175 55.3090023,1.74400005 56.1758641,1.74400005 Z" id="Combined-Shape" fill="url(#linearGradient-8)" fill-rule="nonzero"></path>
                            <path d="M48.5240631,64.3969129 L43.7579526,65.7777328 C43.3408672,65.9030467 42.88909,65.8237427 42.5396153,65.5638684 C42.1901406,65.3039942 41.9841337,64.8941608 41.9840629,64.4586437 L41.9840629,59.2960018 L48.5208142,59.2960018 L48.5240631,64.3969129 Z" id="Path" fill="url(#linearGradient-9)" fill-rule="nonzero"></path>
                            <path d="M54.1920632,64.387309 L58.9549248,65.7755518 C59.3692529,65.9027053 59.8192426,65.826837 60.1690631,65.5708479 C60.5188836,65.3148588 60.7275455,64.9087439 60.7320634,64.4750902 L60.7320634,59.2960018 L54.198561,59.2960018 L54.1920632,64.387309 Z" id="Path" fill="url(#linearGradient-10)" fill-rule="nonzero"></path>
                            <path d="M48.088063,59.2960018 L54.1920632,59.2960018 L54.1920632,64.0493854 C54.1920632,64.4075912 54.0499954,64.7511258 53.7971131,65.0044156 C53.5442308,65.2577053 53.2012488,65.400002 52.8436192,65.400002 L49.4365071,65.400002 C48.691782,65.400002 48.088063,64.7953104 48.088063,64.0493854 L48.088063,59.2960018 Z" id="Path" fill="url(#linearGradient-11)" fill-rule="nonzero"></path>
                            <g id="Layer3_0_1_STROKES" transform="translate(38.060063, 66.272002)" fill="url(#linearGradient-12)" fill-rule="nonzero">
                                <path d="M15.4985869,20.2493355 C17.1118091,19.6148604 18.6586701,18.8229159 20.1167709,17.8849697 C24.6961195,14.9408485 28.3142904,10.5586746 30.8741948,4.86476358 C31.6087968,3.22982646 30.8799821,1.3084628 29.2463415,0.573277732 C27.6127009,-0.161907339 25.692861,0.567485809 24.9582589,2.20242292 C20.8708262,11.3036118 13.8513159,15.8056233 3.49519186,15.9708051 C1.70783893,15.9994254 0.282086074,17.4727126 0.310683721,19.261484 C0.339281368,21.0502555 1.81140017,22.4771399 3.5987531,22.4485195 C7.66554676,22.4409732 11.6973084,21.6958716 15.4985869,20.2493355 L15.4985869,20.2493355 Z" id="Path"></path>
                            </g>
                            <g id="Layer3_0_2_STROKES" transform="translate(34.572063, 83.712003)" fill="#577288" fill-rule="nonzero">
                                <path d="M1.24571432,6.20054305 C0.716936963,6.0947695 0.367347339,5.58867127 0.45559107,5.05668764 C0.5438348,4.524704 1.03810541,4.15858259 1.57271433,4.22920013 C2.74294973,4.44843448 3.95299056,4.25702802 4.99842872,3.6873144 C5.48174101,3.42243862 6.08826728,3.59951641 6.35314305,4.0828287 C6.61801883,4.56614099 6.44094104,5.17266725 5.95762875,5.43754302 C5.69531109,5.58278224 5.42379075,5.7107401 5.14480016,5.82060018 C3.90407368,6.30045409 2.55573839,6.4318414 1.24571432,6.20054305 L1.24571432,6.20054305 Z M0.987228602,2.75925723 C0.617524156,2.72334821 0.298210378,2.48541814 0.158068148,2.14142542 C0.017925919,1.7974327 0.0800638416,1.40409965 0.319421374,1.1200595 C0.558778906,0.836019355 0.935887444,0.708108603 1.29865718,0.78791431 C2.47923993,1.01496819 3.70205448,0.822182115 4.75551443,0.242914293 C5.23796673,-0.0228214449 5.84449298,0.15286203 6.11022873,0.635314321 C6.37596448,1.11776661 6.20028103,1.72429286 5.71782875,1.99002863 C5.4503565,2.13838113 5.17365673,2.26944944 4.88942872,2.38242864 C3.65148385,2.86045243 2.30636815,2.99076388 0.999685745,2.75925723 L0.987228602,2.75925723 Z" id="Shape"></path>
                            </g>
                        </g>
                        <path d="M72,266.977671 C71.9967087,268.066341 69.6673141,269.036678 65.0118125,269.888681 C59.3714057,270.687565 53.7002524,271.056098 48.0271225,270.992413 C42.365435,271.058736 36.7056518,270.690193 31.0769542,269.888681 C26.3589847,269.062497 24,268.09216 24,266.977671 C24,265.863182 26.3589847,264.922966 31.0769542,264.157024 C36.7038058,263.321754 42.3644474,262.938065 48.0271225,263.008111 C53.7012345,262.940824 59.3732338,263.324501 65.0118125,264.157024 C69.6738896,264.948785 72.0032843,265.889 72,266.977671 Z" id="Path-Copy" fill-opacity="0.3" fill="#000000" opacity="0.8"></path>
                    </g>
                    <g id="Group-6" transform="translate(110.000000, 199.000000)">
                        <g id="Asset-2-Copy" transform="translate(50.000000, 45.500000) scale(-1, 1) translate(-50.000000, -45.500000) ">
                            <g id="Layer6_0_1_STROKES" transform="translate(3.180062, 65.836002)" fill="url(#linearGradient-1)" fill-rule="nonzero">
                                <path d="M12.3019386,11.6457898 C14.0548103,12.1235444 15.8505358,12.4178621 17.6614885,12.5242151 C23.118544,12.8369878 28.6471034,11.3796003 34.087908,8.19863604 C35.6486829,7.27980857 36.186363,5.23964579 35.2888501,3.64180489 C34.3913372,2.04396399 32.3985011,1.49351479 30.837726,2.41234218 C22.136989,7.51319812 13.7775211,7.02074758 5.27504525,0.911698975 C4.32287916,0.227570867 3.08652998,0.115448575 2.03171849,0.617567482 C0.976907002,1.11968639 0.263884163,2.15976269 0.161238783,3.34600969 C0.0585934017,4.5322567 0.581919754,5.68445527 1.53408587,6.36858335 C4.79013743,8.76597258 8.43595466,10.5527476 12.3019386,11.6457898 Z" id="Path"></path>
                            </g>
                            <path d="M45.472063,70.2218865 C45.1558136,70.8553254 44.7317929,71.4317683 44.2180556,71.9266703 C42.453985,73.6445027 39.8045234,74.1565659 37.5034028,73.2244157 C35.2022822,72.2922654 33.7018918,70.099158 33.7008941,67.6663222 C33.6733735,66.0688399 34.3301002,64.5326843 35.5126047,63.4285326 C35.7532079,63.201374 36.0054322,62.9862552 36.2683091,62.7840019 C37.0029721,63.7382707 37.8069499,64.6397156 38.6740232,65.481363 C40.6379314,67.4385063 42.9389902,69.0431193 45.472063,70.2218865 Z" id="Path" fill="url(#linearGradient-2)" fill-rule="nonzero"></path>
                            <path d="M64.8652858,59.2960018 L76.4280639,59.2960018 C75.2542522,61.5897371 73.7085397,63.6778638 71.852296,65.4774767 C71.668081,65.679188 71.4739974,65.871139 71.2733347,66.0533299 C70.9911573,65.0480658 70.4452917,64.1344435 69.6910598,63.4050559 C67.3485428,61.0671176 63.5484975,61.0026137 61.12624,63.2596724 C58.7039825,65.516731 58.5429146,69.2721986 60.7632135,71.7240197 C58.8930561,72.1610556 56.9774881,72.3794441 55.0558394,72.3747013 C51.6048599,72.4108223 48.1882336,71.6943496 45.0490198,70.2762532 C42.5229767,69.0823225 40.2291509,67.4579453 38.272541,65.4774767 C37.4082178,64.6277973 36.6067899,63.7177499 35.874457,62.7543743 C35.0507428,61.6653727 34.3232635,60.5083176 33.7000626,59.2960018 L64.8652858,59.2960018 Z" id="Path" fill="url(#linearGradient-3)" fill-rule="nonzero"></path>
                            <path d="M1.3613005,64.1859679 C3.54875538,63.806807 5.3176758,64.5751069 6.66806178,66.4908676 M0.128061575,67.8877765 C2.31551645,67.5086155 4.08976175,68.2780241 5.45079745,70.1960021" id="Layer6_0_2_STROKES" stroke="#577288" stroke-width="2.79476009" stroke-linecap="round" stroke-linejoin="round"></path>
                            <path d="M67.8748653,17.1855611 L66.7931216,17.1855611 C67.3449874,17.1766717 67.7881858,16.7281742 67.7898945,16.1768703 L67.7898945,15.7949388 C67.7424773,10.0748046 63.1647679,5.42147629 57.4397976,5.27386931 C58.6710889,4.8067061 59.3926012,3.52773304 59.1548467,2.23372472 C58.9170922,0.939716403 57.7879292,0 56.4708036,0 C55.1536781,0 54.0245151,0.939716403 53.7867606,2.23372472 C53.5490061,3.52773304 54.2705183,4.8067061 55.5018097,5.27386931 C49.8273874,5.36157909 45.2884691,10.0090528 45.3412631,15.6774215 L45.3412631,16.3629395 C45.3466539,16.9187504 45.8011832,17.3654609 46.3576445,17.3618372 L45.279169,17.3618372 C44.7475689,17.3652822 44.2392127,17.5799787 43.8663852,17.9585049 C43.4935578,18.3370312 43.2869365,18.8482408 43.2920629,19.3792188 L43.2920629,19.3792188 C43.3011504,20.4831051 44.2034195,21.3711966 45.308582,21.3640007 L67.9010101,21.1811519 C69.0066845,21.1703829 69.8952756,20.2682093 69.8880637,19.1637703 L69.8880637,19.1637703 C69.8754562,18.0637227 68.97623,17.1801056 67.8748653,17.1855611 L67.8748653,17.1855611 Z" id="Path" fill-opacity="0.6" fill="#7DFFFF" fill-rule="nonzero" filter="url(#filter-13)"></path>
                            <path d="M59.0292873,67.7715631 C58.9987102,66.0953102 59.6684941,64.4820032 60.8779129,63.318782 C62.4728454,61.7378905 64.7854996,61.1153379 66.9603756,61.6814196 C69.1352516,62.2475013 70.8489948,63.9180539 71.467655,66.0751043 C71.6046667,66.6290168 71.6730177,67.1976303 71.6711734,67.7681769 C71.6987842,69.4531041 71.0359275,71.0762085 69.8361156,72.2615918 C68.6501662,73.4512039 67.0382426,74.1200023 65.3570143,74.1200023 C63.6757859,74.1200023 62.0638623,73.4512039 60.8779129,72.2615918 L60.6302989,71.9907002 C59.5708225,70.8435138 58.9970962,69.3315759 59.0292873,67.7715631 Z" id="Path" fill="url(#linearGradient-5)" fill-rule="nonzero"></path>
                            <path d="M94.5819941,23.5472783 C97.8847078,23.5472783 99.5360646,25.1860756 99.5360646,28.4636701 L99.5360646,54.37961 C99.5360646,57.6572046 97.8847078,59.2960018 94.5819941,59.2960018 L65.0920636,59.2960018 C65.5052564,59.2726359 65.9166458,59.2244765 66.3239758,59.1517877 C68.6622971,58.7147751 69.8314577,57.1207716 69.8314577,54.3697772 L69.8314577,28.4603925 C69.8314577,25.2614603 68.2516597,23.622663 65.0920636,23.5440007 L94.5819941,23.5472783 Z" id="Path" fill="url(#linearGradient-6)" fill-rule="nonzero"></path>
                            <path d="M11.4640619,54.3706635 L11.4640619,28.4594886 C11.4640619,25.1824967 13.1057389,23.5440007 16.389093,23.5440007 L65.1764507,23.5440007 C68.3153371,23.6226485 69.8858748,25.2611445 69.8880637,28.4594886 L69.8880637,54.3706635 C69.8880637,57.121152 68.7257564,58.7148624 66.4011417,59.1517946 C65.9961994,59.2244701 65.5872215,59.2726206 65.1764507,59.2960018 L16.3825263,59.2960018 C13.10355,59.3025363 11.4640619,57.6607633 11.4640619,54.3706635 Z" id="Path" fill="url(#linearGradient-7)" fill-rule="nonzero"></path>
                            <g id="Layer2_0_FILL" transform="translate(21.056062, 35.752001)" fill-rule="nonzero">
                                <path d="M23.5290947,15.8388281 C24.0537854,15.8388281 24.2702202,16.103886 24.184958,16.6049102 C24.0996958,17.1059343 23.5290947,17.5358454 22.5452998,17.8978757 C21.4685176,18.2915496 20.3291851,18.492952 19.1807213,18.4926399 C18.0319566,18.4963195 16.8920199,18.2948103 15.8161427,17.8978757 C14.8093926,17.532613 14.2650261,17.1027019 14.1764845,16.6049102 C14.087943,16.1071184 14.2650261,15.8485253 14.7831581,15.8388281 L23.5290947,15.8388281 Z" id="Path" fill="#993333"></path>
                                <path d="M1.05593986,1.0473021 C0.577680878,1.50619698 0.311025748,2.13818427 0.318093685,2.79603802 L0.318093685,7.64465885 C0.302512626,8.30883751 0.570156021,8.94902961 1.05593986,9.40955684 C1.53098937,9.88249151 2.18117968,10.1439844 2.85628453,10.1336176 C4.24294102,10.121228 5.36142598,9.01153438 5.36496153,7.64465885 L5.36496153,2.79603802 C5.3714037,2.13636673 5.10079101,1.50343885 4.61727741,1.0473021 C4.15962898,0.572314857 3.52074853,0.308456116 2.85628453,0.320008975 C2.18048021,0.309356961 1.5297848,0.572221238 1.05593986,1.0473021 M33.265385,2.79603802 L33.265385,7.64465885 C33.2495704,8.30632324 33.5118415,8.94501968 33.9901139,9.40955684 C34.4611291,9.88050227 35.1064788,10.1419532 35.7773413,10.1336176 C36.4487893,10.1449946 37.0953069,9.88307041 37.5645687,9.40955684 C38.0494876,8.94869751 38.3159755,8.30842382 38.2991355,7.64465885 L38.2991355,2.79603802 C38.2939316,1.79205947 37.6772814,0.889466558 36.7354268,0.50723247 C35.7935722,0.124998381 34.7109551,0.337975418 33.9901139,1.0473021 C33.5192352,1.51006653 33.2579001,2.14065567 33.265385,2.79603802 L33.265385,2.79603802 Z" id="Shape" fill="#19232B"></path>
                            </g>
                            <path d="M66.9657765,18.1079154 L67.0932879,18.1131514 C67.6797265,18.1616103 68.1378556,18.5406802 68.1440042,19.0095086 C68.1504709,19.5118248 67.6282916,19.9239816 66.9755674,19.9239816 L66.9755674,19.9239816 L45.7816129,20.0560006 L45.65406,20.0508057 C45.0672423,20.0027208 44.6062702,19.6264559 44.600122,19.1576275 C44.5936549,18.6553113 45.1190979,18.2399344 45.7718221,18.2399344 L45.7718221,18.2399344 L66.9657765,18.1079154 Z M56.9188395,7.19876213 C61.3781183,7.17545263 65.1672684,10.4514046 65.785464,14.864501 C65.8069527,15.0593805 65.7443564,15.254181 65.6133478,15.4001283 C65.4823391,15.5460757 65.295322,15.6293518 65.0991216,15.6291059 L47.6384393,15.7702132 C47.4433851,15.768602 47.2581371,15.6845226 47.1285846,15.538803 C46.9990321,15.3930833 46.9372943,15.1993551 46.9586647,15.0056083 C47.5065984,10.5785022 51.2497757,7.24069439 55.7136354,7.19876213 L56.9188395,7.19876213 Z M56.1758641,1.74400005 C57.0427259,1.74400005 57.7454562,2.44175 57.7454562,3.30246819 C57.7454562,4.16318637 57.0427259,4.86093632 56.1758641,4.86093632 C55.3090023,4.86093632 54.606272,4.16318637 54.606272,3.30246819 C54.606272,2.44175 55.3090023,1.74400005 56.1758641,1.74400005 Z" id="Combined-Shape" fill="url(#linearGradient-8)" fill-rule="nonzero"></path>
                            <path d="M48.5240631,64.3969129 L43.7579526,65.7777328 C43.3408672,65.9030467 42.88909,65.8237427 42.5396153,65.5638684 C42.1901406,65.3039942 41.9841337,64.8941608 41.9840629,64.4586437 L41.9840629,59.2960018 L48.5208142,59.2960018 L48.5240631,64.3969129 Z" id="Path" fill="url(#linearGradient-9)" fill-rule="nonzero"></path>
                            <path d="M54.1920632,64.387309 L58.9549248,65.7755518 C59.3692529,65.9027053 59.8192426,65.826837 60.1690631,65.5708479 C60.5188836,65.3148588 60.7275455,64.9087439 60.7320634,64.4750902 L60.7320634,59.2960018 L54.198561,59.2960018 L54.1920632,64.387309 Z" id="Path" fill="url(#linearGradient-10)" fill-rule="nonzero"></path>
                            <path d="M48.088063,59.2960018 L54.1920632,59.2960018 L54.1920632,64.0493854 C54.1920632,64.4075912 54.0499954,64.7511258 53.7971131,65.0044156 C53.5442308,65.2577053 53.2012488,65.400002 52.8436192,65.400002 L49.4365071,65.400002 C48.691782,65.400002 48.088063,64.7953104 48.088063,64.0493854 L48.088063,59.2960018 Z" id="Path" fill="url(#linearGradient-11)" fill-rule="nonzero"></path>
                            <g id="Layer3_0_1_STROKES" transform="translate(38.060063, 66.272002)" fill="url(#linearGradient-12)" fill-rule="nonzero">
                                <path d="M15.4985869,20.2493355 C17.1118091,19.6148604 18.6586701,18.8229159 20.1167709,17.8849697 C24.6961195,14.9408485 28.3142904,10.5586746 30.8741948,4.86476358 C31.6087968,3.22982646 30.8799821,1.3084628 29.2463415,0.573277732 C27.6127009,-0.161907339 25.692861,0.567485809 24.9582589,2.20242292 C20.8708262,11.3036118 13.8513159,15.8056233 3.49519186,15.9708051 C1.70783893,15.9994254 0.282086074,17.4727126 0.310683721,19.261484 C0.339281368,21.0502555 1.81140017,22.4771399 3.5987531,22.4485195 C7.66554676,22.4409732 11.6973084,21.6958716 15.4985869,20.2493355 L15.4985869,20.2493355 Z" id="Path"></path>
                            </g>
                            <g id="Layer3_0_2_STROKES" transform="translate(34.572063, 83.712003)" fill="#577288" fill-rule="nonzero">
                                <path d="M1.24571432,6.20054305 C0.716936963,6.0947695 0.367347339,5.58867127 0.45559107,5.05668764 C0.5438348,4.524704 1.03810541,4.15858259 1.57271433,4.22920013 C2.74294973,4.44843448 3.95299056,4.25702802 4.99842872,3.6873144 C5.48174101,3.42243862 6.08826728,3.59951641 6.35314305,4.0828287 C6.61801883,4.56614099 6.44094104,5.17266725 5.95762875,5.43754302 C5.69531109,5.58278224 5.42379075,5.7107401 5.14480016,5.82060018 C3.90407368,6.30045409 2.55573839,6.4318414 1.24571432,6.20054305 L1.24571432,6.20054305 Z M0.987228602,2.75925723 C0.617524156,2.72334821 0.298210378,2.48541814 0.158068148,2.14142542 C0.017925919,1.7974327 0.0800638416,1.40409965 0.319421374,1.1200595 C0.558778906,0.836019355 0.935887444,0.708108603 1.29865718,0.78791431 C2.47923993,1.01496819 3.70205448,0.822182115 4.75551443,0.242914293 C5.23796673,-0.0228214449 5.84449298,0.15286203 6.11022873,0.635314321 C6.37596448,1.11776661 6.20028103,1.72429286 5.71782875,1.99002863 C5.4503565,2.13838113 5.17365673,2.26944944 4.88942872,2.38242864 C3.65148385,2.86045243 2.30636815,2.99076388 0.999685745,2.75925723 L0.987228602,2.75925723 Z" id="Shape"></path>
                            </g>
                        </g>
                        <path d="M79.6,182.172089 C79.5958859,183.532927 76.6841426,184.745848 70.8647656,185.810852 C63.8142571,186.809456 56.7253155,187.270123 49.6339031,187.190516 C42.5567938,187.27342 35.4820647,186.812741 28.4461927,185.810852 C22.5487309,184.778121 19.6,183.5652 19.6,182.172089 C19.6,180.778977 22.5487309,179.603708 28.4461927,178.64628 C35.4797572,177.602193 42.5555592,177.122582 49.6339031,177.210139 C56.7265431,177.12603 63.8165422,177.605626 70.8647656,178.64628 C76.692362,179.635981 79.6041054,180.81125 79.6,182.172089 Z" id="Path-Copy-2" fill-opacity="0.3" fill="#000000" opacity="0.8"></path>
                    </g>
                    <g id="Group-5" transform="translate(0.000000, 62.000000)">
                        <g id="Asset-2-Copy-2" transform="translate(50.000000, 45.500000) scale(-1, 1) translate(-50.000000, -45.500000) ">
                            <g id="Layer6_0_1_STROKES" transform="translate(3.180062, 65.836002)" fill="url(#linearGradient-1)" fill-rule="nonzero">
                                <path d="M12.3019386,11.6457898 C14.0548103,12.1235444 15.8505358,12.4178621 17.6614885,12.5242151 C23.118544,12.8369878 28.6471034,11.3796003 34.087908,8.19863604 C35.6486829,7.27980857 36.186363,5.23964579 35.2888501,3.64180489 C34.3913372,2.04396399 32.3985011,1.49351479 30.837726,2.41234218 C22.136989,7.51319812 13.7775211,7.02074758 5.27504525,0.911698975 C4.32287916,0.227570867 3.08652998,0.115448575 2.03171849,0.617567482 C0.976907002,1.11968639 0.263884163,2.15976269 0.161238783,3.34600969 C0.0585934017,4.5322567 0.581919754,5.68445527 1.53408587,6.36858335 C4.79013743,8.76597258 8.43595466,10.5527476 12.3019386,11.6457898 Z" id="Path"></path>
                            </g>
                            <path d="M45.472063,70.2218865 C45.1558136,70.8553254 44.7317929,71.4317683 44.2180556,71.9266703 C42.453985,73.6445027 39.8045234,74.1565659 37.5034028,73.2244157 C35.2022822,72.2922654 33.7018918,70.099158 33.7008941,67.6663222 C33.6733735,66.0688399 34.3301002,64.5326843 35.5126047,63.4285326 C35.7532079,63.201374 36.0054322,62.9862552 36.2683091,62.7840019 C37.0029721,63.7382707 37.8069499,64.6397156 38.6740232,65.481363 C40.6379314,67.4385063 42.9389902,69.0431193 45.472063,70.2218865 Z" id="Path" fill="url(#linearGradient-2)" fill-rule="nonzero"></path>
                            <path d="M64.8652858,59.2960018 L76.4280639,59.2960018 C75.2542522,61.5897371 73.7085397,63.6778638 71.852296,65.4774767 C71.668081,65.679188 71.4739974,65.871139 71.2733347,66.0533299 C70.9911573,65.0480658 70.4452917,64.1344435 69.6910598,63.4050559 C67.3485428,61.0671176 63.5484975,61.0026137 61.12624,63.2596724 C58.7039825,65.516731 58.5429146,69.2721986 60.7632135,71.7240197 C58.8930561,72.1610556 56.9774881,72.3794441 55.0558394,72.3747013 C51.6048599,72.4108223 48.1882336,71.6943496 45.0490198,70.2762532 C42.5229767,69.0823225 40.2291509,67.4579453 38.272541,65.4774767 C37.4082178,64.6277973 36.6067899,63.7177499 35.874457,62.7543743 C35.0507428,61.6653727 34.3232635,60.5083176 33.7000626,59.2960018 L64.8652858,59.2960018 Z" id="Path" fill="url(#linearGradient-3)" fill-rule="nonzero"></path>
                            <path d="M1.3613005,64.1859679 C3.54875538,63.806807 5.3176758,64.5751069 6.66806178,66.4908676 M0.128061575,67.8877765 C2.31551645,67.5086155 4.08976175,68.2780241 5.45079745,70.1960021" id="Layer6_0_2_STROKES" stroke="#577288" stroke-width="2.79476009" stroke-linecap="round" stroke-linejoin="round"></path>
                            <path d="M67.8748653,17.1855611 L66.7931216,17.1855611 C67.3449874,17.1766717 67.7881858,16.7281742 67.7898945,16.1768703 L67.7898945,15.7949388 C67.7424773,10.0748046 63.1647679,5.42147629 57.4397976,5.27386931 C58.6710889,4.8067061 59.3926012,3.52773304 59.1548467,2.23372472 C58.9170922,0.939716403 57.7879292,0 56.4708036,0 C55.1536781,0 54.0245151,0.939716403 53.7867606,2.23372472 C53.5490061,3.52773304 54.2705183,4.8067061 55.5018097,5.27386931 C49.8273874,5.36157909 45.2884691,10.0090528 45.3412631,15.6774215 L45.3412631,16.3629395 C45.3466539,16.9187504 45.8011832,17.3654609 46.3576445,17.3618372 L45.279169,17.3618372 C44.7475689,17.3652822 44.2392127,17.5799787 43.8663852,17.9585049 C43.4935578,18.3370312 43.2869365,18.8482408 43.2920629,19.3792188 L43.2920629,19.3792188 C43.3011504,20.4831051 44.2034195,21.3711966 45.308582,21.3640007 L67.9010101,21.1811519 C69.0066845,21.1703829 69.8952756,20.2682093 69.8880637,19.1637703 L69.8880637,19.1637703 C69.8754562,18.0637227 68.97623,17.1801056 67.8748653,17.1855611 L67.8748653,17.1855611 Z" id="Path" fill-opacity="0.6" fill="#7DFFFF" fill-rule="nonzero" filter="url(#filter-14)"></path>
                            <path d="M59.0292873,67.7715631 C58.9987102,66.0953102 59.6684941,64.4820032 60.8779129,63.318782 C62.4728454,61.7378905 64.7854996,61.1153379 66.9603756,61.6814196 C69.1352516,62.2475013 70.8489948,63.9180539 71.467655,66.0751043 C71.6046667,66.6290168 71.6730177,67.1976303 71.6711734,67.7681769 C71.6987842,69.4531041 71.0359275,71.0762085 69.8361156,72.2615918 C68.6501662,73.4512039 67.0382426,74.1200023 65.3570143,74.1200023 C63.6757859,74.1200023 62.0638623,73.4512039 60.8779129,72.2615918 L60.6302989,71.9907002 C59.5708225,70.8435138 58.9970962,69.3315759 59.0292873,67.7715631 Z" id="Path" fill="url(#linearGradient-5)" fill-rule="nonzero"></path>
                            <path d="M94.5819941,23.5472783 C97.8847078,23.5472783 99.5360646,25.1860756 99.5360646,28.4636701 L99.5360646,54.37961 C99.5360646,57.6572046 97.8847078,59.2960018 94.5819941,59.2960018 L65.0920636,59.2960018 C65.5052564,59.2726359 65.9166458,59.2244765 66.3239758,59.1517877 C68.6622971,58.7147751 69.8314577,57.1207716 69.8314577,54.3697772 L69.8314577,28.4603925 C69.8314577,25.2614603 68.2516597,23.622663 65.0920636,23.5440007 L94.5819941,23.5472783 Z" id="Path" fill="url(#linearGradient-6)" fill-rule="nonzero"></path>
                            <path d="M11.4640619,54.3706635 L11.4640619,28.4594886 C11.4640619,25.1824967 13.1057389,23.5440007 16.389093,23.5440007 L65.1764507,23.5440007 C68.3153371,23.6226485 69.8858748,25.2611445 69.8880637,28.4594886 L69.8880637,54.3706635 C69.8880637,57.121152 68.7257564,58.7148624 66.4011417,59.1517946 C65.9961994,59.2244701 65.5872215,59.2726206 65.1764507,59.2960018 L16.3825263,59.2960018 C13.10355,59.3025363 11.4640619,57.6607633 11.4640619,54.3706635 Z" id="Path" fill="url(#linearGradient-7)" fill-rule="nonzero"></path>
                            <g id="Layer2_0_FILL" transform="translate(21.056062, 35.752001)" fill-rule="nonzero">
                                <path d="M23.5290947,15.8388281 C24.0537854,15.8388281 24.2702202,16.103886 24.184958,16.6049102 C24.0996958,17.1059343 23.5290947,17.5358454 22.5452998,17.8978757 C21.4685176,18.2915496 20.3291851,18.492952 19.1807213,18.4926399 C18.0319566,18.4963195 16.8920199,18.2948103 15.8161427,17.8978757 C14.8093926,17.532613 14.2650261,17.1027019 14.1764845,16.6049102 C14.087943,16.1071184 14.2650261,15.8485253 14.7831581,15.8388281 L23.5290947,15.8388281 Z" id="Path" fill="#993333"></path>
                                <path d="M1.05593986,1.0473021 C0.577680878,1.50619698 0.311025748,2.13818427 0.318093685,2.79603802 L0.318093685,7.64465885 C0.302512626,8.30883751 0.570156021,8.94902961 1.05593986,9.40955684 C1.53098937,9.88249151 2.18117968,10.1439844 2.85628453,10.1336176 C4.24294102,10.121228 5.36142598,9.01153438 5.36496153,7.64465885 L5.36496153,2.79603802 C5.3714037,2.13636673 5.10079101,1.50343885 4.61727741,1.0473021 C4.15962898,0.572314857 3.52074853,0.308456116 2.85628453,0.320008975 C2.18048021,0.309356961 1.5297848,0.572221238 1.05593986,1.0473021 M33.265385,2.79603802 L33.265385,7.64465885 C33.2495704,8.30632324 33.5118415,8.94501968 33.9901139,9.40955684 C34.4611291,9.88050227 35.1064788,10.1419532 35.7773413,10.1336176 C36.4487893,10.1449946 37.0953069,9.88307041 37.5645687,9.40955684 C38.0494876,8.94869751 38.3159755,8.30842382 38.2991355,7.64465885 L38.2991355,2.79603802 C38.2939316,1.79205947 37.6772814,0.889466558 36.7354268,0.50723247 C35.7935722,0.124998381 34.7109551,0.337975418 33.9901139,1.0473021 C33.5192352,1.51006653 33.2579001,2.14065567 33.265385,2.79603802 L33.265385,2.79603802 Z" id="Shape" fill="#19232B"></path>
                            </g>
                            <path d="M66.9657765,18.1079154 L67.0932879,18.1131514 C67.6797265,18.1616103 68.1378556,18.5406802 68.1440042,19.0095086 C68.1504709,19.5118248 67.6282916,19.9239816 66.9755674,19.9239816 L66.9755674,19.9239816 L45.7816129,20.0560006 L45.65406,20.0508057 C45.0672423,20.0027208 44.6062702,19.6264559 44.600122,19.1576275 C44.5936549,18.6553113 45.1190979,18.2399344 45.7718221,18.2399344 L45.7718221,18.2399344 L66.9657765,18.1079154 Z M56.9188395,7.19876213 C61.3781183,7.17545263 65.1672684,10.4514046 65.785464,14.864501 C65.8069527,15.0593805 65.7443564,15.254181 65.6133478,15.4001283 C65.4823391,15.5460757 65.295322,15.6293518 65.0991216,15.6291059 L47.6384393,15.7702132 C47.4433851,15.768602 47.2581371,15.6845226 47.1285846,15.538803 C46.9990321,15.3930833 46.9372943,15.1993551 46.9586647,15.0056083 C47.5065984,10.5785022 51.2497757,7.24069439 55.7136354,7.19876213 L56.9188395,7.19876213 Z M56.1758641,1.74400005 C57.0427259,1.74400005 57.7454562,2.44175 57.7454562,3.30246819 C57.7454562,4.16318637 57.0427259,4.86093632 56.1758641,4.86093632 C55.3090023,4.86093632 54.606272,4.16318637 54.606272,3.30246819 C54.606272,2.44175 55.3090023,1.74400005 56.1758641,1.74400005 Z" id="Combined-Shape" fill="url(#linearGradient-8)" fill-rule="nonzero"></path>
                            <path d="M48.5240631,64.3969129 L43.7579526,65.7777328 C43.3408672,65.9030467 42.88909,65.8237427 42.5396153,65.5638684 C42.1901406,65.3039942 41.9841337,64.8941608 41.9840629,64.4586437 L41.9840629,59.2960018 L48.5208142,59.2960018 L48.5240631,64.3969129 Z" id="Path" fill="url(#linearGradient-9)" fill-rule="nonzero"></path>
                            <path d="M54.1920632,64.387309 L58.9549248,65.7755518 C59.3692529,65.9027053 59.8192426,65.826837 60.1690631,65.5708479 C60.5188836,65.3148588 60.7275455,64.9087439 60.7320634,64.4750902 L60.7320634,59.2960018 L54.198561,59.2960018 L54.1920632,64.387309 Z" id="Path" fill="url(#linearGradient-10)" fill-rule="nonzero"></path>
                            <path d="M48.088063,59.2960018 L54.1920632,59.2960018 L54.1920632,64.0493854 C54.1920632,64.4075912 54.0499954,64.7511258 53.7971131,65.0044156 C53.5442308,65.2577053 53.2012488,65.400002 52.8436192,65.400002 L49.4365071,65.400002 C48.691782,65.400002 48.088063,64.7953104 48.088063,64.0493854 L48.088063,59.2960018 Z" id="Path" fill="url(#linearGradient-11)" fill-rule="nonzero"></path>
                            <g id="Layer3_0_1_STROKES" transform="translate(38.060063, 66.272002)" fill="url(#linearGradient-12)" fill-rule="nonzero">
                                <path d="M15.4985869,20.2493355 C17.1118091,19.6148604 18.6586701,18.8229159 20.1167709,17.8849697 C24.6961195,14.9408485 28.3142904,10.5586746 30.8741948,4.86476358 C31.6087968,3.22982646 30.8799821,1.3084628 29.2463415,0.573277732 C27.6127009,-0.161907339 25.692861,0.567485809 24.9582589,2.20242292 C20.8708262,11.3036118 13.8513159,15.8056233 3.49519186,15.9708051 C1.70783893,15.9994254 0.282086074,17.4727126 0.310683721,19.261484 C0.339281368,21.0502555 1.81140017,22.4771399 3.5987531,22.4485195 C7.66554676,22.4409732 11.6973084,21.6958716 15.4985869,20.2493355 L15.4985869,20.2493355 Z" id="Path"></path>
                            </g>
                            <g id="Layer3_0_2_STROKES" transform="translate(34.572063, 83.712003)" fill="#577288" fill-rule="nonzero">
                                <path d="M1.24571432,6.20054305 C0.716936963,6.0947695 0.367347339,5.58867127 0.45559107,5.05668764 C0.5438348,4.524704 1.03810541,4.15858259 1.57271433,4.22920013 C2.74294973,4.44843448 3.95299056,4.25702802 4.99842872,3.6873144 C5.48174101,3.42243862 6.08826728,3.59951641 6.35314305,4.0828287 C6.61801883,4.56614099 6.44094104,5.17266725 5.95762875,5.43754302 C5.69531109,5.58278224 5.42379075,5.7107401 5.14480016,5.82060018 C3.90407368,6.30045409 2.55573839,6.4318414 1.24571432,6.20054305 L1.24571432,6.20054305 Z M0.987228602,2.75925723 C0.617524156,2.72334821 0.298210378,2.48541814 0.158068148,2.14142542 C0.017925919,1.7974327 0.0800638416,1.40409965 0.319421374,1.1200595 C0.558778906,0.836019355 0.935887444,0.708108603 1.29865718,0.78791431 C2.47923993,1.01496819 3.70205448,0.822182115 4.75551443,0.242914293 C5.23796673,-0.0228214449 5.84449298,0.15286203 6.11022873,0.635314321 C6.37596448,1.11776661 6.20028103,1.72429286 5.71782875,1.99002863 C5.4503565,2.13838113 5.17365673,2.26944944 4.88942872,2.38242864 C3.65148385,2.86045243 2.30636815,2.99076388 0.999685745,2.75925723 L0.987228602,2.75925723 Z" id="Shape"></path>
                            </g>
                        </g>
                        <path d="M72,305.977671 C71.9967087,307.066341 69.6673141,308.036678 65.0118125,308.888681 C59.3714057,309.687565 53.7002524,310.056098 48.0271225,309.992413 C42.365435,310.058736 36.7056518,309.690193 31.0769542,308.888681 C26.3589847,308.062497 24,307.09216 24,305.977671 C24,304.863182 26.3589847,303.922966 31.0769542,303.157024 C36.7038058,302.321754 42.3644474,301.938065 48.0271225,302.008111 C53.7012345,301.940824 59.3732338,302.324501 65.0118125,303.157024 C69.6738896,303.948785 72.0032843,304.889 72,305.977671 Z" id="Path-Copy-3" fill-opacity="0.3" fill="#000000" opacity="0.8"></path>
                    </g>
                    <g id="Group-4" transform="translate(464.675303, 62.394824)">
                        <path d="M118.524697,312.415176 C127.97803,313.641843 132.701363,315.098509 132.694704,316.785176 C132.68803,318.471843 127.964697,319.975176 118.524697,321.295176 C107.087596,322.532878 95.5881502,323.103843 84.0846966,323.005176 C72.6044449,323.10793 61.1280544,322.536949 49.7146966,321.295176 C40.1480299,320.015176 35.3646966,318.511843 35.3646966,316.785176 C35.3646966,315.058509 40.1480299,313.601843 49.7146966,312.415176 C61.1243113,311.1211 72.6024423,310.526655 84.0846966,310.635176 C95.5901416,310.530928 107.091303,311.125355 118.524697,312.415176 L118.524697,312.415176 Z" id="Path" fill-opacity="0.3" fill="#000000"></path>
                        <path d="M71.3546966,112.295176 L71.2146966,112.365176 L71.2146966,112.365176 C70.8834174,112.573908 70.4957394,112.675194 70.1046966,112.655176 L13.4546966,112.655176 C12.354587,112.774332 11.346454,112.031269 11.1346966,110.945176 L2.30469657,76.3951759 C2.29660536,76.3220657 2.29660536,76.248286 2.30469657,76.1751759 C2.17282254,75.8374828 2.23404151,75.4548643 2.46469657,75.1751759 L2.46469657,75.1751759 C2.46853054,75.1140387 2.48930584,75.0551754 2.52469657,75.0051759 C2.89504407,74.793276 3.31861114,74.692592 3.74469657,74.7151759 L60.3546966,74.7151759 C61.4471798,74.5995032 62.4497914,75.3298539 62.6746966,76.4051759 L71.5246966,110.945176 C71.6713632,111.297176 71.6713632,111.693176 71.5246966,112.045176 L71.3746966,112.275176 L71.3546966,112.295176 Z" id="Path" fill="url(#linearGradient-15)"></path>
                        <path d="M2.43469657,75.1551759 L2.43469657,75.1551759 C2.20404151,75.4348643 2.14282254,75.8174828 2.27469657,76.1551759 C2.26660536,76.228286 2.26660536,76.3020657 2.27469657,76.3751759 L11.1046966,110.925176 C11.316454,112.011269 12.324587,112.754332 13.4246966,112.635176 L70.0546966,112.635176 C70.4457394,112.655194 70.8334174,112.553908 71.1646966,112.345176 L71.1646966,112.345176 L71.3046966,112.275176 L69.5246966,114.075176 L9.30469657,114.075176 C9.12245483,113.809099 8.99341676,113.510274 8.92469657,113.195176 L0.0946965727,78.5851759 C-0.0791996038,78.1604179 -0.0103834988,77.6748821 0.274696573,77.3151759 L2.43469657,75.1551759 Z" id="Path" fill="url(#linearGradient-16)"></path>
                        <path d="M21.4146966,83.9051759 L21.2746966,83.4751759 L21.2746966,83.2451759 L20.7346966,81.1751759 C20.6246966,80.8451759 20.7346966,80.6751759 21.0746966,80.6751759 L31.8946966,80.6751759 C32.2123709,80.6483098 32.5000447,80.8629918 32.5646966,81.1751759 L32.7246966,81.7851759 L33.1046966,83.2451759 L33.1046966,83.4751759 L33.2846966,84.1251759 C33.3746966,84.4451759 33.2846966,84.5951759 32.9046966,84.5951759 L22.0646966,84.5951759 C21.7657186,84.621559 21.4945801,84.419281 21.4346966,84.1251759 L21.4146966,83.9051759 Z M18.1446966,81.1751759 L18.9046966,84.1751759 C18.9646966,84.4551759 18.8446966,84.5951759 18.5246966,84.5951759 L7.68469657,84.5951759 C7.41625064,84.6256002 7.17065409,84.4414028 7.12469657,84.1751759 L7.07469657,84.1751759 L6.28469657,81.1751759 C6.21469657,80.8451759 6.34469657,80.6751759 6.69469657,80.6751759 L17.5246966,80.6751759 C17.8328434,80.6458494 18.1080754,80.8678107 18.1446966,81.1751759 Z M8.14469657,88.1751759 L7.98469657,87.6551759 L7.98469657,87.6551759 L7.75469657,86.7251759 L7.75469657,86.7251759 L7.68469657,86.4051759 L7.50469657,85.7051759 L7.50469657,85.6451759 C7.41469657,85.2951759 7.50469657,85.1251759 7.89469657,85.1251759 L18.6146966,85.1251759 C18.9409896,85.0991089 19.2343613,85.323452 19.2946966,85.6451759 L19.4746966,86.4051759 L19.5646966,86.7251759 L19.5646966,86.7251759 L19.7846966,87.6551759 L19.7846966,87.6551759 L19.9246966,88.1751759 L20.3946966,90.1151759 L20.7346966,91.5751759 L20.9346966,92.2351759 L21.1146966,92.9051759 C21.2046966,93.2651759 21.1146966,93.4451759 20.7146966,93.4451759 L9.89469657,93.4451759 C9.57576054,93.457721 9.30107746,93.2222784 9.26469657,92.9051759 L9.08469657,92.2351759 L8.92469657,91.5751759 L8.52469657,90.1451759 L8.18469657,88.7251759 L8.14469657,88.1751759 Z M38.1446966,83.4451759 L36.1746966,83.4451759 C35.8766208,83.4896591 35.5941417,83.2984424 35.5246966,83.0051759 L35.0546966,81.2251759 C34.9746966,80.8951759 35.1046966,80.7251759 35.4346966,80.7251759 L46.3546966,80.7251759 C46.6516431,80.7125307 46.9084655,80.9301768 46.9446966,81.2251759 L47.3946966,83.0051759 C47.4946966,83.3451759 47.3946966,83.5251759 47.0346966,83.5251759 L38.0346966,83.5251759 L38.1446966,83.4451759 Z M22.2546966,85.0851759 L33.0346966,85.0851759 C33.3391328,85.0615482 33.6081127,85.2820236 33.6446966,85.5851759 L36.8446966,98.2251759 C36.9246966,98.5851759 36.7846966,98.7651759 36.4146966,98.7651759 L25.6446966,98.7651759 C25.3231015,98.7741346 25.0448405,98.5429639 24.9946966,98.2251759 L21.8146966,85.5851759 C21.7446966,85.2851759 21.8646966,85.1151759 22.1946966,85.1151759 L22.2546966,85.0851759 Z M38.1946966,91.2151007 L48.9746966,91.2151007 C49.2838459,91.2104329 49.5507481,91.4307332 49.6046966,91.7351759 L51.4546966,99.0051759 L51.4546966,99.0051759 L52.9146966,104.885176 C52.9946966,105.215176 52.9146966,105.385176 52.5346966,105.385176 L41.6946966,105.385176 C41.3844724,105.414826 41.1062674,105.194029 41.0646966,104.885176 L39.5946966,99.0051759 L39.5946966,99.0051759 L37.7446966,91.7451759 C37.6746966,91.4151759 37.8046966,91.2451759 38.1346966,91.2451759 L38.1946966,91.2151007 Z M49.9746966,80.6451759 L60.7546966,80.6451759 C61.0723709,80.6183098 61.3600447,80.8329918 61.4246966,81.1451759 L61.8146966,82.6951759 L63.1146966,87.8351759 L63.2046966,88.2451759 L63.2046966,88.4451759 L63.4946966,89.6151759 L63.7146966,90.3851759 L64.0346966,91.7551759 L64.1246966,92.0551759 L64.1246966,92.0551759 L64.3446966,92.8851759 L64.8246966,94.7551759 L64.9846966,95.3851759 C65.0846966,95.7351759 64.9846966,95.9051759 64.5946966,95.9051759 L53.7246966,95.9051759 C53.4150316,95.9228313 53.14628,95.6937316 53.1146966,95.3851759 L52.9646966,94.7551759 L52.5246966,92.9351759 L52.3446966,92.1051759 L52.3446966,92.1051759 L52.2146966,91.8051759 L51.8746966,90.4351759 L51.4046966,88.4951759 L51.2446966,87.8851759 L49.9546966,82.7451759 L49.5546966,81.1951759 C49.4546966,80.8451759 49.5846966,80.6751759 49.9146966,80.6751759 L49.9746966,80.6451759 Z" id="Shape" fill-opacity="0.4" fill="#FFFFFF"></path>
                        <path d="M37.3846966,90.2751759 L35.9246966,84.4151759 C35.8346966,84.0751759 35.9246966,83.9051759 36.3046966,83.9051759 L47.1646966,83.9051759 C47.467654,83.8967135 47.7293534,84.1155114 47.7746966,84.4151759 L49.2246966,90.2751759 C49.2946966,90.5951759 49.2246966,90.7551759 48.8846966,90.7751759 L38.0446966,90.7751759 C37.727947,90.8062065 37.4405724,90.5884985 37.3846966,90.2751759 Z" id="Path" fill-opacity="0.4" fill="#FFFFFF"></path>
                        <path d="M47.8646966,57.8251759 C45.6622311,55.1700709 42.5570214,53.42161 39.1446966,52.9151759 C35.7338985,52.3249066 32.2343495,53.2362475 29.5446966,55.4151759 C25.3595523,58.633271 23.5109494,64.0463708 24.8534349,69.1521814 C26.1959203,74.257992 30.4679454,78.0617775 35.6946966,78.8051759 C39.1478379,79.3049472 42.6569322,78.3956462 45.4328067,76.2817689 C48.2086811,74.1678916 50.0183018,71.0268974 50.4546966,67.5651759 C51.001539,64.098642 50.0611578,60.5622276 47.8646966,57.8251759 L47.8646966,57.8251759 Z M51.5846966,55.0951759 C54.5495666,58.7335924 55.8421872,63.4538359 55.1446966,68.0951759 C54.6720167,72.8607729 52.228267,77.2116625 48.4046966,80.0951759 L48.2046966,80.0951759 C44.4577362,83.0142247 39.6604401,84.2325856 34.9746966,83.4551759 C30.2667979,82.885586 25.9886935,80.4381565 23.1115214,76.6684585 C20.2343492,72.8987604 19.0021721,68.1265672 19.6946966,63.4351759 C20.1604561,58.7217358 22.653381,54.4439788 26.5246966,51.7151759 C30.2233135,48.633113 35.0647849,47.2825973 39.8246966,48.0051759 C44.5577908,48.6368456 48.8164989,51.204383 51.5846966,55.0951759 L51.5846966,55.0951759 Z" id="Shape" fill-opacity="0.2" fill="#79E2F2"></path>
                        <path d="M47.8646966,57.8251759 C50.0611578,60.5622276 51.001539,64.098642 50.4546966,67.5651759 C50.0183018,71.0268974 48.2086811,74.1678916 45.4328067,76.2817689 C42.6569322,78.3956462 39.1478379,79.3049472 35.6946966,78.8051759 C30.4586824,78.0771141 26.1722388,74.275521 24.8238763,69.1639814 C23.4755138,64.0524418 25.3290814,58.6311877 29.5246966,55.4151759 C32.2143495,53.2362475 35.7138985,52.3249066 39.1246966,52.9151759 C42.5442173,53.4169284 45.6572922,55.1658069 47.8646966,57.8251759 Z M44.4446966,66.6651759 C44.6331999,64.7708099 44.093286,62.8757475 42.9346966,61.3651759 C41.8556415,59.7814878 40.1466922,58.7393566 38.2446966,58.5051759 C36.3223903,58.2061785 34.3623604,58.7206411 32.8346966,59.9251759 C31.2909988,61.101546 30.2768592,62.8421262 30.0146966,64.7651759 C29.735817,66.6459439 30.2339965,68.5592419 31.3946966,70.0651759 C32.5884978,71.6986459 34.3916107,72.7805137 36.3946966,73.0651759 C38.2856156,73.28438 40.1851449,72.7329037 41.6646966,71.5351759 C43.2149468,70.3573281 44.2186964,68.598961 44.4446966,66.6651759 L44.4446966,66.6651759 Z" id="Shape" fill-opacity="0.5" fill="#79E2F2"></path>
                        <path d="M44.4446966,66.6651759 C44.2059416,68.5913293 43.1954527,70.3380314 41.6446966,71.5051759 C40.1605477,72.6922164 38.2614861,73.2327462 36.3746966,73.0051759 C34.3716107,72.7205137 32.5684978,71.6386459 31.3746966,70.0051759 C30.2139965,68.4992419 29.715817,66.5859439 29.9946966,64.7051759 C30.2568592,62.7821262 31.2709988,61.041546 32.8146966,59.8651759 C34.3423604,58.6606411 36.3023903,58.1461785 38.2246966,58.4451759 C40.1266922,58.6793566 41.8356415,59.7214878 42.9146966,61.3051759 C44.0952851,62.8284654 44.6432711,64.7482074 44.4446966,66.6651759 Z" id="Path" fill="#79E2F2"></path>
                        <path d="M66.7346966,26.9351759 C66.6440184,26.7630551 66.6440184,26.5572967 66.7346966,26.3851759 L67.4546966,24.5851759 C67.550097,24.4287583 67.6891288,24.3036297 67.8546966,24.2251759 C68.0296647,24.1649848 68.2197285,24.1649848 68.3946966,24.2251759 C68.5597895,24.3004723 68.6964543,24.4266245 68.7846966,24.5851759 L68.7846966,24.6551759 C68.864732,24.8087046 68.864732,24.9916472 68.7846966,25.1451759 L68.0646966,26.9351759 C67.9789111,27.107579 67.8331091,27.2427125 67.6546966,27.3151759 C67.4776002,27.3997087 67.271793,27.3997087 67.0946966,27.3151759 C66.9114248,27.2685864 66.7713187,27.1206966 66.7346966,26.9351759 Z M55.8446966,81.6451759 C56.3166667,79.6567163 57.0355841,77.7351241 57.9846966,75.9251759 C60.4703964,70.7739678 65.0300349,66.923364 70.5246966,65.3351759 C76.6380299,65.8218425 79.5680299,70.0718425 79.3146966,78.0851759 C79.3146966,79.6751759 79.2446966,81.4051759 79.1546966,83.2651759 C78.5946966,93.7851759 77.8813632,101.785176 77.0146966,107.265176 C76.8146966,108.465176 76.6146966,109.585176 76.4046966,110.645176 C73.7846966,124.645176 68.5346966,132.238509 60.6546966,133.425176 C57.5767888,133.918048 54.4229433,133.57261 51.5246966,132.425176 C48.7882426,131.348708 46.1170239,130.113269 43.5246966,128.725176 C43.8546966,128.165176 44.2146966,126.145176 44.6046966,122.635176 C44.8251808,119.500374 45.8292078,116.4711 47.5246966,113.825176 C49.2980299,114.218509 50.3713632,113.161843 50.7446966,110.655176 C52.0780299,103.555176 53.1380299,97.5551759 53.9246966,92.6551759 C54.1346966,91.3651759 54.3146966,90.1551759 54.4646966,89.0351759 C54.460013,89.0053587 54.460013,88.9749931 54.4646966,88.9451759 C54.4633029,88.7628264 54.4868545,88.5811429 54.5346966,88.4051759 C54.5766449,88.6578675 54.6436418,88.9057562 54.7346966,89.1451759 C55.146155,90.6738609 55.9734761,92.0584987 57.1246966,93.1451759 C57.5146966,93.5351759 57.9046966,93.8851759 58.2946966,94.2051759 C62.3240476,97.1269134 67.9352821,96.3842942 71.0658701,92.514974 C74.1964581,88.6456538 73.751405,83.0030158 70.0529288,79.6723261 C66.3544527,76.3416363 60.6961802,76.4878796 57.1746966,80.0051759 C56.6635921,80.4932131 56.2166692,81.0443061 55.8446966,81.6451759 Z M64.8446966,102.085176 L64.8446966,102.085176 C65.732736,102.113571 66.5389222,101.569395 66.8446966,100.735176 L66.8446966,100.555176 C66.9776555,100.076864 66.9127947,99.5651846 66.6646966,99.1351759 C66.4639739,98.7811581 66.1455117,98.508696 65.7646966,98.3651759 L65.7646966,98.3651759 L56.0946966,95.7551759 C55.6401067,95.613915 55.146394,95.6797433 54.7446966,95.9351759 C54.3057469,96.1619259 53.9800358,96.5600173 53.8446966,97.0351759 L53.7746966,97.2351759 C53.6551598,97.6925032 53.7122862,98.1780776 53.9346966,98.5951759 C54.1922902,99.0324472 54.6015455,99.3598514 55.0846966,99.5151759 L64.8446966,102.085176 Z M75.6646966,292.445176 L90.6646966,292.445176 C90.6290554,295.798411 90.9170566,299.147263 91.5246966,302.445176 C91.6746966,303.225176 91.8046966,303.985176 91.9046966,304.725176 C92.2349961,306.946285 92.3921361,309.18971 92.3746966,311.435176 C92.353112,312.823404 92.2495987,314.209147 92.0646966,315.585176 L66.0646966,315.585176 C64.8513632,315.431843 63.7080299,314.431843 62.6346966,312.585176 C61.5161003,310.710445 59.7300041,309.328006 57.6346966,308.715176 C58.0646966,308.515176 58.5246966,308.325176 58.9846966,308.145176 C63.6282634,306.400251 67.965528,303.929529 71.8346966,300.825176 C74.9613632,298.078509 76.2280299,295.285176 75.6346966,292.445176 L75.6646966,292.445176 Z M75.5746966,302.945176 C74.575922,303.848627 74.0147649,305.138559 74.0346966,306.485176 C74.0884522,309.043182 75.9750611,311.191469 78.5046966,311.575176 C78.7265436,311.607873 78.9504538,311.624582 79.1746966,311.625176 C80.5385235,311.639821 81.8467422,311.085368 82.7846966,310.095176 C83.1797835,309.716809 83.51676,309.282109 83.7846966,308.805176 C83.8300847,308.6818 83.8835332,308.561541 83.9446966,308.445176 C84.1806144,307.805239 84.2958942,307.127122 84.2846966,306.445176 C84.3097667,305.107797 83.7686039,303.822081 82.7946966,302.905176 C81.8616666,301.905558 80.552044,301.343255 79.1846966,301.355176 C77.7920259,301.330239 76.4569304,301.910239 75.5246966,302.945176 L75.5746966,302.945176 Z" id="Shape" fill="#FFFFFF"></path>
                        <path d="M59.6546966,37.8551759 L59.6546966,37.8551759 L59.7646966,36.7351759 L59.7646966,36.7351759 C60.8801063,36.8138757 61.9987206,36.6359921 63.0346966,36.2151759 C63.1398929,36.1544407 63.2695002,36.1544407 63.3746966,36.2151759 C63.5187993,36.2835247 63.6377477,36.3954761 63.7146966,36.5351759 C63.7882787,36.6583573 63.7882787,36.8119944 63.7146966,36.9351759 C63.6622329,37.0814863 63.5492682,37.198095 63.4046966,37.2551759 C62.213783,37.7276154 60.9335644,37.9324504 59.6546966,37.8551759 L59.6546966,37.8551759 Z" id="Path" fill="#403294"></path>
                        <path d="M119.644697,131.605176 L124.784697,229.725176 C124.994697,233.325176 124.274697,235.785176 122.614697,237.125176 L120.524697,238.765176 C119.517106,239.569043 118.447051,240.29133 117.324697,240.925176 C110.744697,244.645176 102.16803,245.615176 91.5946966,243.835176 C87.64002,243.12994 83.7326027,242.181473 79.8946966,240.995176 C72.6318895,238.737586 65.1824686,237.131241 57.6346966,236.195176 C54.3546966,235.825176 51.1346966,235.585176 47.9646966,235.495176 L45.8646966,235.495176 L44.2846966,235.495176 C40.6046966,235.341843 39.0113632,233.341843 39.5046966,229.495176 L51.5046966,132.495176 C54.4029433,133.64261 57.5567888,133.988048 60.6346966,133.495176 C68.5146966,132.275176 73.7646966,124.681843 76.3846966,110.715176 C76.5946966,109.655176 76.7946966,108.535176 76.9946966,107.335176 C77.8680299,101.841843 78.5813632,93.8418425 79.1346966,83.3351759 C79.2246966,81.4751759 79.2746966,79.7451759 79.2946966,78.1551759 C79.5480299,70.1551759 76.6180299,65.9051759 70.5046966,65.4051759 C71.1835826,65.1849867 71.874762,65.004679 72.5746966,64.8651759 L73.9046966,64.5451759 C80.031688,63.5176548 86.2172241,62.8763897 92.4246966,62.6251759 C96.7180299,62.4051759 101.174697,62.3385092 105.794697,62.4251759 C106.544482,62.8900992 107.218915,63.466739 107.794697,64.1351759 C114.601363,71.3418425 118.551363,93.8318425 119.644697,131.605176 Z" id="Path" fill="url(#linearGradient-17)"></path>
                        <path d="M108.824697,63.4651759 C107.853673,62.9720189 106.82607,62.5992611 105.764697,62.3551759 C103.044697,54.5551759 98.1246966,51.3618425 91.0046966,52.7751759 C87.6925802,53.4259401 84.5229973,54.661942 81.6446966,56.4251759 C79.2016682,57.9458756 76.974926,59.7891607 75.0246966,61.9051759 L74.8846966,62.0451759 C63.5113632,62.5651759 57.2613632,61.6318425 56.1346966,59.2451759 C55.0080299,56.8585092 55.8746966,54.8218425 58.7346966,53.1351759 C60.9046966,51.8951759 62.0146966,50.3651759 62.0446966,48.5651759 C62.0379317,47.9498666 61.92284,47.3405581 61.7046966,46.7651759 C60.8446966,44.2051759 61.8446966,41.7085092 64.7046966,39.2751759 C67.5646966,36.8418425 68.7046966,34.8151759 68.1246966,33.1951759 C67.4580299,31.4951759 67.9013632,29.6318425 69.4546966,27.6051759 C70.8991962,25.9026806 71.1494353,23.4876745 70.0846966,21.5251759 C69.4246966,20.3951759 68.7546966,19.1151759 68.0846966,17.6651759 C67.5246966,16.5751759 66.9646966,15.3951759 66.3946966,14.1251759 C65.0572685,11.3093322 65.2263928,8.00952985 66.8446966,5.34517588 C68.3339849,2.50232627 71.151609,0.597612374 74.3446966,0.275175879 C77.7846966,-0.218157454 83.3280299,-0.0481574539 90.9746966,0.785175879 C98.6213632,1.61850921 104.621363,3.91850921 108.974697,7.68517588 C113.361363,11.3985092 115.321363,15.3985092 114.854697,19.6851759 C114.28837,23.5369103 115.129825,27.4636983 117.224697,30.7451759 C119.291363,33.7851759 119.711363,36.4751759 118.484697,38.8151759 C117.25803,41.1551759 116.731363,42.7185092 116.904697,43.5051759 C117.054697,44.3151759 117.294697,46.0551759 117.604697,48.7351759 C117.838135,51.3336504 117.740689,53.9512501 117.314697,56.5251759 C116.894697,59.0051759 115.894697,60.4851759 114.314697,60.9651759 C112.903378,61.4586037 111.526924,62.0466032 110.194697,62.7251759 C109.794697,62.9118425 109.33803,63.1585092 108.824697,63.4651759 Z" id="Path" fill="url(#linearGradient-18)"></path>
                        <path d="M108.824697,63.4651759 C114.23803,66.3651759 118.264697,73.8018425 120.904697,85.7751759 C123.984697,99.9285092 125.824697,110.338509 126.424697,117.005176 C127.024697,123.671843 124.764697,128.551843 119.644697,131.645176 C118.544697,93.8651759 114.601363,71.3518425 107.814697,64.1051759 C107.238915,63.436739 106.564482,62.8600992 105.814697,62.3951759 C106.85716,62.6303581 107.867694,62.9895844 108.824697,63.4651759 Z" id="Path" fill="url(#linearGradient-19)"></path>
                        <path d="M62.0446966,48.5651759 C61.9233574,48.5308445 61.808491,48.4767897 61.7046966,48.4051759 C59.4546966,47.2951759 58.5546966,45.2251759 59.0246966,42.2051759 C59.2780299,40.7585092 59.4880299,39.3085092 59.6546966,37.8551759 C60.9535311,37.9413927 62.2552231,37.7364018 63.4646966,37.2551759 C63.6092682,37.198095 63.7222329,37.0814863 63.7746966,36.9351759 C63.8482787,36.8119944 63.8482787,36.6583573 63.7746966,36.5351759 C63.6977477,36.3954761 63.5787993,36.2835247 63.4346966,36.2151759 C63.3295002,36.1544407 63.1998929,36.1544407 63.0946966,36.2151759 C62.0587206,36.6359921 60.9401063,36.8138757 59.8246966,36.7351759 C59.8246966,36.2685092 59.8546966,35.8085092 59.9146966,35.3551759 C59.9746966,34.6851759 60.0446966,34.0251759 60.1046966,33.3551759 C60.2946966,30.4551759 61.1046966,28.7051759 62.4846966,28.0851759 C63.8646966,27.4651759 65.3846966,24.9851759 66.8846966,20.6751759 C67.2446966,19.6751759 67.6446966,18.6751759 68.1046966,17.6251759 C68.7946966,19.0751759 69.4646966,20.3551759 70.1046966,21.4851759 C71.1694353,23.4476745 70.9191962,25.8626806 69.4746966,27.5651759 C67.9413632,29.5651759 67.4980299,31.4285092 68.1446966,33.1551759 C68.7913632,34.8818425 67.6513632,36.9085092 64.7246966,39.2351759 C61.8646966,41.6751759 60.8646966,44.1718425 61.7246966,46.7251759 C61.9406853,47.3143985 62.0490732,47.9376288 62.0446966,48.5651759 Z M66.7346966,26.9351759 C66.7671322,27.1339279 66.917868,27.2925971 67.1146966,27.3351759 C67.291793,27.4197087 67.4976002,27.4197087 67.6746966,27.3351759 C67.8531091,27.2627125 67.9989111,27.127579 68.0846966,26.9551759 L68.8046966,25.1651759 C68.884732,25.0116472 68.884732,24.8287046 68.8046966,24.6751759 L68.8046966,24.6051759 C68.7164543,24.4466245 68.5797895,24.3204723 68.4146966,24.2451759 C68.2397285,24.1849848 68.0496647,24.1849848 67.8746966,24.2451759 C67.7091288,24.3236297 67.570097,24.4487583 67.4746966,24.6051759 L66.7546966,26.4051759 C66.6645235,26.5687203 66.6571054,26.7653007 66.7346966,26.9351759 L66.7346966,26.9351759 Z" id="Shape" fill="url(#linearGradient-20)"></path>
                        <path d="M55.7346966,82.2551759 C55.3280299,84.0285092 54.9446966,86.0885092 54.5846966,88.4351759 C54.5368545,88.6111429 54.5133029,88.7928264 54.5146966,88.9751759 L51.3646966,86.4451759 L46.0646966,82.5751759 C45.7080381,82.3111918 45.4649771,81.9215793 45.3846966,81.4851759 C45.3159831,81.0609844 45.4324983,80.6276936 45.7046966,80.2951759 C45.9196496,79.9104411 46.3240139,79.6701114 46.7646966,79.6651759 C47.1971945,79.5988125 47.638945,79.6950002 48.0046966,79.9351759 L52.9346966,83.3351759 C53.812145,82.8443296 54.7549069,82.4806929 55.7346966,82.2551759 L55.7346966,82.2551759 Z" id="Path" fill="url(#linearGradient-21)"></path>
                        <path d="M54.5846966,88.4351759 C54.9446966,86.0818425 55.3280299,84.0218425 55.7346966,82.2551759 C55.7346966,82.0451759 55.8146966,81.8451759 55.8446966,81.6451759 C56.2166692,81.0443061 56.6635921,80.4932131 57.1746966,80.0051759 C60.6852643,76.5367074 66.2910425,76.4060421 69.9594031,79.7071766 C73.6277638,83.0083112 74.0869288,88.5967807 71.0065886,92.4524082 C67.9262484,96.3080358 62.3743214,97.0941202 58.3446966,94.2451759 C57.9546966,93.9251759 57.5646966,93.5751759 57.1746966,93.1851759 C56.0234761,92.0984987 55.196155,90.7138609 54.7846966,89.1851759 C54.6929991,88.942531 54.6259937,88.6912609 54.5846966,88.4351759 L54.5846966,88.4351759 Z M33.3546966,121.625176 C33.8680299,116.445176 34.8680299,112.688509 36.3546966,110.355176 L36.8746966,109.615176 C37.6880299,108.541843 38.9046966,108.338509 40.5246966,109.005176 L46.6046966,111.685176 C47.2346966,111.945176 47.5446966,112.685176 47.5346966,113.825176 C45.8427355,116.472055 44.8421683,119.501264 44.6246966,122.635176 C44.2346966,126.145176 43.8746966,128.165176 43.5446966,128.725176 C43.331534,129.20264 42.8186346,129.471499 42.3046966,129.375176 L35.4346966,126.715176 C33.8361394,126.253248 32.8696807,124.630822 33.2246966,123.005176 C33.2546966,122.545176 33.2946966,122.095176 33.3546966,121.625176 Z" id="Shape" fill="url(#linearGradient-22)"></path>
                        <path d="M53.9546966,92.6851759 C53.592216,92.2997591 53.2580151,91.888692 52.9546966,91.4551759 C51.7140811,90.1054447 51.1450861,88.2699771 51.4046966,86.4551759 L54.5246966,89.0051759 C54.520013,89.0349931 54.520013,89.0653587 54.5246966,89.0951759 C54.3446966,90.1851759 54.1646966,91.3951759 53.9546966,92.6851759 Z" id="Path" fill="url(#linearGradient-23)"></path>
                        <path d="M105.764697,62.3551759 C101.13803,62.2685092 96.6813632,62.3351759 92.3946966,62.5551759 C86.1872241,62.8063897 80.001688,63.4476548 73.8746966,64.4751759 L72.5446966,64.7951759 C73.3146966,63.7951759 74.0946966,62.9151759 74.8846966,62.0451759 L75.0246966,61.9051759 C76.974926,59.7891607 79.2016682,57.9458756 81.6446966,56.4251759 C84.5229973,54.661942 87.6925802,53.4259401 91.0046966,52.7751759 C98.1246966,51.3685092 103.044697,54.5618425 105.764697,62.3551759 Z" id="Path" fill="url(#linearGradient-24)"></path>
                        <path d="M64.8146966,102.085176 L55.1246966,99.4951759 C54.6415455,99.3398514 54.2322902,99.0124472 53.9746966,98.5751759 C53.7522862,98.1580776 53.6951598,97.6725032 53.8146966,97.2151759 L53.8846966,97.0151759 C54.0200358,96.5400173 54.3457469,96.1419259 54.7846966,95.9151759 C55.186394,95.6597433 55.6801067,95.593915 56.1346966,95.7351759 L65.8046966,98.3451759 L65.8046966,98.3451759 C66.1855117,98.488696 66.5039739,98.7611581 66.7046966,99.1151759 C66.9527947,99.5451846 67.0176555,100.056864 66.8846966,100.535176 L66.8846966,100.715176 C66.5789222,101.549395 65.772736,102.093571 64.8846966,102.065176 L64.8146966,102.085176 Z" id="Path" fill="url(#linearGradient-25)"></path>
                        <path d="M25.2146966,106.255176 C25.1116691,106.500855 24.9583861,106.722263 24.7646966,106.905176 C23.2046966,108.625176 22.3746966,111.555176 22.2646966,115.725176 C22.2384692,115.983467 22.184834,116.238234 22.1046966,116.485176 C22.0055284,116.683035 21.8774581,116.86503 21.7246966,117.025176 C21.3503831,117.314724 20.8877915,117.466567 20.4146966,117.455176 C19.9453303,117.464339 19.4956216,117.266906 19.1846966,116.915176 C18.8587476,116.593633 18.6781545,116.152986 18.6846966,115.695176 C18.6846966,115.485176 18.6846966,115.275176 18.6846966,115.045176 C18.8646966,110.378509 19.8646966,107.011843 21.6846966,104.945176 L21.6846966,104.945176 C21.8546966,104.755176 22.0146966,104.575176 22.1846966,104.405176 C22.6910262,103.884588 23.4605911,103.719254 24.13606,103.985944 C24.8115289,104.252634 25.2605763,104.899103 25.2746966,105.625176 C25.2828301,105.83691 25.2626518,106.048783 25.2146966,106.255176 Z" id="Path" fill="url(#linearGradient-26)"></path>
                        <path d="M8.09469657,97.8451759 C8.45063744,97.577286 8.84511468,97.3648752 9.26469657,97.2151759 C10.3522201,97.0297527 11.4704904,97.1870095 12.4646966,97.6651759 C12.7574566,97.7259044 13.0450044,97.8094939 13.3246966,97.9151759 C14.8260858,98.6013429 16.2534884,99.4390204 17.5846966,100.415176 C17.8421743,100.557858 18.0894354,100.718243 18.3246966,100.895176 C19.6859869,102.01662 20.8372092,103.370999 21.7246966,104.895176 L21.7246966,104.895176 C21.147221,104.626764 20.6034568,104.291107 20.1046966,103.895176 C19.1266749,103.161413 18.1010937,102.493282 17.0346966,101.895176 C14.8146966,100.888509 12.5780299,99.8885092 10.3246966,98.8951759 L8.09469657,97.8451759 Z" id="Path" fill="url(#linearGradient-27)"></path>
                        <path d="M18.7046966,115.005176 C17.5042548,114.710182 16.2582441,114.64907 15.0346966,114.825176 C12.6569754,114.988568 10.2715591,114.647794 8.03469657,113.825176 L7.92469657,113.715176 C6.26176429,112.807834 5.21235125,111.079165 5.17469657,109.185176 C5.02802991,106.938509 4.91469657,104.588509 4.83469657,102.135176 C3.13469657,101.395176 2.63136324,100.208509 3.32469657,98.5751759 C3.46433863,98.2604972 3.653391,97.9701667 3.88469657,97.7151759 C4.65119306,97.019055 5.75386338,96.8352766 6.70469657,97.2451759 L8.10469657,97.8451759 L10.3346966,98.8451759 C12.5880299,99.8385092 14.8246966,100.838509 17.0446966,101.845176 C18.1110937,102.443282 19.1366749,103.111413 20.1146966,103.845176 C20.6134568,104.241107 21.157221,104.576764 21.7346966,104.845176 C19.9013632,106.991843 18.8913632,110.378509 18.7046966,115.005176 Z M36.3246966,110.315176 C34.8580299,112.648509 33.8580299,116.405176 33.3246966,121.585176 L22.0746966,116.445176 C22.154834,116.198234 22.2084692,115.943467 22.2346966,115.685176 C22.3446966,111.515176 23.1746966,108.585176 24.7346966,106.865176 C24.9283861,106.682263 25.0816691,106.460855 25.1846966,106.215176 L36.3246966,110.315176 Z" id="Shape" fill="url(#linearGradient-28)"></path>
                        <path d="M91.6346966,261.165176 L91.6346966,285.285176 L73.8746966,285.285176 L57.6746966,236.195176 C65.2224686,237.131241 72.6718895,238.737586 79.9346966,240.995176 C83.7726027,242.181473 87.68002,243.12994 91.6346966,243.835176 L91.6346966,261.165176 Z" id="Path" fill="url(#linearGradient-29)"></path>
                        <path d="M91.6346966,261.165176 L91.6346966,243.835176 C102.201363,245.608509 110.77803,244.638509 117.364697,240.925176 L117.364697,285.285176 L99.5846966,285.285176 L91.6346966,261.165176 Z" id="Path" fill="url(#linearGradient-30)"></path>
                        <path d="M116.394697,292.445176 L99.9046966,292.445176 C99.414152,292.516665 98.9186592,292.352276 98.5681277,292.001745 C98.2175961,291.651213 98.0532074,291.15572 98.1246966,290.665176 L98.1246966,287.085176 C98.0639827,286.611262 98.2182395,286.135013 98.5452751,285.786691 C98.8723107,285.438369 99.3379,285.254427 99.8146966,285.285176 L117.904697,285.285176 C118.379152,285.256986 118.841339,285.442527 119.164604,285.790956 C119.487868,286.139385 119.638308,286.61416 119.574697,287.085176 L119.574697,290.665176 C119.574697,291.805176 119.054697,292.405176 117.994697,292.445176 L116.394697,292.445176 L116.394697,292.445176 Z" id="Path" fill="url(#linearGradient-31)"></path>
                        <path d="M101.364697,292.445176 L116.364697,292.445176 C116.359181,295.797211 116.646945,299.143302 117.224697,302.445176 C117.80324,305.410761 118.104539,308.423752 118.124697,311.445176 C118.08963,312.834567 117.969405,314.220501 117.764697,315.595176 L92.0846966,315.595176 C92.2695987,314.219147 92.373112,312.833404 92.3946966,311.445176 C92.4121361,309.19971 92.2549961,306.956285 91.9246966,304.735176 C93.9058796,303.612829 95.7774113,302.307109 97.5146966,300.835176 C100.654697,298.081843 101.93803,295.285176 101.364697,292.445176 Z M109.974697,306.445176 C110.003561,305.107071 109.461776,303.819875 108.484697,302.905176 C107.55917,301.900848 106.25033,301.33732 104.884697,301.355176 C103.511886,301.345001 102.196755,301.906558 101.254697,302.905176 C100.280789,303.822081 99.7396264,305.107797 99.7646966,306.445176 C99.731036,307.804605 100.271992,309.115244 101.254697,310.055176 C102.204349,311.040422 103.51631,311.593397 104.884697,311.585266 C107.699341,311.547009 109.964045,309.260059 109.974697,306.445176 L109.974697,306.445176 Z" id="Shape" fill="url(#linearGradient-32)"></path>
                        <path d="M109.974697,306.485176 C109.964045,309.300059 107.699341,311.587009 104.884697,311.625266 C103.51631,311.633397 102.204349,311.080422 101.254697,310.095176 C100.271992,309.155244 99.731036,307.844605 99.7646966,306.485176 C99.7396264,305.147797 100.280789,303.862081 101.254697,302.945176 C102.196755,301.946558 103.511886,301.385001 104.884697,301.395176 C106.25033,301.37732 107.55917,301.940848 108.484697,302.945176 C109.461776,303.859875 110.003561,305.147071 109.974697,306.485176 L109.974697,306.485176 Z" id="Path" fill="url(#linearGradient-33)"></path>
                        <path d="M91.6546966,317.075176 C91.8537411,316.582501 91.997943,316.06941 92.0846966,315.545176 L117.794697,315.545176 C117.713027,316.065309 117.585872,316.577273 117.414697,317.075176 C117.327278,317.044692 117.232115,317.044692 117.144697,317.075176 L91.6546966,317.075176 Z M76.0646966,317.075176 L79.5246966,317.075176 C78.1746966,317.075176 77.0046966,317.125176 76.0346966,317.125176 L76.0646966,317.075176 Z" id="Shape" fill="url(#linearGradient-34)"></path>
                        <path d="M90.6846966,292.445176 L74.1646966,292.445176 C73.6719031,292.519313 73.1730153,292.356615 72.8186734,292.006211 C72.4643314,291.655806 72.2960702,291.158767 72.3646966,290.665176 L72.3646966,287.085176 C72.309256,286.603598 72.4723881,286.1225 72.8093058,285.773965 C73.1462235,285.425429 73.6215168,285.246087 74.1046966,285.285176 L92.1046966,285.285176 C92.5814931,285.254427 93.0470825,285.438369 93.374118,285.786691 C93.7011536,286.135013 93.8554104,286.611262 93.7946966,287.085176 L93.7946966,290.665176 C93.7946966,291.805176 93.2746966,292.405176 92.2246966,292.445176 L90.6646966,292.445176 L90.6846966,292.445176 Z" id="Path" fill="url(#linearGradient-35)"></path>
                        <path d="M75.5246966,302.945176 C76.4502235,301.940848 77.759063,301.37732 79.1246966,301.395176 C80.492044,301.383255 81.8016666,301.945558 82.7346966,302.945176 C83.7086039,303.862081 84.2497667,305.147797 84.2246966,306.485176 C84.2358942,307.167122 84.1206144,307.845239 83.8846966,308.485176 C83.8235332,308.601541 83.7700847,308.7218 83.7246966,308.845176 C83.45676,309.322109 83.1197835,309.756809 82.7246966,310.135176 C81.7867422,311.125368 80.4785235,311.679821 79.1146966,311.665176 C78.8904538,311.664582 78.6665436,311.647873 78.4446966,311.615176 C75.9150611,311.231469 74.0284522,309.083182 73.9746966,306.525176 C73.9456596,305.16312 74.5115822,303.856021 75.5246966,302.945176 L75.5246966,302.945176 Z" id="Path" fill="url(#linearGradient-36)"></path>
                        <path d="M79.5246966,317.075176 L53.7746966,317.075176 C52.4346966,317.075176 51.2946966,317.125176 50.3446966,317.125176 L50.3446966,315.545176 C50.6380299,312.998509 53.0580299,310.708509 57.6046966,308.675176 C59.7000041,309.288006 61.4861003,310.670445 62.6046966,312.545176 C63.6846966,314.391843 64.8280299,315.391843 66.0346966,315.545176 L92.0846966,315.545176 C91.997943,316.06941 91.8537411,316.582501 91.6546966,317.075176 C91.5740389,317.045312 91.4853543,317.045312 91.4046966,317.075176 L79.5246966,317.075176 Z" id="Path" fill="url(#linearGradient-37)"></path>
                    </g>
                </g>
            </g>
        </g>
    </g>
</svg>