<svg height="60" viewBox="0 0 60 60" width="60" xmlns="http://www.w3.org/2000/svg"><g fill="#6791c7" fill-rule="evenodd"><circle cx="30" cy="30" fill-opacity=".2" r="30"/><path d="m25.2781372 17.6513937v-5.2165774c0-5.76354541-4.8509055-10.4348163-10.8336353-10.4348163-5.98364969 0-10.83352016 4.67127089-10.83352016 10.4348163v5.2165774c-1.99408992 0-3.61098174 1.5573857-3.61098174 3.4780875v17.3922098c0 1.9211449 1.61689182 3.478309 3.61098174 3.478309h21.66715546c1.9942049 0 3.6107517-1.5572749 3.6107517-3.478309v-17.3922098c.000115-1.9207018-1.6165468-3.4780875-3.6107517-3.4780875zm-18.05594373-5.2165774c0-3.84251129 3.23378363-6.95650727 7.22230843-6.95650727 3.9887549 0 7.2225385 3.11388521 7.2225385 6.95650727v5.2165774h-14.44484693zm18.05594373 26.0867639h-21.66715546v-17.3912128h21.66715546zm-12.6392411-7.4387873v2.2213238c0 .9596863.8090209 1.7391545 1.8056058 1.7391545.996355 0 1.8056059-.7794682 1.8056059-1.7391545v-2.2213238c1.0737496-.6026839 1.8056059-1.7120166 1.8056059-2.9958075 0-1.9215879-1.6171218-3.4791951-3.6112118-3.4791951-1.9940899 0-3.6109817 1.5576072-3.6109817 3.4791951 0 1.2837909.7311663 2.3931236 1.8053759 2.9958075z" fill-rule="nonzero" transform="translate(16 6)"/></g></svg>