<svg height="82.26" viewBox="0 0 546 220" width="200" xmlns="http://www.w3.org/2000/svg"><g fill="#fff" fill-rule="evenodd"><path d="m88.037 167.63v50.37h30.514v-9.782h-18.98v-10.804h16.936v-9.855h-16.936v-10.074h18.615v-9.855zm39.274 0v50.37h11.315l-.365-34.383 16.06 34.383h14.965v-50.37h-11.315l.365 34.383-16.06-34.383zm47.596 0v10.512h12.848v39.858h11.826v-39.858h12.921v-10.512zm43.216 0v50.37h30.514v-9.782h-18.98v-10.804h16.936v-9.855h-16.936v-10.074h18.615v-9.855zm39.274 0v50.37h11.826v-17.082h6.643c4.526 0 5.548 3.504 7.373 17.082h12.41c-1.533-14.673-3.431-20.878-9.782-22.046 6.716-1.752 9.49-7.008 9.49-13.943 0-6.205-2.263-9.563-5.548-11.68-3.066-1.971-7.154-2.701-11.826-2.701zm11.826 10.074h8.103c2.19 0 3.504.219 4.38 1.022.949.876 1.387 2.263 1.387 4.672 0 6.351-2.92 7.592-8.541 7.592h-5.329zm34.456-10.074v50.37h11.826v-15.403h7.154c5.402 0 9.49-.949 12.556-3.358 3.431-2.701 5.402-7.227 5.402-14.308 0-7.373-2.19-11.461-5.475-14.016-3.212-2.482-7.592-3.285-12.191-3.285zm11.826 10.147h6.57c2.263 0 3.65.219 4.672 1.095s1.606 2.555 1.606 6.278c0 2.993-.292 4.964-1.387 5.986-.876.876-2.263 1.314-4.599 1.314h-6.862zm32.339-10.147v50.37h11.826v-17.082h6.643c4.526 0 5.548 3.504 7.373 17.082h12.41c-1.533-14.673-3.431-20.878-9.782-22.046 6.716-1.752 9.49-7.008 9.49-13.943 0-6.205-2.263-9.563-5.548-11.68-3.066-1.971-7.154-2.701-11.826-2.701zm11.826 10.074h8.103c2.19 0 3.504.219 4.38 1.022.949.876 1.387 2.263 1.387 4.672 0 6.351-2.92 7.592-8.541 7.592h-5.329zm34.456-10.074v50.37h11.826v-50.37zm52.852 3.504c-3.869-3.212-10.366-4.38-15.184-4.38-5.037 0-9.49 1.241-13.14 3.942-3.358 2.482-5.694 5.913-5.694 11.242 0 17.958 23.141 12.994 23.141 21.681 0 4.38-2.847 5.256-6.278 5.256-3.796 0-8.687-1.095-11.972-3.723l-5.84 8.687c4.088 3.723 11.315 5.037 16.644 5.037 4.891 0 9.636-1.168 13.067-3.504 3.577-2.409 6.351-6.497 6.351-12.337 0-18.25-23.141-13.724-23.141-21.389 0-3.942 2.336-4.891 5.913-4.891 3.066 0 7.519.803 10.585 2.92zm8.103-3.504v50.37h30.514v-9.782h-18.98v-10.804h16.936v-9.855h-16.936v-10.074h18.615v-9.855z"/><g transform="translate(39 1)"><path d="m401.665409 106.346322c-7.618575 3.116097-13.630543 13.881743-22.774069 20.000561-.566978.37942-1.133956.56913-1.511942.56913-.755971 0-1.700935-.75884-1.700935-4.173621 0-11.762022 3.779856-17.453323 6.992732-25.8005643 11.150573-29.0256353 30.238841-53.8776498 47.248189-81.0061848 1.32295-2.0868104 2.078921-4.3633308 2.078921-6.82956124 0-2.08681038-.755971-3.79420069-1.700935-5.88101107-.755971-1.70739031-4.157841-3.22507059-7.937696-3.22507059-2.07892 0-3.968848.18971004-6.425754.18971004-8.882659 0-10.772587 13.08999236-12.851507 16.50477296-14.174457 24.0931744-30.427834 53.8776499-38.743515 74.9354637-1.823528 4.7206325-3.793273 9.4412653-5.290466 14.2861203-8.217575 2.388617-14.373816 13.986721-24.003411 20.430816-.566978.37942-1.133957.56913-1.511942.56913-.755971 0-1.700935-.75884-1.700935-4.173621 0-11.762022 3.779855-17.453323 6.992732-25.8005643 11.150573-29.0256353 30.238841-53.8776498 47.248189-81.0061848 1.322949-2.0868104 2.07892-4.3633308 2.07892-6.82956124 0-2.08681038-.755971-3.79420069-1.700934-5.88101107-.755971-1.70739031-4.157841-3.22507059-7.937696-3.22507059-2.078921 0-3.968848.18971004-6.425754.18971004-8.882659 0-10.772587 13.08999236-12.851507 16.50477296-14.174457 24.0931744-30.427834 53.8776499-38.743515 74.9354637-.661094 1.711398-1.341406 3.4227959-2.011452 5.1401129-.206911.1109372-.418205.2312405-.634447.3614781-9.63863 5.6913013-17.765319 15.7459333-29.48287 22.5754943-2.267913 1.32797-9.260645 6.260431-14.930427 6.260431-1.32295 0-2.456906-.37942-3.590863-.94855-1.700935-.75884-3.401869-4.363331-3.401869-5.501591 0-.94855.188992-1.13826 2.07892-2.276521 16.631362-10.054631 30.238841-24.4725941 41.956392-38.8905567 4.346833-5.311881 10.016616-15.7459329 10.016616-23.3343343 0-4.9324609-1.700935-10.6237619-7.55971-12.7105723-4.157841-1.5176803-8.88266-2.2765204-12.662515-2.2765204-10.016616 0-17.387334 4.5530408-21.545174 8.9163716-4.232912 4.5360697-8.32732 9.1937897-12.131265 14.015239-3.974519-3.4443841-9.580533-4.9091573-14.894699-4.9091573-6.236761 0-17.954312 7.7781114-24.00208 12.3311522-.944964.7588402-1.511942 1.1382602-1.889928 1.1382602-.188993 0-.377985-.18971-.377985-.5691301 0-.18971.377985-1.8971003.377985-4.9324609 0-2.6559404-.566978-6.0707211-3.023884-10.2443418-.566978-.9485502-3.968848-3.0353606-8.126688-3.0353606-5.102805 0-9.827624 2.4662305-9.827624 5.122171 0 1.8971003 1.700935 2.6559404 1.700935 4.3633307 0 .9485502-.755971 5.311881-1.889927 9.4855018-3.212877 12.1414422-7.181725 24.0931744-11.339566 36.0449069-2.267913 6.639851-9.827623 12.520862-9.827623 19.729843 0 2.276521 1.511942 5.311881 3.590862 7.588402 3.40187 3.7942 5.48079 5.122171 8.504674 5.122171 1.32295 0 2.834892-.37942 4.157841-1.517681 2.834891-2.46623 4.346833-4.932461 5.102804-8.347241 4.913812-22.385784 19.088269-37.5625871 34.774667-47.6172189 5.291798-3.4147806 12.473522-7.0192713 13.418486-7.0192713.968969 0 2.48441.4488099 4.011439.8862184-4.384937 7.1793137-7.937848 14.7505989-10.2482 22.8275359-.755971 2.6559409-1.133956 5.1221709-1.133956 7.7781119 0 4.36333.944963 8.916371 2.456905 13.279702 2.078921 6.070721 5.48079 11.382602 10.205609 13.848832 8.693667 4.553041 14.930428 7.019272 20.600211 7.019272 3.212876 0 5.669782-.56913 8.315681-2.086811 12.421903-7.054855 20.037816-12.407042 25.537143-17.160945.150789 4.820046 1.097333 7.490473 4.512705 11.090224 3.40187 3.604491 8.693667 6.829562 15.686399 8.347242 1.133956.18971 2.267913.37942 3.401869.37942 8.000633 0 15.700208-6.527546 21.637329-12.998462.687406 1.41207 1.686334 2.759976 3.120722 4.2718 3.40187 3.604491 8.693667 6.829562 15.686399 8.347242 1.133957.18971 2.267913.37942 3.40187.37942 9.371944 0 18.330783-8.956961 24.527513-16.287669 2.065272 4.287939 7.836627 8.527374 14.78298 11.924338 1.889927.94855 4.15784 1.51768 6.236761 1.51768 8.126688 0 13.985464-6.639851 18.52129-11.572312 11.717551-12.900282 18.143304-28.835925 23.057116-48.9451887.377985-1.5176803.944964-2.0868104 1.700935-2.0868104 1.889927 0 4.346833 0 6.992732-.37942 5.102804-.7588402 9.071652-2.4662305 13.796471-3.2250706 2.834891-.5691301 2.456906-1.5176803 5.102804-2.4662305 1.889928-.7588401 3.40187-1.5176802 3.40187-3.4147806 0-3.2250706-5.858776-6.6398512-14.741435-6.6398512-6.992732 0-11.150573.5691301-13.985464.5691301-4.346833 0-5.48079-1.3279702-8.315681-8.7266616 0 0 2.834891 7.3986914 0 0-.566978-1.5176803-1.133957-2.2765204-2.834892-3.7942007-3.968847-3.4147806-8.882659-4.5530408-12.851507-4.5530408-9.449638 0-17.576326 9.6752118-23.246109 17.8327432-1.322949 1.8971004-3.212877 3.4147807-4.535826 5.501591-7.785222 11.7221534-15.239144 24.9408151-16.158439 39.1889698zm-241.62768-64.6101144c4.724819 0 7.370718-.3794201 7.937696-.3794201s.944964.1897101.944964.7588402c0 .3794201-.188993.9485502-1.511942 3.7942007-11.528558 24.8520145-19.466254 50.0834491-26.458986 77.9708246-.188993.75884-.755971 3.60449-.755971 6.450141 0 2.65594.755971 5.501591 3.401869 7.019271 5.102805 3.035361 9.260645 4.363331 12.095537 4.363331 4.15784 0 6.236761-2.655941 6.236761-7.019271 0-3.794201.188993-7.778112.755971-10.813472 5.291797-27.8873755 13.229493-49.7040295 25.514022-72.4692336 5.858775-10.813472 6.614746-11.3826021 6.614746-12.3311523 0-.37942-.188992-.9485501-.566978-1.5176802 7.55971-1.7073904 16.631362-2.8456506 24.947044-2.8456506.944964 0 4.724819 1.3279703 5.291797 1.8971004 1.322949 1.3279702 2.645898 2.6559405 4.913812 2.6559405 1.889927 0 5.102804-1.3279703 6.23676-2.0868104 2.645899-1.8971004 3.968848-3.9839107 3.968848-7.3986914 0-3.2250706-11.906543-11.192892-20.222225-11.192892-10.205608 0-19.466253 1.3279702-28.15992 3.0353605-3.779855.7588402-17.387334 2.8456506-27.214957 2.8456506-9.449638 0-8.882659-1.3279703-12.851507-1.3279703-2.267913 0-3.40187 1.1382602-4.346834 2.0868104-.944963.9485502-1.511942 4.7427509-1.511942 8.1575315 0 1.7073903 0 3.0353605.944964 4.1736208 2.834891 3.4147806 8.315681 4.1736207 13.796471 4.1736207zm140.043632 15.3665128c0 1.7073903-.566978 2.8456505-2.834891 6.4501412-2.267913 3.6044906-1.322949 3.6044906-4.157841 7.3986913-5.48079 7.3986914-12.284529 14.7973827-21.167188 22.9549142-2.456906 2.2765204-2.834892 2.2765204-3.212877 2.2765204-.188993 0-.566979-.18971-.566979-.5691301 0-.5691301.188993-1.3279702 2.078921-5.3118809 5.858775-12.3311523 13.0405-20.4886838 20.978196-28.4565052 4.346833-4.3633308 6.992732-5.8810111 7.937695-5.8810111.566979 0 .944964.18971.944964 1.1382602zm145.335429 4.9324609c.188993 0 .377986.18971.566979.5691301.188992.5691301.566978 1.1382602 1.511942 1.8971004.755971.5691301.755971 3.2250706.755971 5.3118809 0 18.4018734-10.394602 33.5786763-20.600211 48.9451893-2.267913 3.41478-3.590862 3.98391-4.724819 3.98391-.944963 0-2.456905-2.46623-3.023884-3.98391-.755971-2.086811-.944963-4.553041-.944963-5.501591 0-14.797383 13.985463-36.8037471 23.246108-48.9451893 1.511943-2.0868104 2.645899-2.2765204 3.212877-2.2765204z"/><path d="m14.5852153 0c-8.05519199 0-14.5852153 6.51958158-14.5852153 14.5733782v90.9267728c0 8.048655 6.52613619 14.573378 14.5852153 14.573378h90.6312397c8.055192 0 14.585215-6.519581 14.585215-14.573378v-90.9267728c0-8.04865451-6.526136-14.5733782-14.585215-14.5733782zm60.4196439 15.6617647c-4.0266373 0-7.2908717 3.2657118-7.2908717 7.2864694v37.6329436c0 4.0242059 3.267792 7.2864694 7.2908717 7.2864694h21.8796344c4.0266374 0 7.2908714-3.2657118 7.2908714-7.2864694v-37.6329436c0-4.0242059-3.267792-7.2864694-7.2908714-7.2864694zm-52.0876826 0c-4.0266373 0-7.2908718 3.2589271-7.2908718 7.2838358v67.9176225c0 4.0227514 3.267792 7.2838358 7.2908718 7.2838358h21.8796343c4.0266373 0 7.2908718-3.2589271 7.2908718-7.2838358v-67.9176225c0-4.0227514-3.267792-7.2838358-7.2908718-7.2838358z" transform="translate(.382454 21.327638)"/></g></g></svg>