<svg height="60" viewBox="0 0 61 60" width="61" xmlns="http://www.w3.org/2000/svg"><g fill="#6791c7" fill-rule="evenodd"><circle cx="31" cy="30" fill-opacity=".2" r="30"/><path d="m37.0772776 16.6873015c.0202083-.2317013.0336009-.4647008.0400692-.6986969.2705113-.1893702.5256477-.4168561.7605135-.6803404.8391942-.9414506 1.3313976-2.2469479 1.3313976-3.6606922 0-1.4137444-.4922034-2.71924164-1.3313976-3.66069228-.7828015-.87818637-1.790785-1.35647737-2.8426799-1.35647737-.6105433 0-1.2062934.16113155-1.7518047.46806526-1.1434883-.98587124-2.4714377-1.70288763-3.9000402-2.10405138 1.5145253-1.50656111 3.5116119-2.37774956 5.6518449-2.37774956 2.3144276 0 4.461459 1.01877244 6.0118758 2.7581085 1.4940239 1.67607179 2.3362793 3.91003011 2.3362793 6.27279683 0 2.3191132-.8114206 4.5141337-2.2541392 6.1793291.6662795.2985436 1.2962791.6462361 1.889928 1.041471 1.9822115 1.3197012 3.4744828 3.1080348 4.5346851 5.2256264.8053435 1.6085503 1.3165413 3.3102876 1.5999416 5.0084596.0991269.5939816.1631455 1.1480893.1990803 1.6505382.0129279.1807613.0213746.343862.0261786.4878122.0017828.0534211.0042055.1929649.0042055.1929649.0125618 1.2059572-.9619988 2.182893-2.1596089 2.182893l-4.4222143.0000003c-.0268477-.194586-.0568024-.3911694-.0898808-.5893794-.2124509-1.2730337-.5332275-2.5068302-.9661363-3.6875927 0 0 2.0704784 0 3.1057177.0000002-.0548781-.3118625-.5225379-2.1370541-1.1199894-3.330372-.7434266-1.4848808-1.7562183-2.6986073-3.0807101-3.5804171-1.3902993-.9256225-3.1228461-1.4872325-5.2670578-1.6151016.6063215-1.3027752.9878649-2.72464 1.1209071-4.1971374.1930299.0206206.3840419.0441726.573035.0706348zm-8.8175789 8.1201355c-.5707067.1267401-1.1596777.192563-1.7596987.192563-.7545388 0-1.4916035-.1040896-2.1968481-.3025132-1.8796775.2002122-3.4262269.7675615-4.6912641 1.6478572-1.3331684.9277058-2.3525932 2.204604-3.1008873 3.7667696-.5296311 1.1056764-.8977606 2.298625-1.127665 3.5045531.1880544-.000836 20.7608155-.000836 21-.000971-.2299201-1.2055952-.597997-2.3981989-1.1274883-3.5035777-.7482987-1.5621667-1.7677279-2.8390662-3.1008999-3.7667729-1.0817948-.7527822-2.3694517-1.2767142-3.8952486-1.5379081zm4.6975294-2.9473198c.724232.3111177 1.406403.678867 2.046425 1.1012618 1.9870303 1.3113787 3.4829293 3.0884347 4.5457089 5.1926721.8073011 1.5984064 1.3197416 3.2894121 1.6038309 4.976875.0993679.5902358.1635421 1.1408492.1995642 1.6401294.0129595.1796216.0214266.3416936.0262423.484736.0017873.0530843.0029728.1008253.0036603.1430364.0004821.0296037.0006281.0478344.0006719.070878l-2.1428826-.0000243 2.1427661-.0221421c.0125925 1.1983524-.9643374 2.1691272-2.1648588 2.1691272l-25.6700432-.0000003c-1.1987242 0-2.1747819-.9680645-2.1649033-2.1643852l2.1428108.0174002-2.1428827.000015c-.0000003-.048158.001169-.1199596.0043319-.2139129.0048156-.1430448.0132827-.305119.0262419-.4847421.0360216-.4992821.1001951-1.0498963.1995621-1.6401319.2840856-1.6874565.7965207-3.3784547 1.6038143-4.9768544 1.0627744-2.1042385 2.5586695-3.8812956 4.5456974-5.1926752.6911807-.4561588 1.4315182-.8485867 2.2209016-1.1747825-1.2738892-1.6078383-1.9838871-3.6440792-1.9838871-5.7865974 0-2.3546809.8575751-4.5809942 2.378774-6.25133021 1.5786173-1.73338376 3.7647012-2.74866979 6.121226-2.74866979s4.5426087 1.01528603 6.121226 2.74866979c1.5211988 1.67033601 2.378774 3.89664931 2.378774 6.25133021 0 2.1753086-.7318968 4.241062-2.0427719 5.8601172zm-8.0580526-1.1903484c.4826639-.0352992.9773823-.0531021 1.4841418-.0531021.57589 0 1.1362298.0229915 1.6809993.0685244.548107-.2284877 1.0576196-.5779226 1.5003268-1.0370264.9047207-.9382288 1.4353566-2.2392584 1.4353566-3.6481647s-.5306359-2.7099359-1.4353566-3.6481647c-.8439246-.8751811-1.930614-1.3518353-3.0646434-1.3518353s-2.2207188.4766542-3.0646434 1.3518353c-.9047207.9382288-1.4353566 2.2392584-1.4353566 3.6481647s.5306359 2.7099359 1.4353566 3.6481647c.4328625.4488945.9295923.7929434 1.4638189 1.0216041z" fill-rule="nonzero" transform="translate(0 8)"/></g></svg>