<svg id="Layer_1" data-name="Layer 1" xmlns="http://www.w3.org/2000/svg" viewBox="0 0 163.83 60"><defs><style>.cls-1{fill:#fff;}</style></defs><title>fender</title><path class="cls-1" d="M126.76,31.62c.83,0,2.88.24,7.31.4,4.63.17,5.55-3.41,5.36-5.63-4.72,1-5.84,1.28-9.92,1.28-4.29,0-9.56,1.19-9.66,5s4.8,4.58,7.34,5.3c.71.16,1,.74.51,1.1-1.09.87-3.54,2-3.83,4.06-.41,2.9,2.23,5.16,5.56,5.1,4.45-.1,9.36-2,14.09-7.65,1.34-1.6,2.84-4.31,3.76-5.5a1.34,1.34,0,0,1,1.14-.6c.84.19,2,.82,1.88,1.74-.25,1.4-4.06,5.77-1.52,8.4a6.94,6.94,0,0,0,8.62.51c2.93-2.13,1.9-4.08.74-4.23-.83-.1-3.15,2.81-5,.74-1.56-1.72,2.14-5.29,2.88-6.57,1.06-1.83-3.08-3.22-4.83-5.49C150,28,153,23.44,149.3,22.22c-1.19-.4-4.89,1.83-3.57,8.19-1.67,6.3-14.44,17.33-16.14,12.88-.41-1.09.69-2.89,3.61-3.5,4.83-1,4.45-4,2.15-4.29A65.25,65.25,0,0,1,126.4,34c-1.7-.18-1.65-2.44.36-2.41" transform="translate(0 0)"/><path class="cls-1" d="M56.92,38.56c-1.16,1.18-2.5,2.8-2.68,4.12-.39,2.85,1.07,5.36,4.69,5.3,3.89-.06,5.17-2.88,11.67-6.83,1.82-1.11,4.07-3,5-3.13.35,0,.88.11.85.8-.56,2.59-1.16,4.33-.49,6.54a2.66,2.66,0,0,0,4,1.41c2.48-1.88,2.51-2.95,5.72-7.17.54-.7,2.49-3.91,3.39-3.48.75.36.54,1.4.4,2.21-.68,4-2.39,10.21,5.43,9.24,1.86-.23,3.35-1.48,1.94-2.81-.85-.8-1.8-.22-2.88-.47-2.51-.58,3.7-12,.74-14.14-4.17-3-8,2.3-10.92,6.17-1.15,1.52-2,.86-2.73-1.29-.82-2.38-5.78-.64-8.62.83C67.91,38.19,59.52,46,58.74,42.11c-.14-.68,1-2.18,3-2.92,2.39-.87,5.09-1.64,5.09-3.08,0-1.11-.67-1.89-1.39-1.85-3.33.19-7.21,1.07-11.66-.16-1,0-1.44-2.55,1.56-2.21.79.09,2.56.21,9.28.34,4.73.1,4.83-3.45,4.21-5.33-3.94,1.17-5.94,1-10.11,1-4.36,0-10.25.6-10,4.81.21,3.54,5.19,4.52,7.76,4.8.74-.06,1,.64.44,1" transform="translate(0 0)"/><path class="cls-1" d="M42.57,29.47A2.68,2.68,0,0,1,45,27.39a52.26,52.26,0,0,1,5.55-1.57c3.7-.91,4.76-.7,5.24-3.26a3.15,3.15,0,0,0-.43-2.64s-8.07,2.53-9.69,3c-1.41.61-1.14-.87-1.14-.87s-.2.94.67-2.88c2.64-11.63,1.09-14.73-1-16.49C38.86-1.73,19.45,7.39,5.57,18.35c-4.63,4-7.31,5-4.29,8.18,2.68,2.68,4.42.67,4.42.67,2.55-2,8-7.64,11.66-10.32,5.15-3.82,12.27-9.32,18.57-10.79,5-1.27,6.5.2,5.83,5.3C41.38,15.74,38,25.59,38,25.59s-5.16,2.3-6.7,2.88c-1.21.45-2.48.14-2.62,2.88-.06,3,1.72,1.84,2.92,1.39.92-.35,3.1-1.38,3.92-1.72.61-.47,1.28-.07.94.8a82.21,82.21,0,0,1-3.75,9.65c-2.61,6.23-7.31,14.75-7.91,16.89.08,1.41,1.61,1.61,3.64,1.64a3.73,3.73,0,0,0,2.73-1.43s2.43-5.21,6.16-14.41c2.71-6.68,4.48-12.19,5.23-14.68" transform="translate(0 0)"/><path class="cls-1" d="M109.29,31.92c-2.91-.84-5.45,2.6-6.2,5.67-.68,2.8-.32,6.56,2.21,7,2,.39,4.39-1.38,5-4.67.16-.88.53-3.68.65-4.41.69-4.45,1.21-6.4,1.21-6.4,2.43-9.3,8.25-27.4,9.83-28.45s6.17-1.28,4.75,2.5c-2.2,5.87-4.76,11.07-7.08,18.32-2.72,8.49-8,22.12-3.28,22.72,2.2.28,3.08-1.75,4.4-.71,2,1.58-.19,4.43-4.07,4.81-5.33.19-5.22-2.93-7.59-1.59C101.53,51,96.85,45,98.34,37.45c1.28-6.47,6.27-11,11.84-8.24,0,0,1.42.71,1.3,1.91-.09.93-.79,1.12-2.19.8" transform="translate(0 0)"/><path class="cls-1" d="M162.69,28.78a3.79,3.79,0,0,1-2.78,1.16,3.75,3.75,0,0,1-2.78-1.16,3.93,3.93,0,0,1,5.56-5.55,3.94,3.94,0,0,1,0,5.55m-5.18-5.17a3.25,3.25,0,0,0-1,2.39,3.3,3.3,0,0,0,1,2.41A3.4,3.4,0,0,0,163.3,26a3.39,3.39,0,0,0-5.79-2.39m2.32.22A3.33,3.33,0,0,1,161,24a1.06,1.06,0,0,1,.67,1.09.92.92,0,0,1-.42.85,1.64,1.64,0,0,1-.63.21,1,1,0,0,1,.74.42,1.18,1.18,0,0,1,.23.66v.32c0,.09,0,.2,0,.32a.55.55,0,0,0,0,.22l0,0H161s0,0,0,0a.16.16,0,0,1,0,0l0-.14v-.34a1,1,0,0,0-.41-1,1.88,1.88,0,0,0-.86-.14h-.61v1.69h-.74V23.83h1.51Zm.82.69a2,2,0,0,0-.93-.16h-.66V25.9h.7a2,2,0,0,0,.73-.1.64.64,0,0,0,.45-.65.65.65,0,0,0-.29-.63" transform="translate(0 0)"/></svg>