<?xml version="1.0" encoding="UTF-8"?>
<svg width="128px" height="44px" viewBox="0 0 128 44" version="1.1" xmlns="http://www.w3.org/2000/svg" xmlns:xlink="http://www.w3.org/1999/xlink">
    <!-- Generator: Sketch 50.2 (55047) - http://www.bohemiancoding.com/sketch -->
    <title>google</title>
    <desc>Created with Sketch.</desc>
    <defs></defs>
    <g id="google" stroke="none" stroke-width="1" fill="none" fill-rule="evenodd">
        <g id="Google_2015_logo" fill="#FFFFFF" fill-rule="nonzero">
            <path d="M55,22.5 C55,28.5453111 50.285618,33 44.5,33 C38.714382,33 34,28.5453111 34,22.5 C34,16.412083 38.714382,12 44.5,12 C50.285618,12 55,16.412083 55,22.5 Z M50.4035955,22.5 C50.4035955,18.7222723 47.671236,16.1375113 44.5,16.1375113 C41.328764,16.1375113 38.5964045,18.7222723 38.5964045,22.5 C38.5964045,26.2398557 41.328764,28.8624887 44.5,28.8624887 C47.671236,28.8624887 50.4035955,26.2351217 50.4035955,22.5 Z" id="Shape"></path>
            <path d="M78,22.5 C78,28.5453111 73.285618,33 67.5,33 C61.714382,33 57,28.5453111 57,22.5 C57,16.416817 61.714382,12 67.5,12 C73.285618,12 78,16.412083 78,22.5 Z M73.4035955,22.5 C73.4035955,18.7222723 70.671236,16.1375113 67.5,16.1375113 C64.328764,16.1375113 61.5964045,18.7222723 61.5964045,22.5 C61.5964045,26.2398557 64.328764,28.8624887 67.5,28.8624887 C70.671236,28.8624887 73.4035955,26.2351217 73.4035955,22.5 Z" id="Shape"></path>
            <path d="M99,12.6467383 L99,31.8654834 C99,39.771135 94.4562559,43 89.084666,43 C84.028222,43 80.9849483,39.5298147 79.8372531,36.6918885 L83.8259643,34.9881675 C84.5362183,36.7304998 86.2765757,38.7865483 89.0799624,38.7865483 C92.5183443,38.7865483 94.6491063,36.6098396 94.6491063,32.5122217 L94.6491063,30.9725985 L94.4891816,30.9725985 C93.4637817,32.2709014 91.4882408,33.4051066 88.9952963,33.4051066 C83.7789276,33.4051066 79,28.7427993 79,22.7435778 C79,16.7009186 83.7789276,12 88.9952963,12 C91.4835372,12 93.4590781,13.1342052 94.4891816,14.3938969 L94.6491063,14.3938969 L94.6491063,12.6515647 L99,12.6515647 L99,12.6467383 Z M94.9736595,22.7435778 C94.9736595,18.9741554 92.523048,16.2182781 89.4045155,16.2182781 C86.24365,16.2182781 83.5954845,18.9741554 83.5954845,22.7435778 C83.5954845,26.4743889 86.24365,29.191655 89.4045155,29.191655 C92.523048,29.191655 94.9736595,26.4743889 94.9736595,22.7435778 Z" id="Shape"></path>
            <polygon id="Shape" points="107 1 107 32 102 32 102 1"></polygon>
            <path d="M124.098753,25.96055 L127.794671,28.3464833 C126.601809,30.0554554 123.727206,33 118.760205,33 C112.600342,33 108,28.3890893 108,22.5 C108,16.2558611 112.639452,12 118.227328,12 C123.854314,12 126.606698,16.336339 127.506233,18.6796664 L128,19.872633 L113.504767,25.6859784 C114.61452,27.792606 116.340259,28.8672227 118.760205,28.8672227 C121.18504,28.8672227 122.866781,27.712128 124.098753,25.96055 Z M112.722562,22.1828224 L122.412124,18.2867448 C121.879247,16.9754283 120.275727,16.0617674 118.388658,16.0617674 C115.968712,16.0617674 112.600342,18.130523 112.722562,22.1828224 Z" id="Shape"></path>
            <path d="M16.65564,19.6141115 L16.65564,15.1058362 L31.7758903,15.1058362 C31.9237073,15.8915505 32,16.820993 32,17.8270906 C32,21.2094948 31.0797199,25.3919861 28.1138429,28.3719512 C25.229027,31.3902439 21.5431381,33 16.6604083,33 C7.61019222,33 0,25.5932056 0,16.5 C0,7.40679443 7.61019222,0 16.6604083,0 C21.6671137,0 25.2337953,1.9738676 27.9135747,4.54660279 L24.7474296,7.72778746 C22.8258084,5.91681185 20.2223216,4.50827526 16.65564,4.50827526 C10.0467889,4.50827526 4.87796156,9.8597561 4.87796156,16.5 C4.87796156,23.1402439 10.0467889,28.4917247 16.65564,28.4917247 C20.9423335,28.4917247 23.3836984,26.7621951 24.9476978,25.1907666 C26.2160632,23.9163763 27.0505141,22.0958188 27.3795262,19.6093206 L16.65564,19.6141115 Z" id="Shape"></path>
        </g>
    </g>
</svg>