<svg enable-background="new 0 0 109.4 30.9" viewBox="0 0 109.4 30.9" xmlns="http://www.w3.org/2000/svg"><path d="m0 6.8 14-6.6c.8-.4 1.6-.3 2.4.1l13.2 6.2c.3.2.7.3.7.6 0 .5-.4.5-.8.7l-12.6 5.9c-1.2.5-2.2.5-3.4 0l-13.5-6.2zm0 16.8 2.5-1.2c1-.5 2-.4 3 .1l8.1 3.8c1 .5 2 .5 3 0l8.2-3.9c1-.5 2-.5 3 0l1.8.9c.3.2.6.3.6.6s-.3.5-.6.6l-6.1 2.9-6.9 3.2c-.9.4-1.8.5-2.7.1l-13-6.1c-.3-.1-.5-.3-.8-.5-.1-.2-.1-.3-.1-.5zm0-8.4 1.9-.9c1.5-.9 2.8-.7 4.3.1l7.6 3.6c1 .4 1.8.4 2.7 0l8.1-3.8c1.1-.5 2.2-.6 3.3 0l1.9.9c.5.3.5.6 0 1-.2.1-.3.2-.5.2l-13 6c-.9.4-1.7.4-2.6 0l-13-6c-.3-.2-.6-.4-.9-.5zm42.8-9.1v6.4c.2 0 .3-.1.3-.2 2.2-2.3 6.3-2 8.2.7 1.9 2.6 1.8 7.1-.1 9.7s-5.8 2.8-8.1.5l-.4-.3v1.2c0 .3-.1.4-.4.4h-2.7c-.3 0-.5-.1-.5-.4v-17.3-.7zm0 11.7v1.9c0 .4.1.7.4.9.2.2.4.3.7.5 2.2 1.2 4.5.2 5-2.1.1-.7.2-1.4 0-2.1-.3-1.3-.9-2.3-2.2-2.7-1.4-.4-2.7 0-3.7 1-.2.2-.3.4-.3.7zm66.6-3.3c-.7.1-1.3-.1-2 .1l-.8.3c-1 .4-1.5 1-1.4 2.2v6.8c0 .7 0 .7-.6.7h-2.3c-.4 0-.5-.1-.5-.5v-11.3c0-1.2 0-1.2 1.1-1.2h1.8c.4 0 .6.1.5.5v1.1c1.2-1.1 2.4-2 4.1-1.9zm-14.8 4.6h-4.2c-.6 0-.6.1-.4.6.7 1.7 2 2.4 3.9 2.2 1-.1 2-.4 2.8-1.1.2-.1.3-.1.4.1l1.2 1.7c.2.3 0 .4-.1.5-.8.6-1.7 1-2.7 1.2-2 .5-4 .5-5.9-.5-2.6-1.4-3.5-3.7-3.4-6.4.1-3.1 2.4-5.7 5.4-6.2 3.9-.7 7.2 1.7 7.7 5.6.1.6.1 1.2.1 1.7 0 .4-.1.5-.5.5-1.4.1-2.8.1-4.3.1zm-1.6-2.4h2.6c.6 0 .6 0 .5-.6-.4-1.4-1.6-2.2-3.2-2.1-1.4.1-2.6 1-2.8 2.4-.1.3.1.4.3.4zm-29.6 6.2c-.7.6-1.4 1.1-2.1 1.4-1.3.5-2.8.6-4.1.2-1.4-.4-2.3-1.7-2.4-3.2l-.1-6.3v-3c0-.4.1-.6.6-.6h2.3c.7 0 .7 0 .7.6v7c0 1.9.7 2.5 2.5 2.5 1 0 1.8-.5 2.5-1.2.2-.2.2-.5.2-.7v-7.6c0-.7 0-.7.7-.7h2.3c.4 0 .5.1.5.5v12c0 .4-.1.5-.5.5-.8 0-1.7 0-2.5 0-.4 0-.5-.1-.5-.5-.1-.2-.1-.5-.1-.9zm19.7-3.4v4.4c0 .4-.1.6-.6.6-.8 0-1.6 0-2.4 0-.4 0-.6-.1-.6-.6v-8.7c0-.7 0-.7-.7-.7h-1c-.3 0-.4-.1-.4-.4v-2.3c0-.3.1-.4.4-.4h1.2c.3 0 .4-.1.4-.4 0-.4 0-.9.1-1.3.4-2.3 2.5-3.7 4.9-3.4.9.1 1.7.3 2.4.9.3.2.4.4.1.8s-.6.8-.8 1.2c-.2.3-.3.4-.7.2-.2-.1-.4-.2-.6-.2-1.2-.3-2.4.9-2 2.1.1.2.3.2.4.2h1.7c.3 0 .5.1.5.4v2.2c0 .3-.1.4-.4.4h-1.6c-.7 0-.7 0-.7.6zm-12.2-.1v-4.4c0-.4-.1-.5-.5-.5s-.8 0-1.2 0c-.3 0-.4-.1-.4-.4v-2.3c0-.3.1-.4.4-.4h1.3c.4 0 .5-.1.5-.5 0-.9.1-1.8.6-2.6.9-1.5 2.6-2.3 4.4-2.1.8.1 1.7.3 2.3.8.5.4.5.4.2.9l-.8 1.2c-.1.3-.3.3-.6.1s-.7-.2-1-.2c-1.1 0-1.9 1.1-1.6 2.2.1.2.3.2.4.2h1.7c.3 0 .5.1.4.4v2.2c0 .3-.1.5-.4.4h-1.5c-.5 0-.6.1-.6.6v8.5c0 .8 0 .8-.8.8-.7 0-1.4 0-2.1 0-.4 0-.6-.1-.6-.6z"/></svg>