<svg enable-background="new 0 0 8.8 8.7" viewBox="0 0 8.8 8.7" xmlns="http://www.w3.org/2000/svg"><path clip-rule="evenodd" d="m7.6 0c.3.1.5.2.7.4s.3.5.4.7c.1.3 0 .5 0 .8-.1.6-.3 1.1-.6 1.6-.3.4-.6.8-.9 1.1-.1.1-.2.2-.3.3v.1c.1.2.1.5.1.8s-.1.7-.2 1c-.1.4-.3.8-.6 1.2-.1.1-.2.2-.3.3 0 .1-.1.2-.1.2-.1.1-.2.1-.3.2s-.3.1-.4 0c-.1 0-.2-.1-.3-.3-.1 0-.1-.2-.1-.3l-.2-1.6-.4-.3-1.3.2c-.3.1-.6-.2-.5-.5l.3-1.3-.4-.3-1.6-.3c-.1 0-.2 0-.3-.1s-.2-.2-.3-.3c0-.1 0-.3 0-.4s.1-.2.2-.3c0 0 .1-.1.1-.1.1-.1.2-.2.3-.3.5-.3.9-.5 1.3-.6s.7-.2 1.1-.2c.3 0 .5 0 .8.1h.1s.1-.1.2-.2c.4-.3.8-.6 1.1-.9.5-.3 1-.6 1.5-.7.4 0 .6 0 .9 0zm-.3 3c.3-.4.5-.8.5-1.2.1-.3 0-.6-.2-.8s-.3-.2-.7-.1-.7.3-1.1.5-.7.5-1 .8c-.2.1-.3.2-.4.3 0 0-.1.1-.1.1-.1.1-.3.2-.5.1 0 0-.2 0-.2-.1-.2 0-.4 0-.6 0-.3 0-.5 0-.8.1s-1 .5-1 .5c.1 0 1.2.2 1.2.2.1 0 .2.1.2.1l.6.6c.1.1.1.3.1.4v1c.2 0 .9-.2.9-.2.1 0 .3 0 .4.1l.6.6c.1.1.1.2.1.2l.2 1.2s.4-.6.5-1c.1-.1.1-.4.1-.6s0-.4 0-.6c0-.1 0-.2 0-.2 0-.2 0-.3.1-.4 0 0 .1-.1.1-.1l.3-.3c.2-.5.5-.8.7-1.2zm-1.2-1.3c-.3.3-.3.7 0 .9.3.3.7.3.9 0 .3-.3.3-.7 0-.9-.2-.3-.6-.3-.9 0z" fill="#969da2" fill-rule="evenodd"/></svg>