<svg version="1.1" id="Layer_1" xmlns="http://www.w3.org/2000/svg" x="0" y="0" viewBox="0 0 137 40" width="137" height="40" xml:space="preserve"><style>.st4{fill:#fff}</style><path id="Path" d="M5.4.3h126.2c2.6 0 4.7 1.7 4.7 3.8v31.7c0 2.1-2.1 3.8-4.7 3.8H5.4c-2.6 0-4.7-1.7-4.7-3.8V4.1C.7 2 2.8.3 5.4.3z"/><path id="Path_1_" fill="#f25022" d="M9.3 8.8H20v10.7H9.3z"/><path id="Path_2_" fill="#7fba00" d="M21.1 8.8h10.7v10.7H21.1z"/><path id="Path_3_" fill="#00a4ef" d="M9.3 20.6H20v10.8H9.3z"/><path id="Path_4_" fill="#ffb900" d="M21.1 20.6h10.7v10.8H21.1z"/><path id="Shape" class="st4" d="M52.3 20.9c0-.3.1-.6.3-.8.2-.2.5-.3.8-.3.3 0 .6.1.8.3.2.2.3.5.3.8 0 .3-.1.6-.3.8-.2.2-.5.3-.8.3s-.6-.1-.8-.3c-.1-.2-.3-.5-.3-.8m2.1 10.5h-1.9v-8.1h1.9v8.1z"/><path id="Path_5_" class="st4" d="M60.2 30c.3 0 .6-.1.9-.2.3-.1.6-.3.9-.5v1.8c-.3.2-.6.3-1 .4-.4.1-.8.1-1.3.1-1.2 0-2.1-.4-2.9-1.1-.8-.8-1.1-1.7-1.1-2.9 0-1.3.4-2.4 1.1-3.2.8-.8 1.8-1.3 3.2-1.3.4 0 .7.1 1.1.1.4.1.6.2.9.3v1.8c-.3-.2-.6-.4-.9-.5-.3-.1-.6-.2-.9-.2-.8 0-1.4.2-1.8.7-.5.5-.7 1.2-.7 2s.2 1.5.7 1.9 1.1.8 1.8.8"/><path id="Path_6_" class="st4" d="M67.5 23.1h.4c.1 0 .2.1.3.1v1.9c-.1-.1-.2-.1-.4-.2s-.4-.1-.7-.1c-.5 0-.9.2-1.2.6-.3.4-.5 1-.5 1.8v4.1h-1.9v-8.1h1.9v1.3c.2-.4.4-.8.8-1 .4-.3.8-.4 1.3-.4"/><path id="Shape_1_" class="st4" d="M68.3 27.4c0-1.3.4-2.4 1.1-3.2.8-.8 1.8-1.2 3.1-1.2s2.3.4 3 1.1c.7.8 1.1 1.8 1.1 3.1s-.4 2.4-1.1 3.2c-.8.8-1.8 1.2-3.1 1.2-1.2 0-2.3-.4-3-1.1-.7-.8-1.1-1.8-1.1-3.1m2 0c0 .8.2 1.5.6 1.9.4.4.9.7 1.6.7.7 0 1.2-.2 1.6-.7s.5-1.1.5-2c0-.9-.2-1.5-.6-2-.4-.4-.9-.7-1.6-.7-.7 0-1.2.2-1.6.7-.3.5-.5 1.2-.5 2.1"/><path id="Path_7_" class="st4" d="M79.5 25.4c0 .3.1.5.3.6.2.2.6.3 1.1.6.8.3 1.3.7 1.6 1 .3.4.5.8.5 1.4 0 .8-.3 1.4-.9 1.8-.6.5-1.4.7-2.4.7-.3 0-.7 0-1.1-.1-.4-.1-.8-.2-1-.3v-1.9c.3.2.7.4 1.1.6.4.1.8.2 1.1.2.4 0 .8-.1 1-.2.2-.1.3-.3.3-.6s-.1-.5-.3-.7-.6-.4-1.2-.6c-.7-.3-1.2-.6-1.5-1s-.4-.8-.4-1.4c0-.7.3-1.3.9-1.8.6-.5 1.3-.7 2.2-.7.3 0 .6 0 1 .1s.6.1.9.2v1.8c-.3-.2-.5-.3-.9-.4-.3-.1-.7-.2-1-.2-.4 0-.7.1-.8.2-.4.2-.5.4-.5.7"/><path id="Shape_2_" class="st4" d="M83.8 27.4c0-1.3.4-2.4 1.1-3.2.8-.8 1.8-1.2 3.1-1.2s2.3.4 3 1.1c.7.8 1.1 1.8 1.1 3.1s-.4 2.4-1.1 3.2-1.8 1.2-3.1 1.2c-1.2 0-2.3-.4-3-1.1-.8-.8-1.1-1.8-1.1-3.1m2 0c0 .8.2 1.5.6 1.9.4.4.9.7 1.6.7.7 0 1.2-.2 1.6-.7s.5-1.1.5-2c0-.9-.2-1.5-.6-2-.4-.4-.9-.7-1.6-.7-.7 0-1.2.2-1.6.7-.4.5-.5 1.2-.5 2.1"/><path id="Path_8_" class="st4" d="M98.4 24.8V29c0 .9.2 1.5.6 1.9.4.4 1 .6 1.8.6.3 0 .5 0 .8-.1.3-.1.5-.1.6-.2v-1.6c-.1.1-.3.1-.4.2-.2.1-.3.1-.4.1-.4 0-.7-.1-.9-.3-.2-.2-.3-.6-.3-1.1v-3.8h1.9v-1.6h-1.9v-2.4l-1.9.6v1.8h-2.8v-1c0-.5.1-.9.3-1.1.2-.3.5-.4.9-.4.2 0 .4 0 .6.1.2.1.3.1.3.1v-1.7c-.1-.1-.3-.1-.5-.1h-.6c-.9 0-1.6.3-2.1.8-.5.6-.8 1.2-.8 2.1V23h-1.3v1.6h1.3v6.6h1.9v-6.6h2.9z"/><path id="Path_9_" class="st4" d="M50.7 20v11.4h-1.9v-8.9h-.1l-3.5 8.9h-1.3l-3.6-8.9v8.9h-1.8V20h2.8l3.3 8.4L48 20z"/><path id="Path_10_" class="st4" d="M43.6 15.1c-.7.4-1.4.6-2.3.6-.6 0-1.2-.1-1.7-.4-.5-.3-.9-.7-1.2-1.2-.3-.5-.4-1.1-.4-1.8s.2-1.3.4-1.9.7-1 1.3-1.3c.6-.3 1.2-.5 1.8-.5.3 0 .7 0 1 .1s.6.2.8.3v1c-.5-.3-1.2-.5-1.9-.5-.5 0-.9.1-1.3.3-.4.2-.7.6-.9.9-.2.4-.3.9-.3 1.4 0 .8.2 1.4.6 1.9.4.5 1 .7 1.7.7.5 0 .9-.1 1.2-.3v-1.8H41V12h2.4v3.1z"/><path id="Shape_3_" class="st4" d="M49.1 13.4h-3.3c0 .5.2.9.4 1.1.3.3.6.4 1 .4.6 0 1.1-.2 1.5-.5v.8c-.2.1-.4.2-.7.3-.3.1-.6.1-.9.1-.7 0-1.3-.2-1.7-.7-.4-.4-.6-1.1-.6-1.8 0-.5.1-.9.3-1.3.2-.4.5-.7.8-.9s.7-.3 1.2-.3c.6 0 1.1.2 1.5.6.4.4.5 1 .5 1.7v.5zm-.9-.7c0-.4-.1-.7-.3-1s-.5-.3-.8-.3c-.3 0-.6.1-.8.3-.2.2-.4.6-.5.9h2.4z"/><path id="Path_11_" class="st4" d="M52.8 15.5c-.1.1-.2.1-.4.1H52c-.9 0-1.3-.5-1.3-1.5v-2.7h-.8v-.8h.8v-1l.9-.3v1.4h1.2v.8h-1.2V14c0 .3.1.6.2.7.1.1.3.2.5.2s.3-.1.5-.2v.8z"/><path id="Shape_4_" class="st4" d="M57.4 9c0 .2-.1.3-.2.4-.1.1-.3.2-.4.2-.2 0-.3-.1-.4-.2-.1-.1-.2-.2-.2-.4s.1-.3.2-.4c.1-.1.3-.2.4-.2s.3.1.4.2c.1.1.2.2.2.4m-.2 6.6h-.9v-4.8h.9v4.8z"/><path id="Path_12_" class="st4" d="M61.3 15.5c-.1.1-.2.1-.4.1h-.4c-.9 0-1.3-.5-1.3-1.5v-2.7h-.8v-.8h.8v-1l.9-.3v1.4h1.2v.8h-1.2V14c0 .3.1.6.2.7.1.1.3.2.5.2s.3-.1.5-.2v.8z"/><path id="Path_13_" class="st4" d="M67.4 9.2c-.2-.1-.3-.1-.5-.1-.5 0-.8.3-.8 1v.7h1.1v.8h-1.1v4.1h-.9v-4.1h-.8v-.8h.8V10c0-.5.1-.9.4-1.2.3-.3.7-.5 1.2-.5.3 0 .4 0 .6.1v.8z"/><path id="Path_14_" class="st4" d="M70.8 11.7c-.1 0-.2-.1-.3-.1-.1 0-.2-.1-.3-.1-.3 0-.6.2-.8.4-.2.3-.3.7-.3 1.2v2.5h-.9v-4.8h.9v1c.1-.3.3-.6.5-.8.2-.2.5-.3.8-.3.2 0 .3 0 .4.1v.9z"/><path id="Shape_5_" class="st4" d="M76.1 13.1c0 .8-.2 1.4-.7 1.9s-1 .7-1.8.7c-.7 0-1.3-.2-1.7-.7-.4-.4-.7-1.1-.7-1.8 0-.8.2-1.4.7-1.9s1.1-.7 1.8-.7 1.3.2 1.7.7c.5.4.7 1 .7 1.8m-1 .1c0-.6-.1-1-.4-1.3-.3-.3-.6-.4-1.1-.4-.5 0-.8.2-1.1.5-.3.3-.4.8-.4 1.3 0 .6.1 1 .4 1.3.3.3.6.5 1.1.5.5 0 .8-.2 1.1-.4.3-.5.4-1 .4-1.5"/><path id="Path_15_" class="st4" d="M84.4 15.6h-.9v-2.8c0-.5-.1-.9-.2-1.1-.2-.2-.4-.3-.8-.3-.3 0-.6.1-.8.4-.2.3-.3.6-.3 1v2.7h-.9v-2.8c0-.9-.3-1.3-1-1.3-.3 0-.6.1-.8.4-.2.3-.3.6-.3 1v2.7h-.9v-4.9h.9v.8c.3-.6.9-.9 1.5-.9.3 0 .6.1.8.3.2.2.4.4.5.7.2-.3.4-.6.7-.7.3-.2.6-.2.9-.2 1.1 0 1.6.7 1.6 2v3z"/></svg>