<?xml version="1.0" encoding="UTF-8"?>
<svg width="556px" height="379px" viewBox="0 0 556 379" version="1.1" xmlns="http://www.w3.org/2000/svg" xmlns:xlink="http://www.w3.org/1999/xlink">
    <title>Spot-illo Automation</title>
    <defs>
        <linearGradient x1="100%" y1="29.0777147%" x2="0.372149493%" y2="71.0791774%" id="linearGradient-1">
            <stop stop-color="#33E4F2" offset="0%"></stop>
            <stop stop-color="#8C6FFF" offset="100%"></stop>
        </linearGradient>
        <path d="M6.27789328,217.878932 C-17.640051,124.829534 26.6594458,0 198.21731,0 C369.775175,0 549.252727,121.712982 555.63066,195.774108 C562.008594,269.835233 412.802606,360.717626 256.724557,360.717626 C100.646508,360.717626 30.1958376,310.928331 6.27789328,217.878932 Z" id="path-2"></path>
        <linearGradient x1="50.0002207%" y1="1.39222554%" x2="50.0002207%" y2="103.670596%" id="linearGradient-4">
            <stop stop-color="#FFFFFF" stop-opacity="0.1" offset="0%"></stop>
            <stop stop-color="#DEEBFF" offset="100%"></stop>
        </linearGradient>
        <linearGradient x1="114.723695%" y1="59.1906931%" x2="19.2523057%" y2="50.1629842%" id="linearGradient-5">
            <stop stop-color="#0D0E0F" offset="0%"></stop>
            <stop stop-color="#151F44" offset="100%"></stop>
        </linearGradient>
        <linearGradient x1="100%" y1="50.0546094%" x2="0.00706297848%" y2="50.0546094%" id="linearGradient-6">
            <stop stop-color="#0D0E0F" offset="0%"></stop>
            <stop stop-color="#151F44" offset="100%"></stop>
        </linearGradient>
        <linearGradient x1="49.9961506%" y1="99.815942%" x2="49.9961506%" y2="-0.0746194433%" id="linearGradient-7">
            <stop stop-color="#213067" offset="0%"></stop>
            <stop stop-color="#151F44" offset="100%"></stop>
        </linearGradient>
        <filter x="-19.7%" y="-24.5%" width="139.3%" height="149.0%" filterUnits="objectBoundingBox" id="filter-8">
            <feGaussianBlur stdDeviation="3.83680012" in="SourceGraphic"></feGaussianBlur>
        </filter>
        <linearGradient x1="99.9666142%" y1="49.8980196%" x2="-0.01666426%" y2="49.8980196%" id="linearGradient-9">
            <stop stop-color="#0D0E0F" offset="0%"></stop>
            <stop stop-color="#151F44" offset="100%"></stop>
        </linearGradient>
        <linearGradient x1="-0.262032882%" y1="7.96663%" x2="84.9097519%" y2="84.6534653%" id="linearGradient-10">
            <stop stop-color="#B3FFFF" offset="0%"></stop>
            <stop stop-color="#55FFFA" offset="100%"></stop>
        </linearGradient>
        <linearGradient x1="100%" y1="50%" x2="4.4408921e-14%" y2="50%" id="linearGradient-11">
            <stop stop-color="#FFFFFF" offset="0%"></stop>
            <stop stop-color="#FAFEFF" offset="76.8633868%"></stop>
            <stop stop-color="#E6FCFF" offset="100%"></stop>
        </linearGradient>
        <linearGradient x1="50%" y1="0%" x2="50%" y2="100%" id="linearGradient-12">
            <stop stop-color="#E6FCFF" offset="0%"></stop>
            <stop stop-color="#FFFFFF" offset="100%"></stop>
        </linearGradient>
        <linearGradient x1="50.7968207%" y1="13.1390262%" x2="47.6249379%" y2="330.337614%" id="linearGradient-13">
            <stop stop-color="#79E2F2" offset="0%"></stop>
            <stop stop-color="#B3F5FF" offset="17%"></stop>
            <stop stop-color="#F9FDFF" offset="99%"></stop>
        </linearGradient>
        <linearGradient x1="50.7386985%" y1="20.5389412%" x2="48.7039245%" y2="224.158612%" id="linearGradient-14">
            <stop stop-color="#79E2F2" offset="0%"></stop>
            <stop stop-color="#B3F5FF" offset="17%"></stop>
            <stop stop-color="#F9FDFF" offset="99%"></stop>
        </linearGradient>
        <linearGradient x1="49.2225201%" y1="-71.0526316%" x2="52.4396783%" y2="146.616541%" id="linearGradient-15">
            <stop stop-color="#79E2F2" offset="0%"></stop>
            <stop stop-color="#B3F5FF" offset="17%"></stop>
            <stop stop-color="#F9FDFF" offset="99%"></stop>
        </linearGradient>
        <linearGradient x1="0.945388287%" y1="28.3791637%" x2="100%" y2="72.0375165%" id="linearGradient-16">
            <stop stop-color="#FF8F73" offset="0%"></stop>
            <stop stop-color="#F56DC8" offset="100%"></stop>
        </linearGradient>
        <rect id="path-17" x="0.8096" y="-4.00177669e-13" width="259.908" height="172.5504" rx="11.9548"></rect>
        <filter x="-5.2%" y="-5.5%" width="108.8%" height="113.3%" filterUnits="objectBoundingBox" id="filter-19">
            <feOffset dx="-2" dy="2" in="SourceAlpha" result="shadowOffsetOuter1"></feOffset>
            <feGaussianBlur stdDeviation="3.5" in="shadowOffsetOuter1" result="shadowBlurOuter1"></feGaussianBlur>
            <feColorMatrix values="0 0 0 0 0.250980392   0 0 0 0 0.196078431   0 0 0 0 0.580392157  0 0 0 0.3 0" type="matrix" in="shadowBlurOuter1"></feColorMatrix>
        </filter>
        <linearGradient x1="49.729086%" y1="71.7383754%" x2="49.729086%" y2="-0.419120026%" id="linearGradient-20">
            <stop stop-color="#3D4F7B" offset="0%"></stop>
            <stop stop-color="#202C4B" offset="100%"></stop>
        </linearGradient>
        <linearGradient x1="0.737128088%" y1="51.1155216%" x2="100.087771%" y2="48.8043888%" id="linearGradient-21">
            <stop stop-color="#8F7EF0" offset="0%"></stop>
            <stop stop-color="#FF71C2" offset="100%"></stop>
        </linearGradient>
        <linearGradient x1="106.607647%" y1="31.0222199%" x2="1.37875862%" y2="61.121177%" id="linearGradient-22">
            <stop stop-color="#0D0E0F" offset="0%"></stop>
            <stop stop-color="#151F44" offset="100%"></stop>
        </linearGradient>
        <linearGradient x1="49.9999503%" y1="-1.60393394e-14%" x2="49.9999503%" y2="100%" id="linearGradient-23">
            <stop stop-color="#FFFFFF" stop-opacity="0.5" offset="0%"></stop>
            <stop stop-color="#FFFFFF" stop-opacity="0" offset="100%"></stop>
        </linearGradient>
        <linearGradient x1="54.0171615%" y1="161.719167%" x2="54.0171615%" y2="-3.39638172%" id="linearGradient-24">
            <stop stop-color="#FFFFFF" stop-opacity="0.5" offset="0%"></stop>
            <stop stop-color="#FFFFFF" stop-opacity="0" offset="100%"></stop>
        </linearGradient>
        <linearGradient x1="71.5519568%" y1="48.7822517%" x2="22.3211876%" y2="50.3189895%" id="linearGradient-25">
            <stop stop-color="#FFFFFF" offset="41%"></stop>
            <stop stop-color="#E1ECF2" offset="100%"></stop>
        </linearGradient>
        <linearGradient x1="49.7983871%" y1="99.5538312%" x2="49.7983871%" y2="-404.112512%" id="linearGradient-26">
            <stop stop-color="#FFAF73" offset="0%"></stop>
            <stop stop-color="#FFC7C7" offset="74%"></stop>
            <stop stop-color="#FFFBFB" offset="100%"></stop>
        </linearGradient>
        <linearGradient x1="100.20202%" y1="542.416571%" x2="0.303030303%" y2="542.416571%" id="linearGradient-27">
            <stop stop-color="#FFFFFF" offset="41%"></stop>
            <stop stop-color="#E1ECF2" offset="100%"></stop>
        </linearGradient>
        <linearGradient x1="49.9943422%" y1="99.6327056%" x2="49.9943422%" y2="-114.975159%" id="linearGradient-28">
            <stop stop-color="#FFDEC7" offset="0%"></stop>
            <stop stop-color="#FFFFFF" offset="100%"></stop>
        </linearGradient>
        <linearGradient x1="49.9811052%" y1="99.7914566%" x2="49.9811052%" y2="-0.0268463666%" id="linearGradient-29">
            <stop stop-color="#FF7E66" offset="0%"></stop>
            <stop stop-color="#FFC7C7" offset="100%"></stop>
        </linearGradient>
        <linearGradient x1="49.9973725%" y1="101.490718%" x2="49.9973725%" y2="-0.0221668052%" id="linearGradient-30">
            <stop stop-color="#FFDEC7" stop-opacity="0.7" offset="0%"></stop>
            <stop stop-color="#FFFFFF" stop-opacity="0.8" offset="100%"></stop>
        </linearGradient>
        <linearGradient x1="50.0212736%" y1="100%" x2="50.0212736%" y2="-0.0114536378%" id="linearGradient-31">
            <stop stop-color="#FFAF73" stop-opacity="0.6" offset="0%"></stop>
            <stop stop-color="#FFC7C7" stop-opacity="0.6" offset="74%"></stop>
            <stop stop-color="#FFFBFB" stop-opacity="0.6" offset="100%"></stop>
        </linearGradient>
        <linearGradient x1="49.9974985%" y1="295.578978%" x2="49.9974985%" y2="395.577067%" id="linearGradient-32">
            <stop stop-color="#FFDEC7" stop-opacity="0.7" offset="0%"></stop>
            <stop stop-color="#FFFFFF" stop-opacity="0.8" offset="100%"></stop>
        </linearGradient>
        <linearGradient x1="50.0177748%" y1="1806.34606%" x2="50.0177748%" y2="2550.81093%" id="linearGradient-33">
            <stop stop-color="#FFDEC7" offset="0%"></stop>
            <stop stop-color="#FFFFFF" offset="100%"></stop>
        </linearGradient>
    </defs>
    <g id="Design" stroke="none" stroke-width="1" fill="none" fill-rule="evenodd">
        <g id="TREL-223---Logged-In-+-Collapsed---DRD" transform="translate(-748.000000, -2870.000000)">
            <g id="02-Value-Props" transform="translate(0.000000, 678.000000)">
                <g id="05" transform="translate(136.000000, 2192.000000)">
                    <g id="Spot-illo-Automation" transform="translate(612.000000, 0.000000)">
                        <mask id="mask-3" fill="white">
                            <use xlink:href="#path-2"></use>
                        </mask>
                        <use id="Mask" fill-opacity="0.7" fill="url(#linearGradient-1)" transform="translate(278.051525, 180.358813) scale(-1, 1) translate(-278.051525, -180.358813) " xlink:href="#path-2"></use>
                        <g id="glow" mask="url(#mask-3)" fill="url(#linearGradient-4)" fill-opacity="0.6" fill-rule="nonzero">
                            <g transform="translate(-99.000000, -88.000000)">
                                <path d="M0.275,0 C0.315890733,1.70522751 0.373819271,7.96682294 0.441970493,9.63453545 C1.39949516,33.5895716 6.44268555,56.2997916 22.812609,63.2878139 C27.1538418,65.139691 31.6722678,65.4227588 36.1429879,66.3231189 C58.0501981,70.7328372 60.3025959,92.2766817 62.4629897,122.803665 C63.655636,139.562641 69.1077338,154.957435 79.2793036,161.788576 C83.4365281,164.581739 87.9992524,165.332039 92.4904179,166.051645 C102.102012,167.597718 111.713606,169.142654 121.3252,170.686453 C128.668494,171.869881 136.6933,177.882513 140.939121,188.454924 C146.302622,201.803445 142.81328,218.777279 147.481639,232.545286 C153.887853,251.446028 168.284799,254.334684 180.415716,254.014101 C190.297644,253.754906 201.883351,247.534236 210.480628,258.072542 C216.242814,265.142416 216.706242,275.094123 217.244637,285.417571 C217.660359,293.411677 218.328241,301.607001 220.198992,309.007688 C225.238775,328.928156 241.094156,335.244319 254.502909,333.90401 C267.911662,332.563701 281.599835,326.401009 294.517899,332.287454 C306.526144,337.744182 310.012079,330.374189 310.216533,341.673026 C310.325575,347.658375 309.63384,353.872224 311.899868,359.444908 C315.239278,367.657283 324.385172,372.493308 333.418616,373.830207 C342.452061,375.167105 351.635438,373.697199 360.743849,372.970772 C389.466181,370.685767 418.212366,375.852607 447.009665,376.940542 C453.310245,377.179274 460.452493,376.892795 464.671054,372.370532 C468.668123,368.08359 468.501153,361.63783 468.09906,355.884392 C467.148351,342.215289 460.823917,350.448127 469.908475,339.173163 C482.605048,323.416861 501.285298,332.659194 518.050498,333.90401 C531.452436,335.240908 547.314633,328.924745 552.3476,309.007688 C554.637482,299.94952 554.191091,289.738617 554.97483,280.16206 C555.656342,271.813266 557.309009,263.914652 562.07278,258.072542 C570.659834,247.530826 582.242134,253.754906 592.130876,254.014101 C604.261793,254.334684 618.658739,251.446028 625.064954,232.545286 C629.733313,218.777279 626.250785,201.803445 631.610879,188.454924 C635.853292,177.882513 643.878099,171.869881 651.2248,170.686453 L680.056175,166.051645 C684.54734,165.332039 689.110064,164.581739 693.267289,161.788576 C703.442266,154.967666 708.901179,139.562641 710.08701,122.803665 C712.243996,92.2766817 714.499802,70.7328372 736.403605,66.3231189 C740.864102,65.4227588 745.396158,65.139691 749.740799,63.2878139 C766.097092,56.2997916 771.147097,33.5895716 772.111437,9.63453545 C772.176181,7.96682294 772.237517,1.70863797 772.275,0 L0.275,0 Z" style="mix-blend-mode: hard-light;"></path>
                            </g>
                        </g>
                        <g id="Group-25" transform="translate(90.275000, 14.000000)">
                            <g id="Asset-2" transform="translate(316.746162, 106.882632) rotate(11.000000) translate(-316.746162, -106.882632) translate(207.246162, 19.882632)">
                                <g id="Layer6_0_1_STROKES" transform="translate(46.532614, 158.806115) rotate(-1.000000) translate(-46.532614, -158.806115) translate(7.032614, 144.806115)" fill="url(#linearGradient-5)" fill-rule="nonzero">
                                    <path d="M27.0642648,25.6207376 C30.9205827,26.6717977 34.8711788,27.3192967 38.8552748,27.5532733 C50.8607968,28.2413731 63.0236275,25.0351208 74.9933975,18.0369993 C78.4271024,16.0155789 79.6099987,11.5272207 77.6354702,8.01197076 C75.6609418,4.49672078 71.2767023,3.28573254 67.8429973,5.30715279 C48.7013759,16.5290359 30.3105465,15.4456447 11.6050996,2.00573775 C9.51033416,0.500655907 6.79036596,0.253986864 4.46978068,1.35864846 C2.14919541,2.46331006 0.58054516,4.75147791 0.354725322,7.36122133 C0.128905484,9.97096474 1.28022346,12.5058016 3.3749889,14.0108834 C10.5383024,19.2851397 18.5591002,23.2160447 27.0642648,25.6207376 Z" id="Path"></path>
                                </g>
                                <path d="M100.038539,154.48815 C99.3427899,155.881716 98.4099444,157.14989 97.2797224,158.238675 C93.3987669,162.017906 87.5699516,163.144445 82.5074862,161.093715 C77.4450208,159.042984 74.1441619,154.218148 74.1419669,148.865909 C74.0814217,145.351448 75.5262205,141.971905 78.1277303,139.542772 C78.6570575,139.043023 79.2119508,138.569761 79.79028,138.124804 C81.4065385,140.224196 83.1752898,142.207374 85.082851,144.058999 C89.4034491,148.364714 94.4657784,151.894863 100.038539,154.48815 Z" id="Path" fill="url(#linearGradient-6)" fill-rule="nonzero"></path>
                                <path d="M142.703629,130.451204 L168.141741,130.451204 C165.559355,135.497422 162.158787,140.0913 158.075051,144.050449 C157.669778,144.494214 157.242794,144.916506 156.801336,145.317326 C156.180546,143.105745 154.979642,141.095776 153.320332,139.491123 C148.166794,134.347659 139.806695,134.20575 134.477728,139.171279 C129.148761,144.136808 128.794412,152.398837 133.67907,157.792843 C129.564723,158.754322 125.350474,159.234777 121.122847,159.224343 C113.530692,159.303809 106.014114,157.727569 99.1078435,154.607757 C93.5505488,151.981109 88.5041319,148.40748 84.1995902,144.050449 C82.2980792,142.181154 80.5349377,140.17905 78.9238054,138.059624 C77.1116341,135.66382 75.5111798,133.118299 74.1401377,130.451204 L142.703629,130.451204 Z" id="Path" fill="url(#linearGradient-7)" fill-rule="nonzero"></path>
                                <path d="M2.84317015,141.858734 C7.65557089,141.02458 11.5471958,142.714839 14.518045,146.929513 M0.130044519,150.002713 C4.94244525,149.168559 8.84578489,150.861257 11.8400634,155.080809" id="Layer6_0_2_STROKES" stroke="#577288" stroke-width="6.14847219" stroke-linecap="round" stroke-linejoin="round" transform="translate(7.324045, 148.366409) rotate(-1.000000) translate(-7.324045, -148.366409) "></path>
                                <path d="M149.324704,37.8082344 L146.944868,37.8082344 C148.158972,37.7886778 149.134009,36.8019832 149.137768,35.5891147 L149.137768,34.7488654 C149.03345,22.1645702 138.962489,11.9272478 126.367555,11.6025125 C129.076396,10.5747534 130.663723,7.76101269 130.140663,4.91419439 C129.617603,2.06737609 127.133444,-1.20053301e-12 124.235768,-1.20053301e-12 C121.338092,-1.20053301e-12 118.853933,2.06737609 118.330873,4.91419439 C117.807813,7.76101269 119.39514,10.5747534 122.103981,11.6025125 C109.620252,11.795474 99.6346319,22.0199163 99.7507787,34.4903272 L99.7507787,35.9984669 C99.7626385,37.2212508 100.762603,38.204014 101.986818,38.1960418 L99.6141718,38.1960418 C98.4446515,38.2036207 97.3262679,38.6759531 96.5060475,39.5087108 C95.6858271,40.3414686 95.2312603,41.4661299 95.2425384,42.6342814 L95.2425384,42.6342814 C95.2625308,45.0628312 97.2475229,47.0166326 99.6788804,47.0008014 L149.382222,46.5985342 C151.814706,46.5748423 153.769606,44.5900605 153.75374,42.1602946 L153.75374,42.1602946 C153.726004,39.7401899 151.747706,37.7962323 149.324704,37.8082344 L149.324704,37.8082344 Z" id="Path" fill-opacity="0.6" fill="#7DFFFF" fill-rule="nonzero" filter="url(#filter-8)"></path>
                                <path d="M129.864432,149.097439 C129.797163,145.409683 131.270687,141.860407 133.931408,139.30132 C137.44026,135.823359 142.528099,134.453743 147.312826,135.699123 C152.097554,136.944503 155.867788,140.619718 157.228841,145.365229 C157.530267,146.583837 157.680639,147.834787 157.676581,149.089989 C157.737325,152.796829 156.27904,156.367659 153.639454,158.975502 C151.030366,161.592649 147.484134,163.064005 143.785431,163.064005 C140.086729,163.064005 136.540497,161.592649 133.931408,158.975502 L133.386657,158.37954 C131.055809,155.85573 129.793612,152.529467 129.864432,149.097439 Z" id="Path" fill="url(#linearGradient-9)" fill-rule="nonzero"></path>
                                <path d="M208.080387,51.8040123 C215.346357,51.8040123 218.979342,55.4093663 218.979342,62.6200742 L218.979342,119.635142 C218.979342,126.84585 215.346357,130.451204 208.080387,130.451204 L143.20254,130.451204 C144.111564,130.399799 145.016621,130.293848 145.912747,130.133933 C151.057054,129.172505 153.629207,125.665697 153.629207,119.61351 L153.629207,62.6128635 C153.629207,55.5752126 150.153651,51.9698586 143.20254,51.7968016 L208.080387,51.8040123 Z" id="Path" fill="url(#linearGradient-10)" fill-rule="nonzero"></path>
                                <path d="M25.2209362,119.61546 L25.2209362,62.6108748 C25.2209362,55.4014927 28.8326257,51.7968016 36.0560046,51.7968016 L143.388191,51.7968016 C150.293742,51.9698268 153.748925,55.5745178 153.75374,62.6108748 L153.75374,119.61546 C153.75374,125.666534 151.196664,129.172697 146.082512,130.133948 C145.191639,130.293834 144.291887,130.399765 143.388191,130.451204 L36.0415578,130.451204 C28.8278101,130.46558 25.2209362,126.853679 25.2209362,119.61546 Z" id="Path" fill="url(#linearGradient-11)" fill-rule="nonzero"></path>
                                <g id="Layer2_0_FILL" transform="translate(46.323337, 78.654402)" fill-rule="nonzero">
                                    <path d="M51.7640084,34.8454218 C52.9183278,34.8454218 53.3944845,35.4285492 53.2069076,36.5308024 C53.0193307,37.6330555 51.7640084,38.5788598 49.5996596,39.3753266 C47.2307388,40.2414092 44.7242072,40.6844945 42.1975868,40.6838077 C39.6703045,40.6919029 37.1624437,40.2485827 34.795514,39.3753266 C32.5806637,38.5717485 31.3830574,37.6259442 31.188266,36.5308024 C30.9934746,35.4356605 31.3830574,34.8667557 32.5229477,34.8454218 L51.7640084,34.8454218 Z" id="Path" fill="#993333"></path>
                                    <path d="M2.3230677,2.30406462 C1.27089793,3.31363337 0.684256645,4.7040054 0.699806107,6.15128364 L0.699806107,16.8182495 C0.665527777,18.2794425 1.25434325,19.6878651 2.3230677,20.701025 C3.36817662,21.7414813 4.7985953,22.3167656 6.28382597,22.2939586 C9.33447024,22.2667016 11.7951371,19.8253756 11.8029154,16.8182495 L11.8029154,6.15128364 C11.8170881,4.7000068 11.2217402,3.30756548 10.1580103,2.30406462 C9.15118376,1.25909268 7.74564676,0.678603455 6.28382597,0.704019746 C4.79705647,0.680585315 3.36552656,1.25888672 2.3230677,2.30406462 M73.1838469,6.15128364 L73.1838469,16.8182495 C73.1490549,18.2739111 73.7260513,19.6790433 74.7782505,20.701025 C75.814484,21.737105 77.2342533,22.3122971 78.7101508,22.2939586 C80.1873364,22.3189881 81.6096752,21.7427549 82.6420511,20.701025 C83.7088728,19.6871345 84.295146,18.2785324 84.2580982,16.8182495 L84.2580982,6.15128364 C84.2466496,3.94253084 82.8900191,1.95682643 80.817939,1.11591143 C78.7458588,0.274996439 76.3641012,0.743545919 74.7782505,2.30406462 C73.7423175,3.32214637 73.1673802,4.70944246 73.1838469,6.15128364 L73.1838469,6.15128364 Z" id="Shape" fill="#19232B"></path>
                                </g>
                                <path d="M147.324708,39.837414 L147.500966,39.8419419 C148.840691,39.9110083 149.90292,40.7618689 149.916809,41.8209189 C149.931036,42.9260145 148.782242,43.8327596 147.346248,43.8327596 L147.346248,43.8327596 L100.719548,44.1232014 L100.543255,44.1187093 C99.2029799,44.0501851 98.1341568,43.2058303 98.1202684,42.1467804 C98.1060408,41.0416848 99.2620154,40.1278558 100.698009,40.1278558 L100.698009,40.1278558 L147.324708,39.837414 Z M125.221447,15.8372767 C135.03186,15.7859958 143.367991,22.9930901 144.728021,32.7019021 C144.775296,33.1306372 144.637584,33.5591982 144.349365,33.8802824 C144.061146,34.2013666 143.649708,34.3845739 143.218067,34.384033 L104.804566,34.6944691 C104.375447,34.6909244 103.967902,34.5059497 103.682886,34.1853665 C103.397871,33.8647833 103.262047,33.4385812 103.309062,33.0123383 C104.514516,23.2727048 112.749506,15.9295277 122.569998,15.8372767 L125.221447,15.8372767 Z M123.586901,3.83680012 C125.493997,3.83680012 127.040004,5.37185001 127.040004,7.26543001 C127.040004,9.15901001 125.493997,10.6940599 123.586901,10.6940599 C121.679805,10.6940599 120.133798,9.15901001 120.133798,7.26543001 C120.133798,5.37185001 121.679805,3.83680012 123.586901,3.83680012 Z" id="Combined-Shape" fill="url(#linearGradient-12)" fill-rule="nonzero"></path>
                                <path d="M106.752939,141.673208 L96.2674958,144.711012 C95.3499079,144.986703 94.355998,144.812234 93.5871537,144.240511 C92.8183094,143.668787 92.3650941,142.767154 92.3649383,141.809016 L92.3649383,130.451204 L106.745791,130.451204 L106.752939,141.673208 Z" id="Path" fill="url(#linearGradient-13)" fill-rule="nonzero"></path>
                                <path d="M119.222539,141.65208 L129.700835,144.706214 C130.612356,144.985952 131.602334,144.819041 132.371939,144.255865 C133.141544,143.692689 133.6006,142.799237 133.61054,141.845198 L133.61054,130.451204 L119.236834,130.451204 L119.222539,141.65208 Z" id="Path" fill="url(#linearGradient-14)" fill-rule="nonzero"></path>
                                <path d="M105.793739,130.451204 L119.222539,130.451204 L119.222539,140.908648 C119.222539,141.696701 118.90999,142.452477 118.353649,143.009714 C117.797308,143.566952 117.042747,143.880004 116.255962,143.880004 L108.760316,143.880004 C107.12192,143.880004 105.793739,142.549683 105.793739,140.908648 L105.793739,130.451204 Z" id="Path" fill="url(#linearGradient-15)" fill-rule="nonzero"></path>
                            </g>
                            <g id="card" transform="translate(146.306509, 242.075004) rotate(-12.000000) translate(-146.306509, -242.075004) translate(15.806509, 155.575004)">
                                <g id="Group" transform="translate(0.000000, -0.000000)">
                                    <mask id="mask-18" fill="white">
                                        <use xlink:href="#path-17"></use>
                                    </mask>
                                    <g id="Rectangle">
                                        <use fill="black" fill-opacity="1" filter="url(#filter-19)" xlink:href="#path-17"></use>
                                        <use fill="url(#linearGradient-16)" fill-rule="evenodd" xlink:href="#path-17"></use>
                                    </g>
                                    <rect id="Rectangle" fill="#FFFFFF" fill-rule="nonzero" mask="url(#mask-18)" x="-3.52" y="142.4984" width="271.458" height="30.0476"></rect>
                                    <line x1="21.1280111" y1="156.669074" x2="142.356811" y2="156.669074" id="Path" stroke="#DEEBFF" stroke-width="9.7592" stroke-linecap="round" stroke-linejoin="round" mask="url(#mask-18)"></line>
                                </g>
                                <path d="M167.7368,86.7812 L167.7368,86.8164 C167.695319,90.0229051 166.614536,93.1293837 164.6568,95.6692 C158.9676,103.4616 145.9656,108.9176 130.8296,108.948531 C115.6936,108.9792 102.6696,103.5628 96.9496,95.788 C94.980128,93.2575307 93.8881527,90.1545907 93.8388,86.9484 L93.8388,86.9132 C93.8940368,84.656915 95.7532025,82.8644282 98.01,82.8916 L163.57,82.7772 C165.81936,82.7498998 167.674479,84.5325378 167.7368,86.7812 Z" id="Path" fill="url(#linearGradient-20)" fill-rule="nonzero"></path>
                                <rect id="Rectangle" fill="#FFFFFF" fill-rule="nonzero" transform="translate(81.759893, 58.798828) rotate(-0.100000) translate(-81.759893, -58.798828) " x="76.9396933" y="48.1002279" width="9.6404" height="21.3972" rx="4.818"></rect>
                                <rect id="Rectangle" fill="#FFFFFF" fill-rule="nonzero" transform="translate(179.765344, 58.799376) rotate(-0.100000) translate(-179.765344, -58.799376) " x="174.945144" y="48.1007759" width="9.6404" height="21.3972" rx="4.818"></rect>
                                <path d="M164.648,95.6692 C158.9588,103.4616 145.9568,108.9176 130.8208,108.948531 C115.6848,108.9792 102.6608,103.5628 96.9408,95.788 C106.26,91.9732 118.0168,89.6896 130.79,89.6674397 C143.5632,89.6456 155.3112,91.8896 164.648,95.6692 Z" id="Path" fill="url(#linearGradient-21)" fill-rule="nonzero"></path>
                            </g>
                            <g id="Group-24" transform="translate(306.816627, 200.925964) rotate(-4.000000) translate(-306.816627, -200.925964) translate(268.316627, 175.425964)" fill-rule="nonzero">
                                <g id="Layer3_0_1_STROKES" transform="translate(7.813574, 0.000000)" fill="url(#linearGradient-22)">
                                    <path d="M34.0968911,44.548538 C37.64598,43.1526928 41.0490742,41.410415 44.256896,39.3469333 C54.3314629,32.8698666 62.2914388,23.2290841 67.9232285,10.7024799 C69.539353,7.10561822 67.9359606,2.87861817 64.3419513,1.26121101 C60.7479421,-0.356196146 56.5242941,1.24846878 54.9081696,4.84533043 C45.9158177,24.8679459 30.472895,34.7723714 7.68942209,35.1357711 C3.75724565,35.1987359 0.620589363,38.4399676 0.683504186,42.3752648 C0.746419009,46.3105621 3.98508038,49.4497078 7.91725682,49.386743 C16.8642029,49.3701411 25.7340784,47.7309175 34.0968911,44.548538 L34.0968911,44.548538 Z" id="Path"></path>
                                </g>
                                <g id="Layer3_0_2_STROKES" transform="translate(0.000000, 36.080000)" fill="#577288">
                                    <path d="M2.74057151,13.6411947 C1.57726132,13.4084929 0.808164146,12.2950768 1.00230035,11.1247128 C1.19643656,9.95434881 2.2838319,9.14888169 3.45997153,9.30424028 C6.0344894,9.78655585 8.69657922,9.36546164 10.9965432,8.11209168 C12.0598302,7.52936497 13.394188,7.9189361 13.9769147,8.98222313 C14.5596414,10.0455102 14.1700703,11.3798679 13.1067833,11.9625947 C12.5296844,12.2821209 11.9323397,12.5636282 11.3185603,12.8053204 C8.58896209,13.860999 5.62262445,14.1500511 2.74057151,13.6411947 L2.74057151,13.6411947 Z M2.17190292,6.0703659 C1.35855314,5.99136607 0.656062831,5.4679199 0.347749926,4.71113592 C0.0394370218,3.95435195 0.176140452,3.08901924 0.702727022,2.46413091 C1.22931359,1.83924258 2.05895238,1.55783893 2.8570458,1.73341148 C5.45432784,2.23293003 8.14451986,1.80880065 10.4621317,0.534411445 C11.5235268,-0.0502071788 12.8578845,0.336296465 13.4425032,1.39769151 C14.0271219,2.45908655 13.6406183,3.7934443 12.5792232,4.37806299 C11.9907843,4.70443848 11.3820448,4.99278876 10.7567432,5.24134302 C8.03326447,6.29299535 5.07400993,6.57968054 2.19930864,6.0703659 L2.17190292,6.0703659 Z" id="Shape"></path>
                                </g>
                            </g>
                        </g>
                        <g id="lightbulb" transform="translate(196.275000, 98.500000) rotate(-15.000000) translate(-196.275000, -98.500000) translate(146.275000, 43.000000)" fill-rule="nonzero">
                            <g id="Layer19_0_FILL" transform="translate(7.946571, 9.538327)" fill="url(#linearGradient-23)">
                                <path d="M40.8469155,0.0849208223 C29.5807531,0.0849208223 19.9752645,4.062046 12.0304498,12.0162964 C4.08563512,19.9705467 0.103792116,29.5760353 0.0849208223,40.8327621 C0.0849208223,52.091376 4.06676382,61.6968645 12.0304498,69.6492278 C19.9941358,77.601591 29.5996244,81.583434 40.8469155,81.5947568 C52.0923195,81.5947568 61.6978081,77.6129138 69.6633812,69.6492278 C77.6289544,61.6855418 81.6013617,52.0800532 81.5806842,40.8327621 C81.5806842,29.5741482 77.6081959,19.9686596 69.6633812,12.0162964 C61.7185665,4.06393313 52.113078,0.0868079517 40.8469155,0.0849208223 Z" id="Path"></path>
                            </g>
                            <g id="Layer18_0_FILL" transform="translate(0.148407, 0.952152)" fill="url(#linearGradient-24)">
                                <path d="M83.9009004,83.9150824 C93.5087542,74.2996648 98.3117357,62.7129448 98.3098453,49.1549224 C98.3079538,35.5968999 93.5049723,24.0101799 83.9009004,14.3947623 C74.3062831,4.79825411 62.7242904,0 49.1549224,0 C35.5855543,0 23.9893796,4.79825411 14.3663983,14.3947623 C4.78879942,23.9912705 0,35.5779905 0,49.1549224 C0,62.7318542 4.78879942,74.3185742 14.3663983,83.9150824 C23.9723612,93.5115906 35.5685359,98.3098447 49.1549224,98.3098447 C62.7413089,98.3098447 74.3233015,93.5115906 83.9009004,83.9150824 Z" id="Path"></path>
                            </g>
                            <g id="Layer17_0_FILL" transform="translate(15.988047, 16.651557)">
                                <path d="M40.096774,91.4824153 L43.7368246,86.5212371 L22.9084268,86.5497496 L26.5344231,91.4824153 C27.0422506,92.1528194 27.6965438,92.6945138 28.4458011,93.0648601 C29.1601704,93.4287982 29.9514809,93.6098916 30.750698,93.5923417 L35.9367161,93.6065979 C36.7262931,93.6032148 37.5048014,93.4179769 38.2135045,93.0648601 C38.9543752,92.693646 39.5993268,92.1517159 40.096774,91.4824153 L40.096774,91.4824153 Z" id="Path" fill="url(#linearGradient-25)"></path>
                                <path d="M38.522698,79.5071576 C38.5026217,79.9676854 38.6703673,80.4162803 38.9864882,80.7474521 C39.3254258,81.0995273 39.7946094,81.2909329 40.2794792,81.2749337 L47.2363327,81.2606775 L47.2082242,77.7536377 L40.265425,77.7393814 C39.8141471,77.7096847 39.3726156,77.8815448 39.0567595,78.209838 C38.6970399,78.539936 38.5012282,79.0155936 38.522698,79.5071576 M32.8447812,78.2240943 C32.4949199,77.8922871 32.0306018,77.7131053 31.5517902,77.7251252 L19.4089186,77.7251252 L19.4089186,81.2749337 L31.5517902,81.2749337 C32.0288474,81.3018972 32.4944349,81.1202512 32.8307269,80.7759647 C33.1343074,80.4245063 33.3038161,79.9744147 33.3085714,79.5071576 C33.3227666,79.0348218 33.156615,78.5751678 32.8447812,78.2240943 L32.8447812,78.2240943 Z" id="Shape" fill="#E4EEF2"></path>
                                <path d="M33.2242459,59.7337261 C32.0967696,59.7438436 30.9698956,59.6771644 29.851226,59.5341384 L29.851226,74.2038292 L35.9507703,74.1895729 L36.8221338,74.1753166 L36.8221338,59.5056259 C35.6287103,59.6577965 34.4270609,59.7339791 33.2242459,59.7337261 Z" id="Path" fill="url(#linearGradient-26)"></path>
                                <path d="M19.4510814,74.2038292 L19.4089186,77.7251252 L31.5517902,77.7251252 C32.0306018,77.7131053 32.4949199,77.8922871 32.8447812,78.2240943 C33.1617174,78.5729598 33.3329975,79.0328651 33.3226257,79.5071576 C33.3178703,79.9744147 33.1483616,80.4245063 32.8447812,80.7759647 C32.5084892,81.1202512 32.0429017,81.3018972 31.5658445,81.2749337 L19.4229729,81.2749337 L19.4229729,86.5497496 L22.9084268,86.5497496 L43.7368246,86.5212371 L47.2222785,86.5782622 L47.2363327,81.2606775 L40.2794792,81.2749337 C39.7946094,81.2909329 39.3254258,81.0995273 38.9864882,80.7474521 C38.6703673,80.4162803 38.5026217,79.9676854 38.522698,79.5071576 C38.5012282,79.0155936 38.6970399,78.539936 39.0567595,78.209838 C39.3726156,77.8815448 39.8141471,77.7096847 40.265425,77.7393814 L47.2082242,77.7536377 L47.2363327,74.2038292 L40.5746184,74.2038292 L35.9367161,74.1895729 L29.8371718,74.2038292 L27.2090271,74.1895729 L26.9841591,74.1895729 L19.4510814,74.2038292 Z" id="Path" fill="url(#linearGradient-27)"></path>
                                <path d="M36.7940253,45.9479234 L29.8231175,45.9479234 L29.8371718,59.5341384 C30.9558413,59.6771644 32.0827153,59.7438436 33.2101917,59.7337261 C34.4083174,59.7333849 35.6052545,59.6572035 36.7940253,59.5056259 L36.7940253,45.9479234 M25.3398119,36.467511 C24.7002428,35.7740741 23.8023326,35.3859421 22.866264,35.3982916 C21.9490903,35.3975343 21.0692672,35.7667817 20.4207272,36.4246435 C19.7721873,37.0825053 19.408172,37.9749746 19.4089175,38.9053314 C19.4392266,40.8427501 20.9843,42.403712 22.8943725,42.4266274 L26.3798264,42.4266274 L26.3376637,38.9195876 C26.3650356,37.9952756 26.0019721,37.1030994 25.3398119,36.467511 M43.7368246,35.3982916 C42.808152,35.3803774 41.9132971,35.7517163 41.2632767,36.4247423 C40.6154937,37.075013 40.259755,37.9668327 40.2794792,38.8910751 L40.265425,42.4123711 L43.7368246,42.4123711 C44.6511929,42.4348569 45.5330299,42.067745 46.1682098,41.4001767 C46.8518051,40.7693096 47.2356405,39.8712031 47.2222785,38.9338439 C47.2318065,37.9975705 46.8666926,37.0973854 46.2103725,36.4389985 C45.5627491,35.7607339 44.6675868,35.3841083 43.7368246,35.3982916 L43.7368246,35.3982916 Z" id="Shape" fill="url(#linearGradient-28)"></path>
                                <path d="M43.7508788,31.8199441 C41.8940064,31.823165 40.1163645,32.5834856 38.8178373,33.9298969 C37.5000164,35.2489995 36.7691911,37.055991 36.7940253,38.9338439 L36.8361881,42.4408837 L29.8652803,42.4408837 L29.8231175,38.9338439 C29.8504868,37.0513175 29.1195656,35.23894 27.7993056,33.9156406 C26.5027962,32.5860886 24.7350431,31.8391158 22.8914334,31.8417951 C21.0478238,31.8444743 19.2821879,32.596582 17.9894394,33.9298969 C16.6647954,35.2454625 15.9284643,37.0535116 15.9515732,38.9338439 C15.9155258,40.8026631 16.6429153,42.6034168 17.9613309,43.9092784 C19.2612421,45.2293334 21.0269043,45.9683303 22.866264,45.9621797 L26.3376637,45.9336672 L26.3798264,58.8783505 L26.3376637,74.1753166 L26.9841591,74.1895729 L27.2090271,74.1895729 L29.8371718,74.2038292 L29.8371718,59.5341384 L29.8231175,45.9479234 L36.7940253,45.9479234 L36.7940253,59.5056259 L36.7940253,74.1753166 L40.2373165,74.1895729 L40.2513707,58.8355817 L40.265425,45.9336672 L43.7368246,45.9479234 C47.5787142,45.9416734 50.6938174,42.7881658 50.7077324,38.8910751 C50.726899,37.0183305 49.9786802,35.2215772 48.6417577,33.9298969 C47.3647799,32.5773364 45.597115,31.8147653 43.7508788,31.8199441 M41.2632767,36.4247423 C42.2624184,35.41176 43.7649064,35.1093996 45.069606,35.6587574 C46.3743057,36.2081152 47.2240389,37.5009035 47.2222785,38.9338439 C47.2356405,39.8712031 46.8518051,40.7693096 46.1682098,41.4001767 C45.5330299,42.067745 44.6511929,42.4348569 43.7368246,42.4123711 L40.265425,42.4123711 L40.2794792,38.8910751 C40.259755,37.9668327 40.6154937,37.075013 41.2632767,36.4247423 M22.866264,35.3982916 C23.8023326,35.3859421 24.7002428,35.7740741 25.3398119,36.467511 C26.0019721,37.1030994 26.3650356,37.9952756 26.3376637,38.9195876 L26.3798264,42.4266274 L22.8943725,42.4266274 C20.9843,42.403712 19.4392266,40.8427501 19.4089175,38.9053314 C19.408172,37.9749746 19.7721873,37.0825053 20.4207272,36.4246435 C21.0692672,35.7667817 21.9490903,35.3975343 22.866264,35.3982916 L22.866264,35.3982916 Z" id="Shape" fill="url(#linearGradient-29)"></path>
                                <path d="M33.2242459,7.42751105 C26.1034262,7.44842023 20.0226209,10.0145469 14.98183,15.125891 C9.94103918,20.2372351 7.43001326,26.391187 7.44864815,33.5877467 C7.44864815,40.810918 9.95977818,46.9743741 14.98183,52.0781149 C18.3192458,55.4501954 22.1185779,57.7169406 26.3798264,58.8783505 L26.3376637,45.9336672 L22.866264,45.9621797 C21.0269043,45.9683303 19.2612421,45.2293334 17.9613309,43.9092784 C16.6377509,42.6058531 15.9051476,40.8047865 15.937519,38.9338439 C15.9180959,37.0514059 16.6596313,35.2430494 17.9894394,33.9298969 C19.2832236,32.5877364 21.0549147,31.8299808 22.9054757,31.8272992 C24.7560366,31.8246175 26.5298548,32.5772352 27.8274141,33.9156406 C29.1476741,35.23894 29.8785953,37.0513175 29.851226,38.9338439 L29.8933888,42.4408837 L36.8642966,42.4408837 L36.8221338,38.9338439 C36.7898912,37.0601665 37.5103267,35.2537753 38.8178373,33.9298969 C40.1187035,32.5887234 41.8960516,31.8336648 43.7508788,31.8342268 C45.597115,31.8290216 47.3647799,32.5915927 48.6417577,33.9441532 C49.9786802,35.2358334 50.726899,37.0325867 50.7077324,38.9053314 C50.6938574,42.7968763 47.587281,45.9481052 43.7508788,45.9621797 L40.2794792,45.9479234 L40.265425,58.849838 C44.4254828,57.6732214 48.149859,55.4207324 51.4385533,52.0923711 C56.4512357,46.9962337 58.9575769,40.8327776 58.9575769,33.6020029 C58.9575769,26.3712283 56.4559204,20.2077722 51.4526076,15.1116348 C46.3930778,10.007894 40.3169572,7.44651939 33.2242459,7.42751105 Z" id="Path" fill="url(#linearGradient-30)"></path>
                                <path d="M62.9911465,19.5168189 C61.3286395,16.0731039 59.1156344,12.9322913 56.4418662,10.2217378 C51.0365497,4.67660356 43.9260249,1.17083531 36.2880723,0.285125184 C35.8299038,0.219546392 35.3183291,0.165372607 34.7561591,0.128236927 C34.4553982,0.128236927 33.9691212,0.128236927 33.2945172,0.128236927 C32.8064238,0.126775565 32.3185727,0.15056707 31.8328752,0.199587629 C31.1779472,0.256612666 30.6888593,0.285125184 30.3712333,0.285125184 C26.5304257,0.707351211 22.7919454,1.80738323 19.3245931,3.53555228 C15.9375883,5.22224674 12.8466781,7.46177358 10.1752767,10.1647128 C7.51063316,12.865913 5.30690801,15.9974008 3.65410488,19.4312813 C-2.8050528,32.830449 0.0508938563,48.9312878 10.7093382,59.2062445 C12.8350875,61.2506519 14.6915585,63.5650639 16.2326582,66.0920177 C17.7778393,68.561086 18.850617,71.3033433 19.3948644,74.1753166 L26.3376637,74.1753166 L26.3798264,58.8783505 C22.116704,57.7169406 18.3173719,55.4501954 14.98183,52.0781149 C9.95040868,46.9743741 7.43938276,40.810918 7.44875226,33.5877467 C7.45812176,26.3645754 9.96914768,20.2058714 14.98183,15.1116348 C20.020747,10.007894 26.1015523,7.44651939 33.2242459,7.42751105 C40.3169572,7.44842023 46.3930778,10.0145469 51.4526076,15.125891 C56.4559204,20.239136 58.9575769,26.39784 58.9575769,33.6020029 C58.9575769,40.8061659 56.4512357,46.9648699 51.4385533,52.0781149 C48.149859,55.4045754 44.4254828,57.6570643 40.265425,58.8355817 L40.2513707,74.1895729 L40.5746184,74.2038292 L47.2363327,74.2038292 C47.7847012,71.3264265 48.8519653,68.5764178 50.3844846,66.0920177 C51.9410301,63.5719351 53.7959409,61.2546804 55.9078047,59.1919882 C62.0442939,53.336834 65.7613058,45.3373899 66.3079494,36.8096613 C66.4283168,34.7465203 66.3766006,32.6767514 66.1533526,30.6224448 C65.7381897,26.7633591 64.6683635,23.0061437 62.9911465,19.5168189 Z" id="Path" fill="url(#linearGradient-31)"></path>
                            </g>
                            <g id="Layer16_0_FILL" transform="translate(10.975085, 7.647093)" fill="#FFFFFF">
                                <path d="M86.4571454,36.6368752 C83.0494077,37.7516431 80.0155745,36.9283426 77.3556459,34.1669735 C78.5199563,38.0658222 77.5733625,41.2218077 74.5158645,43.6349301 C78.1223869,42.2154463 81.3408058,42.9819676 84.1711213,45.9344937 C83.0920044,42.2343728 83.8871432,39.1966776 86.5565377,36.8214081 L86.4713443,36.6368752 M10.5071913,79.164608 C11.0224681,79.2543185 11.5303121,79.3824293 12.0264743,79.5478686 C9.07310164,76.7089011 8.31582659,73.4961363 9.75464918,69.909574 C7.3219031,72.937806 4.16027978,73.8793969 0.269779235,72.7343467 C0.513562549,72.949335 0.741348437,73.1817998 0.951326776,73.4298937 C3.15878353,75.8903322 3.77880248,78.615741 2.81138361,81.60612 C2.74952599,81.8615284 2.65902662,82.1091399 2.54160437,82.3442516 C2.74038907,82.1086173 2.91077596,81.9127285 3.05276503,81.7622632 C5.03114608,79.5478686 7.51595483,78.6819835 10.5071913,79.164608 M22.462671,2.38473268 C19.0927971,3.70012094 16.0920947,2.98091585 13.4605639,0.227117398 C14.5396809,3.89695602 13.6593486,6.84948219 10.8195672,9.08469592 C14.1799752,7.7503812 17.1806776,8.46485468 19.8216743,11.2281164 C18.7349846,7.56584832 19.6153169,4.61805376 22.462671,2.38473268 Z" id="Shape"></path>
                            </g>
                            <g id="Layer9_0_FILL" transform="translate(15.988047, 16.651557)">
                                <path d="M40.096774,91.4824153 L43.7368246,86.5212371 L22.9084268,86.5497496 L26.5344231,91.4824153 C27.0422506,92.1528194 27.6965438,92.6945138 28.4458011,93.0648601 C29.1601704,93.4287982 29.9514809,93.6098916 30.750698,93.5923417 L35.9367161,93.6065979 C36.7262931,93.6032148 37.5048014,93.4179769 38.2135045,93.0648601 C38.9543752,92.693646 39.5993268,92.1517159 40.096774,91.4824153 L40.096774,91.4824153 Z" id="Path" fill="url(#linearGradient-25)"></path>
                                <path d="M38.522698,79.5071576 C38.5026217,79.9676854 38.6703673,80.4162803 38.9864882,80.7474521 C39.3254258,81.0995273 39.7946094,81.2909329 40.2794792,81.2749337 L47.2363327,81.2606775 L47.2082242,77.7536377 L40.265425,77.7393814 C39.8141471,77.7096847 39.3726156,77.8815448 39.0567595,78.209838 C38.6970399,78.539936 38.5012282,79.0155936 38.522698,79.5071576 M32.8447812,78.2240943 C32.4949199,77.8922871 32.0306018,77.7131053 31.5517902,77.7251252 L19.4089186,77.7251252 L19.4089186,81.2749337 L31.5517902,81.2749337 C32.0288474,81.3018972 32.4944349,81.1202512 32.8307269,80.7759647 C33.1343074,80.4245063 33.3038161,79.9744147 33.3085714,79.5071576 C33.3227666,79.0348218 33.156615,78.5751678 32.8447812,78.2240943 L32.8447812,78.2240943 Z" id="Shape" fill="#E4EEF2"></path>
                                <path d="M33.2242459,59.7337261 C32.0967696,59.7438436 30.9698956,59.6771644 29.851226,59.5341384 L29.851226,74.2038292 L35.9507703,74.1895729 L36.8221338,74.1753166 L36.8221338,59.5056259 C35.6287103,59.6577965 34.4270609,59.7339791 33.2242459,59.7337261 Z" id="Path" fill="url(#linearGradient-26)"></path>
                                <path d="M19.4510814,74.2038292 L19.4089186,77.7251252 L31.5517902,77.7251252 C32.0306018,77.7131053 32.4949199,77.8922871 32.8447812,78.2240943 C33.1617174,78.5729598 33.3329975,79.0328651 33.3226257,79.5071576 C33.3178703,79.9744147 33.1483616,80.4245063 32.8447812,80.7759647 C32.5084892,81.1202512 32.0429017,81.3018972 31.5658445,81.2749337 L19.4229729,81.2749337 L19.4229729,86.5497496 L22.9084268,86.5497496 L43.7368246,86.5212371 L47.2222785,86.5782622 L47.2363327,81.2606775 L40.2794792,81.2749337 C39.7946094,81.2909329 39.3254258,81.0995273 38.9864882,80.7474521 C38.6703673,80.4162803 38.5026217,79.9676854 38.522698,79.5071576 C38.5012282,79.0155936 38.6970399,78.539936 39.0567595,78.209838 C39.3726156,77.8815448 39.8141471,77.7096847 40.265425,77.7393814 L47.2082242,77.7536377 L47.2363327,74.2038292 L40.5746184,74.2038292 L35.9367161,74.1895729 L29.8371718,74.2038292 L27.2090271,74.1895729 L26.9841591,74.1895729 L19.4510814,74.2038292 Z" id="Path" fill="url(#linearGradient-27)"></path>
                                <path d="M36.7940253,45.9479234 L29.8231175,45.9479234 L29.8371718,59.5341384 C30.9558413,59.6771644 32.0827153,59.7438436 33.2101917,59.7337261 C34.4083174,59.7333849 35.6052545,59.6572035 36.7940253,59.5056259 L36.7940253,45.9479234 M25.3398119,36.467511 C24.7002428,35.7740741 23.8023326,35.3859421 22.866264,35.3982916 C21.9490903,35.3975343 21.0692672,35.7667817 20.4207272,36.4246435 C19.7721873,37.0825053 19.408172,37.9749746 19.4089175,38.9053314 C19.4392266,40.8427501 20.9843,42.403712 22.8943725,42.4266274 L26.3798264,42.4266274 L26.3376637,38.9195876 C26.3650356,37.9952756 26.0019721,37.1030994 25.3398119,36.467511 M33.2101917,7.42751105 C26.0893719,7.44842023 20.0085666,10.0145469 14.9677758,15.125891 C9.92698493,20.2372351 7.42064376,26.391187 7.44851846,33.5877467 C7.44851846,40.810918 9.95977818,46.9743741 14.98183,52.0781149 C18.3192458,55.4501954 22.1185779,57.7169406 26.3798264,58.8783505 L26.3376637,45.9336672 L22.866264,45.9621797 C21.0269043,45.9683303 19.2612421,45.2293334 17.9613309,43.9092784 C16.6377509,42.6058531 15.9051476,40.8047865 15.937519,38.9338439 C15.9180959,37.0514059 16.6596313,35.2430494 17.9894394,33.9298969 C19.2832236,32.5877364 21.0549147,31.8299808 22.9054757,31.8272992 C24.7560366,31.8246175 26.5298548,32.5772352 27.8274141,33.9156406 C29.1476741,35.23894 29.8785953,37.0513175 29.851226,38.9338439 L29.8933888,42.4408837 L36.8642966,42.4408837 L36.8221338,38.9338439 C36.7898912,37.0601665 37.5103267,35.2537753 38.8178373,33.9298969 C40.1187035,32.5887234 41.8960516,31.8336648 43.7508788,31.8342268 C45.597115,31.8290216 47.3647799,32.5915927 48.6417577,33.9441532 C49.9786802,35.2358334 50.726899,37.0325867 50.7077324,38.9053314 C50.6938574,42.7968763 47.587281,45.9481052 43.7508788,45.9621797 L40.2794792,45.9479234 L40.265425,58.849838 C44.4254828,57.6732214 48.149859,55.4207324 51.4385533,52.0923711 C56.4512357,46.9962337 58.9575769,40.8327776 58.9575769,33.6020029 C58.9575769,26.3712283 56.4559204,20.2077722 51.4526076,15.1116348 C46.3930778,10.007894 40.3169572,7.44651939 33.2242459,7.42751105 L33.2101917,7.42751105 Z" id="Shape" fill="url(#linearGradient-32)"></path>
                                <path d="M43.7508788,31.8199441 C41.8940064,31.823165 40.1163645,32.5834856 38.8178373,33.9298969 C37.5000164,35.2489995 36.7691911,37.055991 36.7940253,38.9338439 L36.8361881,42.4408837 L29.8652803,42.4408837 L29.8231175,38.9338439 C29.8504868,37.0513175 29.1195656,35.23894 27.7993056,33.9156406 C26.5027962,32.5860886 24.7350431,31.8391158 22.8914334,31.8417951 C21.0478238,31.8444743 19.2821879,32.596582 17.9894394,33.9298969 C16.6647954,35.2454625 15.9284643,37.0535116 15.9515732,38.9338439 C15.9155258,40.8026631 16.6429153,42.6034168 17.9613309,43.9092784 C19.2612421,45.2293334 21.0269043,45.9683303 22.866264,45.9621797 L26.3376637,45.9336672 L26.3798264,58.8783505 L26.3376637,74.1753166 L26.9841591,74.1895729 L27.2090271,74.1895729 L29.8371718,74.2038292 L29.8371718,59.5341384 L29.8231175,45.9479234 L36.7940253,45.9479234 L36.7940253,59.5056259 L36.7940253,74.1753166 L40.2373165,74.1895729 L40.2513707,58.8355817 L40.265425,45.9336672 L43.7368246,45.9479234 C47.5787142,45.9416734 50.6938174,42.7881658 50.7077324,38.8910751 C50.726899,37.0183305 49.9786802,35.2215772 48.6417577,33.9298969 C47.3647799,32.5773364 45.597115,31.8147653 43.7508788,31.8199441 M41.2632767,36.4247423 C42.2624184,35.41176 43.7649064,35.1093996 45.069606,35.6587574 C46.3743057,36.2081152 47.2240389,37.5009035 47.2222785,38.9338439 C47.2356405,39.8712031 46.8518051,40.7693096 46.1682098,41.4001767 C45.5330299,42.067745 44.6511929,42.4348569 43.7368246,42.4123711 L40.265425,42.4123711 L40.2794792,38.8910751 C40.259755,37.9668327 40.6154937,37.075013 41.2632767,36.4247423 M22.866264,35.3982916 C23.8023326,35.3859421 24.7002428,35.7740741 25.3398119,36.467511 C26.0019721,37.1030994 26.3650356,37.9952756 26.3376637,38.9195876 L26.3798264,42.4266274 L22.8943725,42.4266274 C20.9843,42.403712 19.4392266,40.8427501 19.4089175,38.9053314 C19.408172,37.9749746 19.7721873,37.0825053 20.4207272,36.4246435 C21.0692672,35.7667817 21.9490903,35.3975343 22.866264,35.3982916 L22.866264,35.3982916 Z" id="Shape" fill="url(#linearGradient-29)"></path>
                                <path d="M43.7368246,35.3982916 C42.808152,35.3803774 41.9132971,35.7517163 41.2632767,36.4247423 C40.6154937,37.075013 40.259755,37.9668327 40.2794792,38.8910751 L40.265425,42.4123711 L43.7368246,42.4123711 C44.6511929,42.4348569 45.5330299,42.067745 46.1682098,41.4001767 C46.8518051,40.7693096 47.2356405,39.8712031 47.2222785,38.9338439 C47.2318065,37.9975705 46.8666926,37.0973854 46.2103725,36.4389985 C45.5627491,35.7607339 44.6675868,35.3841083 43.7368246,35.3982916 L43.7368246,35.3982916 Z" id="Path" fill="url(#linearGradient-33)"></path>
                                <path d="M62.9911465,19.5168189 C61.3286395,16.0731039 59.1156344,12.9322913 56.4418662,10.2217378 C51.0365497,4.67660356 43.9260249,1.17083531 36.2880723,0.285125184 C35.8299038,0.219546392 35.3183291,0.165372607 34.7561591,0.128236927 C34.4553982,0.128236927 33.9691212,0.128236927 33.2945172,0.128236927 C32.8064238,0.126775565 32.3185727,0.15056707 31.8328752,0.199587629 C31.1779472,0.256612666 30.6888593,0.285125184 30.3712333,0.285125184 C26.5304257,0.707351211 22.7919454,1.80738323 19.3245931,3.53555228 C15.9375883,5.22224674 12.8466781,7.46177358 10.1752767,10.1647128 C7.51063316,12.865913 5.30690801,15.9974008 3.65410488,19.4312813 C-2.8050528,32.830449 0.0508938563,48.9312878 10.7093382,59.2062445 C12.8350875,61.2506519 14.6915585,63.5650639 16.2326582,66.0920177 C17.7778393,68.561086 18.850617,71.3033433 19.3948644,74.1753166 L26.3376637,74.1753166 L26.3798264,58.8783505 C22.116704,57.7169406 18.3173719,55.4501954 14.98183,52.0781149 C9.95040868,46.9743741 7.43938276,40.810918 7.44875226,33.5877467 C7.45812176,26.3645754 9.96914768,20.2058714 14.98183,15.1116348 C20.020747,10.007894 26.1015523,7.44651939 33.2242459,7.42751105 C40.3169572,7.44842023 46.3930778,10.0145469 51.4526076,15.125891 C56.4559204,20.239136 58.9575769,26.39784 58.9575769,33.6020029 C58.9575769,40.8061659 56.4512357,46.9648699 51.4385533,52.0781149 C48.149859,55.4045754 44.4254828,57.6570643 40.265425,58.8355817 L40.2513707,74.1895729 L40.5746184,74.2038292 L47.2363327,74.2038292 C47.7847012,71.3264265 48.8519653,68.5764178 50.3844846,66.0920177 C51.9410301,63.5719351 53.7959409,61.2546804 55.9078047,59.1919882 C62.0442939,53.336834 65.7613058,45.3373899 66.3079494,36.8096613 C66.4283168,34.7465203 66.3766006,32.6767514 66.1533526,30.6224448 C65.7381897,26.7633591 64.6683635,23.0061437 62.9911465,19.5168189 Z" id="Path" fill="url(#linearGradient-31)"></path>
                            </g>
                        </g>
                    </g>
                </g>
            </g>
        </g>
    </g>
</svg>