<?xml version="1.0" encoding="UTF-8"?>
<svg width="137px" height="40px" viewBox="0 0 137 40" version="1.1" xmlns="http://www.w3.org/2000/svg" xmlns:xlink="http://www.w3.org/1999/xlink">
    <!-- Generator: Sketch 57.1 (83088) - https://sketch.com -->
    <title>Get_it_on_Google_play</title>
    <desc>Created with Sketch.</desc>
    <defs>
        <linearGradient x1="61.2982553%" y1="95.0507787%" x2="25.9433758%" y2="28.0993064%" id="linearGradient-1">
            <stop stop-color="#00A0FF" offset="0%"></stop>
            <stop stop-color="#00A1FF" offset="0.6599999%"></stop>
            <stop stop-color="#00BEFF" offset="26.01%"></stop>
            <stop stop-color="#00D2FF" offset="51.22%"></stop>
            <stop stop-color="#00DFFF" offset="76.04%"></stop>
            <stop stop-color="#00E3FF" offset="100%"></stop>
        </linearGradient>
        <linearGradient x1="107.571126%" y1="49.9957534%" x2="-130.484313%" y2="49.9957534%" id="linearGradient-2">
            <stop stop-color="#FFE000" offset="0%"></stop>
            <stop stop-color="#FFBD00" offset="40.87%"></stop>
            <stop stop-color="#FFA500" offset="77.54%"></stop>
            <stop stop-color="#FF9C00" offset="100%"></stop>
        </linearGradient>
        <linearGradient x1="36.237251%" y1="48.2767368%" x2="-100.135939%" y2="-54.4021189%" id="linearGradient-3">
            <stop stop-color="#FF3A44" offset="0%"></stop>
            <stop stop-color="#C31162" offset="100%"></stop>
        </linearGradient>
        <linearGradient x1="-68.7798646%" y1="130.76971%" x2="-7.88739747%" y2="84.9444136%" id="linearGradient-4">
            <stop stop-color="#32A071" offset="0%"></stop>
            <stop stop-color="#2DA771" offset="6.85%"></stop>
            <stop stop-color="#15CF74" offset="47.62%"></stop>
            <stop stop-color="#06E775" offset="80.09%"></stop>
            <stop stop-color="#00F076" offset="100%"></stop>
        </linearGradient>
    </defs>
    <g id="Page-1" stroke="none" stroke-width="1" fill="none" fill-rule="evenodd">
        <g id="Get_it_on_Google_play" fill-rule="nonzero">
            <path d="M131.51257,39.9940846 L5.05767524,39.9940846 C2.27743271,39.9940846 0,37.7438628 0,34.9955634 L0,4.99970423 C0,2.25140491 2.27743271,0 5.05767524,0 L131.51257,0 C134.292813,0 136.570246,2.25140491 136.570246,4.99970423 L136.570246,34.9955634 C136.570246,37.7438628 134.293996,39.9940846 131.51257,39.9940846 Z" id="Path" fill="#000000"></path>
            <path d="M131.51257,0.800946466 C133.855072,0.800946466 135.759834,2.6844129 135.759834,4.99970423 L135.759834,34.9955634 C135.759834,37.3096717 133.853889,39.1943212 131.51257,39.1943212 L5.05767524,39.1943212 C2.71517303,39.1943212 0.810411121,37.3108548 0.810411121,34.9955634 L0.810411121,4.99970423 C0.810411121,2.68559598 2.71635611,0.800946466 5.05767524,0.800946466 L131.51257,0.800946466 Z M131.51257,-2.27373675e-13 L5.05767524,-2.27373675e-13 C2.27743271,-2.27373675e-13 0,2.25140491 0,4.99970423 L0,34.9955634 C0,37.7438628 2.27743271,39.9952677 5.05767524,39.9952677 L131.51257,39.9952677 C134.292813,39.9952677 136.570246,37.7438628 136.570246,34.9955634 L136.570246,4.99970423 C136.570246,2.25140491 134.293996,-2.27373675e-13 131.51257,-2.27373675e-13 Z" id="Shape" fill="#A6A6A6"></path>
            <g id="Group" transform="translate(41.514345, 6.779059)" fill="#FFFFFF">
                <path d="M3.47116238,6.43478261 C2.58030169,6.43478261 1.81129843,6.12481514 1.18308193,5.51316179 C0.556048506,4.89559302 0.23898255,4.1242236 0.23898255,3.21916593 C0.23898255,2.31292517 0.557231588,1.54273883 1.18308193,0.929902396 C1.80893227,0.315882875 2.5791186,0.00354924579 3.47116238,0.00354924579 C3.90417036,0.00354924579 4.3336291,0.0910973085 4.74770778,0.26382727 C5.15823721,0.436557232 5.48713398,0.669624371 5.72729962,0.954747116 L5.77462289,1.01153505 L5.13220941,1.65276545 L5.07542147,1.58651287 C4.68263827,1.12866016 4.15853298,0.907423839 3.47116238,0.907423839 C2.85714286,0.907423839 2.3176575,1.12274475 1.86808636,1.54865424 C1.42206448,1.97574682 1.19609583,2.53771074 1.19609583,3.21916593 C1.19609583,3.90417036 1.42206448,4.46731736 1.86808636,4.89440994 C2.32238983,5.31913635 2.86305827,5.53445726 3.47116238,5.53445726 C4.12540668,5.53445726 4.67553978,5.31795327 5.10973085,4.88967761 C5.37592428,4.62466726 5.5320911,4.27210884 5.58532978,3.81188997 L3.39071281,3.81188997 L3.39071281,2.92812777 L6.47500739,2.92812777 L6.48920438,2.99083112 C6.52114759,3.13516711 6.53652765,3.28423543 6.53652765,3.46169772 C6.53652765,4.31351671 6.27624963,5.00680272 5.76160899,5.52144336 C5.17361727,6.12718131 4.40343094,6.43478261 3.47116238,6.43478261 L3.47116238,6.43478261 Z" id="Path"></path>
                <polygon id="Path" points="11.1978705 6.2975451 7.49482402 6.2975451 7.49482402 0.141969831 11.1978705 0.141969831 11.1978705 1.03992902 8.43774031 1.03992902 8.43774031 2.77787637 10.9269447 2.77787637 10.9269447 3.66163857 8.43774031 3.66163857 8.43774031 5.39958592 11.1978705 5.39958592"></polygon>
                <polygon id="Path" points="14.4880213 6.2975451 13.545105 6.2975451 13.545105 1.03992902 11.8509317 1.03992902 11.8509317 0.141969831 16.1821946 0.141969831 16.1821946 1.03992902 14.4880213 1.03992902"></polygon>
                <polygon id="Path" points="19.9798876 6.2975451 19.0381544 6.2975451 19.0381544 0.141969831 19.9798876 0.141969831"></polygon>
                <polygon id="Path" points="23.4392192 6.2975451 22.5022183 6.2975451 22.5022183 1.03992902 20.8021295 1.03992902 20.8021295 0.141969831 25.1381248 0.141969831 25.1381248 1.03992902 23.4380361 1.03992902 23.4380361 6.2975451"></polygon>
                <path d="M30.7281869,6.43478261 C29.8219462,6.43478261 29.0529429,6.1212659 28.4424726,5.50251405 C27.8331854,4.88494528 27.5244011,4.11712511 27.5244011,3.22034901 C27.5244011,2.32357291 27.8331854,1.55456965 28.4424726,0.938183969 C29.0529429,0.319432121 29.8219462,0.00591540964 30.7281869,0.00591540964 C31.6285123,0.00591540964 32.3939663,0.321798285 33.0044366,0.944099379 C33.6160899,1.56403431 33.9272405,2.3306714 33.9272405,3.22153209 C33.9272405,4.11830819 33.6184561,4.88612836 33.0091689,5.50369713 C32.3986986,6.1212659 31.6308784,6.43478261 30.7281869,6.43478261 L30.7281869,6.43478261 Z M29.1345756,4.88612836 C29.573499,5.32386868 30.094055,5.53564034 30.7281869,5.53564034 C31.3552203,5.53564034 31.8887903,5.31677019 32.3158829,4.88612836 C32.7500739,4.45312038 32.9689441,3.89233954 32.9689441,3.21916593 C32.9689441,2.54599231 32.7488909,1.98521148 32.3158829,1.55220349 C31.8876072,1.12037859 31.3540373,0.902691511 30.7281869,0.902691511 C30.0952381,0.902691511 29.573499,1.11564626 29.1345756,1.55220349 C28.7015676,1.98521148 28.4826927,2.54599231 28.4826927,3.21916593 C28.4815143,3.89233954 28.7015676,4.45312038 29.1345756,4.88612836 Z" id="Shape"></path>
                <polygon id="Path" points="39.6994972 6.2975451 38.7601301 6.2975451 38.7364685 6.25968648 35.7704821 1.56048506 35.797693 2.47973972 35.797693 6.2975451 34.8606921 6.2975451 34.8606921 0.141969831 35.9337474 0.141969831 38.7849749 4.64951198 38.757764 3.73498965 38.757764 0.141969831 39.6994972 0.141969831"></polygon>
                <path d="M27.4131914,14.9707187 C25.0375629,14.9707187 23.0961254,16.7583555 23.0961254,19.2238983 C23.0961254,21.6693286 25.0375629,23.4758947 27.4131914,23.4758947 C29.7947353,23.4758947 31.7349902,21.6693286 31.7349902,19.2238983 C31.7361727,16.7583555 29.7947353,14.9707187 27.4131914,14.9707187 Z M27.4131914,21.8006507 C26.1094351,21.8006507 24.9878734,20.73706 24.9878734,19.2238983 C24.9878734,17.6906241 26.1094351,16.6459627 27.4131914,16.6459627 C28.7169476,16.6459627 29.8432426,17.6906241 29.8432426,19.2238983 C29.8444247,20.73706 28.7169476,21.8006507 27.4131914,21.8006507 Z M17.993493,14.9707187 C15.6119491,14.9707187 13.6764271,16.7583555 13.6764271,19.2238983 C13.6764271,21.6693286 15.6119491,23.4758947 17.993493,23.4758947 C20.3738539,23.4758947 22.310559,21.6693286 22.310559,19.2238983 C22.310559,16.7583555 20.3738539,14.9707187 17.993493,14.9707187 L17.993493,14.9707187 Z M17.993493,21.8006507 C16.6885537,21.8006507 15.5634428,20.73706 15.5634428,19.2238983 C15.5634428,17.6906241 16.6885537,16.6459627 17.993493,16.6459627 C19.2972493,16.6459627 20.418811,17.6906241 20.418811,19.2238983 C20.418811,20.73706 19.2972493,21.8006507 17.993493,21.8006507 Z M6.78497486,16.274475 L6.78497486,18.0822242 L11.1517303,18.0822242 C11.0239574,19.0925762 10.6820467,19.8343685 10.1591245,20.3513753 C9.52144336,20.9760426 8.52883762,21.6705117 6.78497486,21.6705117 C4.0981958,21.6705117 1.99349305,19.5267672 1.99349305,16.8707483 C1.99349305,14.2147294 4.0981958,12.0709849 6.78497486,12.0709849 C8.23779947,12.0709849 9.29547471,12.6317657 10.0751257,13.3593611 L11.3635019,12.086365 C10.2727004,11.0570837 8.82105886,10.2656019 6.78497486,10.2656019 C3.09967465,10.2656019 0.00354924579,13.2292221 0.00354924579,16.8707483 C0.00354924579,20.5122745 3.10085773,23.4758947 6.78497486,23.4758947 C8.77610175,23.4758947 10.2727004,22.8311151 11.4486838,21.6208222 C12.6542443,20.4294587 13.0292813,18.7553978 13.0292813,17.4031352 C13.0292813,16.9831411 12.9937888,16.5974564 12.9310855,16.274475 L6.78497486,16.274475 Z M52.6199349,17.675244 C52.2650104,16.7240461 51.1682934,14.9707187 48.9346347,14.9707187 C46.7210884,14.9707187 44.8790299,16.6944691 44.8790299,19.2238983 C44.8790299,21.6066253 46.7021591,23.4758947 49.1464064,23.4758947 C51.1233363,23.4758947 52.2638273,22.2845312 52.7323277,21.5912452 L51.2653061,20.6246673 C50.7755102,21.3321503 50.1094351,21.8006507 49.1464064,21.8006507 C48.1892931,21.8006507 47.5019225,21.3664596 47.0629991,20.5122745 L52.8175149,18.1591245 C52.8186927,18.1591245 52.6199349,17.675244 52.6199349,17.675244 L52.6199349,17.675244 Z M46.7518486,19.0913931 C46.7021591,17.4516415 48.0402248,16.6116534 48.9985211,16.6116534 C49.7497782,16.6116534 50.3874593,16.9831411 50.5992313,17.5143449 C50.6004141,17.5143449 46.7518486,19.0913931 46.7518486,19.0913931 L46.7518486,19.0913931 Z M42.0751257,23.2167998 L43.9668737,23.2167998 L43.9668737,10.7187223 L42.0751257,10.7187223 L42.0751257,23.2167998 Z M38.9766341,15.9183673 L38.9139308,15.9183673 C38.4892044,15.4214729 37.6787933,14.9707187 36.6518781,14.9707187 C34.497486,14.9707187 32.5264715,16.8399882 32.5264715,19.2380952 C32.5264715,21.6220053 34.4963029,23.4758947 36.6518781,23.4758947 C37.6787933,23.4758947 38.4892044,23.0227743 38.9139308,22.5093168 L38.9766341,22.5093168 L38.9766341,23.119787 C38.9766341,24.7453416 38.0976043,25.6196392 36.6802721,25.6196392 C35.5244011,25.6196392 34.8074534,24.7950311 34.5116829,24.100562 L32.866016,24.779651 C33.3404318,25.9071281 34.5956818,27.2948832 36.6802721,27.2948832 C38.8985507,27.2948832 40.7701863,26.0053239 40.7701863,22.8666075 L40.7701863,15.2298137 L38.9766341,15.2298137 L38.9766341,15.9183673 Z M36.8127773,21.8006507 C35.509021,21.8006507 34.4182195,20.72168 34.4182195,19.2369122 C34.4182195,17.7379474 35.509021,16.6447797 36.8127773,16.6447797 C38.0976043,16.6447797 39.1103224,17.7379474 39.1103224,19.2369122 C39.1103224,20.7228631 38.0976043,21.8006507 36.8127773,21.8006507 Z M61.4764862,10.7187223 L56.952381,10.7187223 L56.952381,23.2167998 L58.8393966,23.2167998 L58.8393966,18.4809228 L61.4776693,18.4809228 C63.5729074,18.4809228 65.6279207,16.981958 65.6279207,14.599231 C65.6267377,12.2176871 63.566992,10.7187223 61.4764862,10.7187223 Z M61.5261757,16.7429755 L58.8393966,16.7429755 L58.8393966,12.4578527 L61.5261757,12.4578527 C62.9352263,12.4578527 63.7385389,13.6137238 63.7385389,14.6004141 C63.7385389,15.566992 62.9340432,16.7429755 61.5261757,16.7429755 L61.5261757,16.7429755 Z M73.1889973,14.9470571 C71.826087,14.9470571 70.4087548,15.5421473 69.8254954,16.8601006 L71.4995563,17.5533866 C71.8603963,16.8601006 72.5229222,16.635315 73.2233067,16.635315 C74.2017155,16.635315 75.1943212,17.2162082 75.2097013,18.2431233 L75.2097013,18.3744454 C74.8677906,18.1792369 74.137829,17.8905649 73.2386868,17.8905649 C71.4356699,17.8905649 69.5983437,18.8713398 69.5983437,20.7027507 C69.5983437,22.3779947 71.0748299,23.4557823 72.735877,23.4557823 C74.0053239,23.4557823 74.7057084,22.8890861 75.1458148,22.2312925 L75.2108844,22.2312925 L75.2108844,23.1978705 L77.0328305,23.1978705 L77.0328305,18.4040225 C77.0316474,16.1869269 75.3575865,14.9470571 73.1889973,14.9470571 L73.1889973,14.9470571 Z M72.9606625,21.7959184 C72.3430938,21.7959184 71.4841763,21.4930494 71.4841763,20.73706 C71.4841763,19.769299 72.5560485,19.3989944 73.4847678,19.3989944 C74.3152913,19.3989944 74.7045253,19.5800059 75.2097013,19.8189885 C75.061816,20.9760426 74.0538302,21.7959184 72.9606625,21.7959184 Z M83.6711032,15.220349 L81.502514,20.6388642 L81.4374445,20.6388642 L79.1955043,15.220349 L77.1606034,15.220349 L80.5288376,22.7920734 L78.6063295,27.0050281 L80.577344,27.0050281 L85.7687075,15.220349 L83.6711032,15.220349 Z M66.6643005,23.2167998 L68.5560485,23.2167998 L68.5560485,10.7187223 L66.6643005,10.7187223 L66.6643005,23.2167998 Z" id="Shape"></path>
            </g>
            <path d="M10.55664,7.53741497 C10.2596865,7.84501627 10.0869565,8.32298137 10.0869565,8.9429163 L10.0869565,31.0547175 C10.0869565,31.6746525 10.2585034,32.1538007 10.55664,32.4602189 L10.6299911,32.5276545 L23.1671103,20.1419698 L23.1671103,19.8497486 L10.6299911,7.46524697 L10.55664,7.53741497 Z" id="Path" fill="url(#linearGradient-1)"></path>
            <path d="M27.3410234,24.274475 L23.1671103,20.144336 L23.1671103,19.8521148 L27.3469388,15.7219757 L27.4404022,15.7752144 L32.390417,18.5590062 C33.8030169,19.3493049 33.8030169,20.6483289 32.390417,21.44336 L27.4404022,24.2212363 C27.4392192,24.2200532 27.3410234,24.274475 27.3410234,24.274475 Z" id="Path" fill="url(#linearGradient-2)"></path>
            <path d="M27.4392192,24.2200532 L23.1659272,19.9964508 L10.55664,32.461402 C11.0263236,32.9488317 11.7905945,33.0079858 12.6613428,32.520556 L27.4392192,24.2200532 Z" id="Path" fill="url(#linearGradient-3)"></path>
            <path d="M27.4392192,15.7740314 L12.6601597,7.47352854 C11.7905945,6.99083112 11.0251405,7.04998521 10.555457,7.53741497 L23.1659272,19.9964508 L27.4392192,15.7740314 Z" id="Path" fill="url(#linearGradient-4)"></path>
        </g>
    </g>
</svg>