<svg enable-background="new 0 0 7.9 7.9" viewBox="0 0 7.9 7.9" xmlns="http://www.w3.org/2000/svg"><path clip-rule="evenodd" d="m5.4 4.2s.1-.1.1-.1c.4-.5.6-1.1.6-1.7s-.2-1.2-.6-1.6c-.4-.5-.9-.8-1.5-.8s-1.2.3-1.6.8c-.4.4-.6 1-.6 1.6s.2 1.2.6 1.7c0 0 .1.1.1.1-.3 0-.6.2-.8.3-.5.3-.9.7-1.2 1.2-.2.4-.4.8-.4 1.2-.1.2-.1.3-.1.4v.1.1c0 .2.2.4.4.4h7c.2 0 .4-.2.4-.4 0 0 0 0 0-.1v-.1c0-.1 0-.3-.1-.4.1-.4-.1-.8-.3-1.2-.3-.5-.7-.9-1.2-1.2-.2-.1-.5-.3-.8-.3zm-1.5.6c.8 0 1.4.2 1.8.4s.7.5.9.9c.2.3.3.6.4.9h-6c0-.3.1-.6.3-.8.2-.4.5-.7.9-.9.4-.3 1-.5 1.7-.5zm0-.8c-.3 0-.6-.2-.9-.5-.2-.3-.4-.7-.4-1.1s.2-.7.4-1c.3-.4.6-.5 1-.5.3 0 .7.2.9.5s.4.6.4 1-.2.8-.4 1.1c-.3.3-.6.5-1 .5.1 0 .1 0 0 0z" fill="#969da2" fill-rule="evenodd"/></svg>