<svg height="60" viewBox="0 0 60 60" width="60" xmlns="http://www.w3.org/2000/svg"><g fill="#6791c7" fill-rule="evenodd"><circle cx="30" cy="30" fill-opacity=".2" r="30"/><g fill-rule="nonzero"><path d="m35.5555581 23.3488633 1.2478557-4.6570611c.1333801-.4977813.6450845-.7931743 1.1429887-.6597613l1.802905.483087c.497875.1334052.7933066.6452695.6599765 1.1428643l-1.2478558 4.6570611c1.5697698.7161702 2.9145374 1.769319 3.9692334 3.0467421l4.1761819-2.4111197c.4462985-.2576706 1.0170024-.1047154 1.2747366.3416933l.9332523 1.6164405c.257719.4463825.1046781 1.0172269-.3414531 1.2748009l-4.176182 2.4111198c.5789329 1.5521049.8186027 3.2432823.6539394 4.9608279l4.6570611 1.2478557c.4977814.1333801.7931743.6450845.6597613 1.1429887l-.4830869 1.802905c-.1334052.497875-.6452696.7933066-1.1428643.6599765l-4.6570612-1.2478558c-.7161702 1.5697698-1.769319 2.9145374-3.046742 3.9692334l2.4111197 4.1761819c.2576706.4462985.1047153 1.0170024-.3416933 1.2747366l-1.6164406.9332523c-.4463826.257719-1.0172269.1046781-1.2748009-.3414531l-2.4111197-4.176182c-1.552105.5789329-3.2432824.8186027-4.960828.6539394l-1.2478557 4.6570611c-.1333801.4977814-.6450844.7931743-1.1429886.6597613l-1.802905-.4830869c-.4978751-.1334052-.7933067-.6452696-.6599766-1.1428643l1.2478558-4.6570612c-1.5697697-.7161702-2.9145375-1.769319-3.9692333-3.046742l-4.1761819 2.4111197c-.4462985.2576706-1.0170024.1047153-1.2747367-.3416933l-.9332523-1.6164406c-.2577191-.4463826-.1046781-1.0172269.3414532-1.2748009l4.1761819-2.4111197c-.5789329-1.552105-.8186026-3.2432824-.6539394-4.960828l-4.6570611-1.2478557c-.4977813-.1333801-.7931743-.6450844-.6597613-1.1429886l.483087-1.802905c.1334052-.4978751.6452695-.7933067 1.1428643-.6599766l4.6570611 1.2478558c.7161702-1.5697697 1.769319-2.9145375 3.0467421-3.9692333l-2.4111197-4.1761819c-.2576706-.4462985-.1047154-1.0170024.3416933-1.2747367l1.6164405-.9332523c.4463825-.2577191 1.0172269-.1046781 1.2748009.3414532l2.4111198 4.1761819c1.5521049-.5789329 3.2432823-.8186026 4.9608279-.6539394zm-2.9879381 18.362877c3.9829342 1.0672239 8.0768963-1.2964261 9.1441203-5.2793604 1.0672239-3.9829341-1.2964261-8.0768962-5.2793604-9.1441201-3.9829341-1.067224-8.0768962 1.2964261-9.1441201 5.2793602-1.067224 3.9829342 1.2964261 8.0768963 5.2793602 9.1441203z"/><path d="m18.9341439 14.536147.7562762-2.8224613c.0808364-.3016856.3909602-.4807116.6927204-.3998552l1.0926697.2927799c.3017424.0808517.4807919.3910724.3999857.692645l-.7562762 2.8224613c.9513756.4340426 1.7663863 1.0723146 2.405596 1.8465104l2.5310194-1.4612847c.2704838-.156164.6163651-.0634639.7725676.2070869l.5656074.9796609c.1561934.2705348.0634413.6165011-.2069413.7726066l-2.5310194 1.4612847c.3508685.9406697.4961229 1.9656257.396327 3.0065624l2.8224612.7562762c.3016857.0808364.4807117.3909602.3998554.6927204l-.29278 1.0926697c-.0808516.3017424-.3910724.4807919-.692645.3999857l-2.8224614-.7562762c-.4340425.9513756-1.0723145 1.7663863-1.8465103 2.405596l1.4612847 2.5310194c.156164.2704838.0634639.6163651-.2070868.7725676l-.979661.5656074c-.2705349.1561934-.6165012.0634413-.7726066-.2069413l-1.4612847-2.5310194c-.9406696.3508685-1.9656256.4961229-3.0065624.396327l-.7562762 2.8224612c-.0808364.3016857-.3909602.4807117-.6927203.3998554l-1.0926698-.29278c-.3017424-.0808516-.4807919-.3910724-.3999857-.692645l.7562762-2.8224614c-.9513756-.4340425-1.7663863-1.0723145-2.405596-1.8465103l-2.5310193 1.4612847c-.2704839.156164-.6163651.0634639-.77256765-.2070868l-.56560746-.979661c-.15619339-.2705349-.06344126-.6165012.20694135-.7726066l2.53101936-1.4612847c-.3508685-.9406696-.4961229-1.9656256-.396327-3.0065624l-2.82246125-.7562762c-.30168563-.0808364-.48071169-.3909602-.3998553-.6927203l.29277997-1.0926698c.08085165-.3017424.39107241-.4807919.69264502-.3999857l2.82246126.7562762c.4340426-.9513756 1.0723146-1.7663863 1.8465104-2.405596l-1.4612847-2.5310193c-.156164-.2704839-.0634639-.6163651.2070869-.7725676l.9796609-.5656075c.2705348-.1561934.6165011-.0634413.7726066.2069413l1.4612847 2.5310194c.9406697-.3508685 1.9656257-.4961229 3.0065624-.396327zm-1.8108716 11.1290164c2.4138995.6468024 4.8950886-.7857128 5.5418911-3.1996123.6468024-2.4138995-.7857128-4.8950887-3.1996123-5.5418911s-4.8950887.7857128-5.5418911 3.1996123.7857128 4.8950886 3.1996123 5.5418911z" transform="matrix(.99026807 -.1391731 .1391731 .99026807 -2.785569 2.753326)"/></g></g></svg>