<svg height="110" viewBox="0 0 586 220" width="293" xmlns="http://www.w3.org/2000/svg" xmlns:xlink="http://www.w3.org/1999/xlink"><defs><rect id="a" height="104" rx="10.809483" width="152"/><mask id="b" fill="#fff"><use fill="#fff" fill-rule="evenodd" xlink:href="#a"/></mask></defs><g fill="none" fill-rule="evenodd"><path d="m0 .864v49.68h19.584c4.752 0 9-1.008 12.168-3.528 2.808-2.232 4.824-5.76 4.824-11.16 0-6.192-2.592-10.296-9.072-11.448 5.616-1.512 8.136-6.048 8.136-11.592 0-4.32-1.512-7.2-4.032-9.072-2.592-2.016-6.408-2.88-10.8-2.88zm11.304 28.944h7.344c3.888 0 5.832 1.08 5.832 5.4 0 2.376-.576 3.888-1.584 4.824s-2.592 1.296-4.68 1.296h-6.912zm0-19.656h7.416c1.584 0 2.88.216 3.6.864s1.224 1.8 1.224 3.888c0 5.04-2.88 6.264-6.912 6.264h-5.328zm33.192-9.288v32.184c0 4.608.576 9.288 3.528 12.816 2.664 3.168 7.488 5.544 15.552 5.544 8.28 0 13.608-2.592 16.488-6.264 2.664-3.384 3.312-7.776 3.312-12.456v-31.824h-11.664v31.968c0 5.616-.648 8.496-7.704 8.496-7.416 0-7.848-3.168-7.848-8.496v-31.968zm79.416 3.456c-3.816-3.168-10.224-4.32-14.976-4.32-4.968 0-9.36 1.224-12.96 3.888-3.312 2.448-5.616 5.832-5.616 11.088 0 17.712 22.824 12.816 22.824 21.384 0 4.32-2.808 5.184-6.192 5.184-3.744 0-8.568-1.08-11.808-3.672l-5.76 8.568c4.032 3.672 11.16 4.968 16.416 4.968 4.824 0 9.504-1.152 12.888-3.456 3.528-2.376 6.264-6.408 6.264-12.168 0-18-22.824-13.536-22.824-21.096 0-3.888 2.304-4.824 5.832-4.824 3.024 0 7.416.792 10.44 2.88zm7.992-3.456v49.68h11.664v-49.68zm21.528 0v49.68h11.16l-.36-33.912 15.84 33.912h14.76v-49.68h-11.16l.36 33.912-15.84-33.912zm51.336 0v49.68h30.096v-9.648h-18.72v-10.656h16.704v-9.72h-16.704v-9.936h18.36v-9.72zm68.616 3.456c-3.816-3.168-10.224-4.32-14.976-4.32-4.968 0-9.36 1.224-12.96 3.888-3.312 2.448-5.616 5.832-5.616 11.088 0 17.712 22.824 12.816 22.824 21.384 0 4.32-2.808 5.184-6.192 5.184-3.744 0-8.568-1.08-11.808-3.672l-5.76 8.568c4.032 3.672 11.16 4.968 16.416 4.968 4.824 0 9.504-1.152 12.888-3.456 3.528-2.376 6.264-6.408 6.264-12.168 0-18-22.824-13.536-22.824-21.096 0-3.888 2.304-4.824 5.832-4.824 3.024 0 7.416.792 10.44 2.88zm37.512 0c-3.816-3.168-10.224-4.32-14.976-4.32-4.968 0-9.36 1.224-12.96 3.888-3.312 2.448-5.616 5.832-5.616 11.088 0 17.712 22.824 12.816 22.824 21.384 0 4.32-2.808 5.184-6.192 5.184-3.744 0-8.568-1.08-11.808-3.672l-5.76 8.568c4.032 3.672 11.16 4.968 16.416 4.968 4.824 0 9.504-1.152 12.888-3.456 3.528-2.376 6.264-6.408 6.264-12.168 0-18-22.824-13.536-22.824-21.096 0-3.888 2.304-4.824 5.832-4.824 3.024 0 7.416.792 10.44 2.88zm49.536 32.112c-2.736 3.096-6.12 4.968-9.936 4.968-2.808 0-4.392-1.008-5.4-2.376-1.512-2.016-2.16-5.4-2.16-12.96 0-7.704.648-11.16 1.872-13.104 1.008-1.584 2.88-2.808 6.48-2.808 3.168 0 6.48.936 9 3.312l6.336-7.992c-3.96-4.248-9.648-5.472-14.976-5.472-7.128 0-11.808 2.16-14.904 5.472-4.68 4.896-5.904 12.528-5.904 20.808 0 7.56 1.008 15.336 5.76 20.16 2.808 2.952 7.056 4.968 13.464 4.968 7.2 0 12.744-2.52 17.208-7.776zm13.104-35.568v49.68h28.728v-10.368h-17.064v-39.312zm75.384 49.68-15.624-49.68h-13.968l-15.624 49.68h11.88l2.664-9.432h15.768l2.664 9.432zm-17.352-18.72h-10.8l5.4-19.224zm52.704-27.504c-3.816-3.168-10.224-4.32-14.976-4.32-4.968 0-9.36 1.224-12.96 3.888-3.312 2.448-5.616 5.832-5.616 11.088 0 17.712 22.824 12.816 22.824 21.384 0 4.32-2.808 5.184-6.192 5.184-3.744 0-8.568-1.08-11.808-3.672l-5.76 8.568c4.032 3.672 11.16 4.968 16.416 4.968 4.824 0 9.504-1.152 12.888-3.456 3.528-2.376 6.264-6.408 6.264-12.168 0-18-22.824-13.536-22.824-21.096 0-3.888 2.304-4.824 5.832-4.824 3.024 0 7.416.792 10.44 2.88zm37.512 0c-3.816-3.168-10.224-4.32-14.976-4.32-4.968 0-9.36 1.224-12.96 3.888-3.312 2.448-5.616 5.832-5.616 11.088 0 17.712 22.824 12.816 22.824 21.384 0 4.32-2.808 5.184-6.192 5.184-3.744 0-8.568-1.08-11.808-3.672l-5.76 8.568c4.032 3.672 11.16 4.968 16.416 4.968 4.824 0 9.504-1.152 12.888-3.456 3.528-2.376 6.264-6.408 6.264-12.168 0-18-22.824-13.536-22.824-21.096 0-3.888 2.304-4.824 5.832-4.824 3.024 0 7.416.792 10.44 2.88z" fill="#fff" transform="translate(32.823529 166.888889)"/><path d="m264.649448 107.082074c-7.12957 3.723832-13.050877 13.645206-21.798792 19.425279-.574967.379902-1.149934.569853-1.533245.569853-.766622 0-1.7249-.759804-1.7249-4.178922 0-11.77696 3.833112-17.47549 7.091257-25.833333 11.307681-29.0625 30.664898-53.9460785 47.913903-81.1090686 1.341589-2.0894608 2.108211-4.3688726 2.108211-6.83823534 0-2.08946079-.766622-3.79901961-1.7249-5.88848039-.766623-1.70955883-4.216424-3.22916667-8.049536-3.22916667-2.108211 0-4.024768.18995098-6.51629.18995098-9.007814 0-10.92437 13.10661762-13.032582 16.52573532-14.374171 24.1237745-30.856553 53.9460784-39.2894 75.0306372-1.807586 4.620207-3.756846 9.2404135-5.261732 13.9767875-9.119466 1.309103-15.512806 13.945392-25.863139 20.784242-.574967.379902-1.149934.569853-1.533245.569853-.766622 0-1.7249-.759804-1.7249-4.178922 0-11.77696 3.833112-17.47549 7.091257-25.833333 11.307681-29.0625 30.664898-53.9460785 47.913903-81.1090686 1.341589-2.0894608 2.108211-4.3688726 2.108211-6.83823534 0-2.08946079-.766622-3.79901961-1.7249-5.88848039-.766623-1.70955883-4.216423-3.22916667-8.049536-3.22916667-2.108211 0-4.024767.18995098-6.51629.18995098-9.007814 0-10.92437 13.10661762-13.032582 16.52573532-14.374171 24.1237745-30.856553 53.9460784-39.2894 75.0306372-1.06328 2.7177545-2.175582 5.4355089-3.217622 8.1769078-9.138606 5.8698407-17.152807 15.3097497-28.437218 21.8355077-2.309583 1.341812-9.430799 6.325687-15.204758 6.325687-1.347257 0-2.502049-.383375-3.656841-.958438-1.732188-.76675-3.464375-4.408812-3.464375-5.558936 0-.958438.192465-1.150125 2.117118-2.30025 16.936946-10.159436 30.794448-24.7276842 42.727297-39.2959323 4.426702-5.3672492 10.200661-15.9100603 10.200661-23.5775593 0-4.9838743-1.732188-10.7344985-7.698612-12.8430607-4.234237-1.5334998-9.04587-2.3002497-12.895176-2.3002497-10.20066 0-17.706807 4.6004994-21.941044 9.0093113-3.983053 4.2349933-7.845683 8.5749301-11.465812 13.0533518-4.040361-3.1210235-9.503535-4.4584211-14.696008-4.4584211-6.419504 0-18.4803918 7.8808146-24.705366 12.4939744-.9726522.76886-1.5562435 1.15329-1.9453044 1.15329-.1945305 0-.3890609-.192215-.3890609-.576645 0-.192215.3890609-1.9221499.3890609-4.9975898 0-2.6910099-.5835914-6.1508797-3.1124871-10.3796095-.5835914-.961075-4.0851393-3.0754399-8.3648091-3.0754399-5.252322 0-10.1155831 2.4987949-10.1155831 5.1898048 0 1.9221499 1.750774 2.6910099 1.750774 4.4209448 0 .961075-.7781218 5.3820198-1.9453044 9.6107496-3.3070176 12.3017594-7.3921569 24.4113039-11.6718266 36.5208486-2.3343654 6.727524-10.1155831 12.686189-10.1155831 19.990359 0 2.30658 1.5562435 5.38202 3.6960784 7.6886 3.501548 3.844299 5.6413829 5.189804 8.75387 5.189804 1.3617131 0 2.9179566-.38443 4.2796697-1.53772 2.9179567-2.498794 4.4742002-4.997589 5.252322-8.457459 5.0577916-22.681369 19.6475748-38.0585686 35.7936017-48.2459631 5.446852-3.4598699 12.839009-7.1119547 13.811661-7.1119547.802735 0 1.969844.2945766 3.214278.6406145-4.69754 7.4947648-8.500054 15.4111297-10.940807 23.8773283-.769861 2.683625-1.154791 5.175562-1.154791 7.859187 0 4.408812.962326 9.009311 2.502048 13.418123 2.117119 6.133999 5.581494 11.501248 10.393127 13.993186 8.853404 4.600499 15.204758 7.092436 20.978717 7.092436 3.271911 0 5.773959-.575062 8.468474-2.108562 12.034287-6.781356 19.639224-12.00573 25.17278-16.633846.431203 3.289354 1.598135 5.583253 4.378706 8.476885 3.449801 3.609069 8.816158 6.838236 15.907415 8.357843 1.149934.189951 2.299868.379902 3.449801.379902 8.552696 0 16.766131-7.262826 22.904304-14.065953.684663 1.815259 1.810899 3.444681 3.620833 5.328208 3.449801 3.609069 8.816158 6.838236 15.907415 8.357843 1.149934.189951 2.299868.379902 3.449801.379902 9.140717 0 17.893921-8.295837 24.14036-15.460126 2.441358 3.93187 7.921466 7.771536 14.417395 10.895053 1.911765.943449 4.205882 1.509518 6.308824 1.509518 8.220588 0 14.147058-6.604139 18.735294-11.510071 11.852941-12.830899 18.352941-28.6808323 23.323529-48.681939.382353-1.5095174.955882-2.0755865 1.720588-2.0755865 1.911765 0 4.397059 0 7.07353-.3773794 5.161764-.7547587 9.17647-2.4529659 13.955882-3.2077246 2.867647-.5660691 2.485294-1.5095175 5.161765-2.4529659 1.911764-.7547588 3.441176-1.5095175 3.441176-3.3964144 0-3.2077246-5.92647-6.604139-14.911764-6.604139-7.07353 0-11.279412.5660691-14.147059.5660691-4.397059 0-5.544118-1.3208278-8.411765-8.6797256 0 0 2.867647 7.3588978 0 0-.573529-1.5095175-1.147059-2.2642762-2.867647-3.7737937-4.014706-3.3964143-8.985294-4.5285524-13-4.5285524-9.558824 0-17.779412 9.6231739-23.514706 17.7368304-1.338235 1.8868969-3.25 3.3964144-4.588235 5.4720009-7.984262 11.8206064-15.624048 25.1711937-16.379964 39.5676871zm-236.0122304-65.8673847c.584433 0 .974055.1906779.974055.7627118 0 .381356-.194811.9533899-1.558488 3.8135594-11.8834712 24.9788135-20.06553343 50.338983-27.27354058 78.3686445-.19481101.762711-.77924402 3.622881-.77924402 6.48305 0 2.669492.77924402 5.529661 3.50659808 7.055085 5.25989711 3.050848 9.54573922 4.385593 12.46790422 4.385593 4.2858421 0 6.4287632-2.669491 6.4287632-7.055084 0-3.81356.194811-7.817797.779244-10.868644 5.4547081-28.0296615 13.6367703-49.9576276 26.2994856-72.8389835 6.0391411-10.8686441 6.8183851-11.440678 6.8183851-12.3940678 0-.381356-.194811-.9533899-.584433-1.5254238 7.7924402-1.7161017 17.1433684-2.8601694 25.7150526-2.8601694.974055 0 4.8702751 1.3347457 5.4547081 1.9067796 1.363677 1.3347458 2.7273541 2.6694915 5.0650861 2.6694915 1.94811 0 5.2598971-1.3347457 6.4287631-2.0974576 2.7273539-1.9067796 4.0910309-4.0042373 4.0910309-7.4364407 0-3.2415254-12.273093-11.25-20.8447772-11.25-10.5197942 0-20.0655335 1.3347458-29.0268397 3.0508475-3.89622.7627119-17.9226123 2.8601695-28.0527846 2.8601695-9.7405502 0-9.1561172-1.3347458-13.2471483-1.3347458-2.337732 0-3.50659803 1.1440678-4.48065305 2.0974576-.97405502.9533899-1.55848804 4.7669492-1.55848804 8.1991526 0 1.7161017 0 3.0508474.97405503 4.1949152 2.92216506 3.4322034 8.57168416 4.1949153 14.22120326 4.1949153 4.8702752 0 7.5976292-.3813559 8.1820622-.3813559zm133.4804294 14.9527635c0 1.7511793-.570136 2.9186321-2.850679 6.6155661-2.280543 3.6969339-1.330316 3.6969339-4.180995 7.5884434-5.511312 7.5884434-12.352941 15.1768868-21.285068 23.543632-2.470588 2.3349057-2.850679 2.3349057-3.230769 2.3349057-.190046 0-.570136-.1945755-.570136-.5837264 0-.5837264.190045-1.3620283 2.090498-5.4481132 5.891402-12.6474057 13.113122-21.014151 21.095022-29.1863208 4.371041-4.4752358 7.031675-6.0318396 7.981901-6.0318396.570136 0 .950226.1945755.950226 1.1674528zm149.981025 4.9436583c.197343 0 .394687.1861979.59203.5585938.197344.5585937.59203 1.1171875 1.578748 1.8619791.789374.5585938.789374 3.1653646.789374 5.2135417 0 18.0611979-10.85389 32.9570313-21.510437 48.0390623-2.368121 3.351563-3.749526 3.910156-4.933586 3.910156-.986718 0-2.565465-2.420572-3.157495-3.910156-.789374-2.048177-.986718-4.46875-.986718-5.399739 0-14.5234379 14.603416-36.1223962 24.273245-48.0390629 1.578748-2.0481771 2.762808-2.234375 3.354839-2.234375z" fill="#fff" transform="translate(220.529412)"/><g transform="translate(37 14)"><path d="m58.1599618 0c-6.7157615 0-12.1599618 5.43620668-12.1599618 12.164237v15.671526c0 6.7181226 5.4437114 12.164237 12.1599618 12.164237h35.6800764c6.7157618 0 12.1599618-5.4362067 12.1599618-12.164237v-15.671526c0-6.7181226-5.443711-12.164237-12.1599618-12.164237zm1.8955782 10c-2.2398129 0-4.05554 1.8101409-4.05554 4.0472984v11.9054032c0 2.2352612 1.8226576 4.0472984 4.05554 4.0472984h31.88892c2.2398129 0 4.05554-1.8101409 4.05554-4.0472984v-11.9054032c0-2.2352612-1.8226576-4.0472984-4.05554-4.0472984z" fill="#d2d7e4"/><g transform="translate(0 20)"><use fill="#d2d7e4" xlink:href="#a"/><path d="m17 0h118v104h-118z" fill="#fff" mask="url(#b)"/><path d="m24 0h104v104h-104z" fill="#8390b4" mask="url(#b)"/><g fill="#fff" mask="url(#b)"><g transform="translate(37 13)"><rect height="72" rx="5" width="33"/><rect height="43" rx="5" width="33" x="45"/></g></g></g></g></g></svg>