<?xml version="1.0" encoding="UTF-8"?>
<svg width="1200px" height="284px" viewBox="0 0 1200 284" version="1.1" xmlns="http://www.w3.org/2000/svg" xmlns:xlink="http://www.w3.org/1999/xlink">
    <!-- Generator: Sketch 52.5 (67469) - http://www.bohemiancoding.com/sketch -->
    <title>Artboard</title>
    <desc>Created with Sketch.</desc>
    <g id="Page-1" stroke="none" stroke-width="1" fill="none" fill-rule="evenodd">
        <g id="Artboard" transform="translate(0.000000, -499.000000)" fill-rule="nonzero">
            <path d="M673,783 C714.333333,756.22351 746,730.835265 768,706.835265 C801,670.835265 828,589.835265 874,589.835265 C920,589.835265 859,676.835265 908,676.835265 C957,676.835265 1012,484.835265 1158,499.835265 C1255.33333,509.835265 1302.66667,603.501932 1300,780.835265 C1117.1073,785.961569 979.773969,788.683148 888,789 C796.226031,789.316852 724.559364,787.316852 673,783 Z" id="Path-9" fill="#E74670" opacity="0.800000012"></path>
            <path d="M-100,783 C-20.0711111,756.22351 30.8933333,730.835265 52.8933333,706.835265 C85.8933333,670.835265 112.893333,589.835265 158.893333,589.835265 C204.893333,589.835265 143.893333,676.835265 192.893333,676.835265 C241.893333,676.835265 296.893333,484.835265 442.893333,499.835265 C540.226667,509.835265 587.56,603.501932 584.893333,780.835265 L142,785.835265 L-100,783 Z" id="Path-9" fill="#E74670" opacity="0.800000012" transform="translate(242.500000, 642.417632) scale(-1, 1) translate(-242.500000, -642.417632) "></path>
            <path d="M527,790.163004 L378,803 L-38.8584687,783 L-147.858469,718.871951 C-255.191802,673.623984 -218.858469,651 -38.8584687,651 C231.141531,651 192.141531,783 436.141531,783 C471.999778,783 502.285934,782.773229 527,782.319687 L527,790.163004 Z M635,782.335309 C659.555866,782.778436 689.555866,783 725,783 C969,783 930,651 1200,651 C1380,651 1416.33333,673.623984 1309,718.871951 L1200,783 L863,796 L635,786.5 L635,782.335309 Z" id="Combined-Shape" fill="#F1E3FF"></path>
        </g>
    </g>
</svg>