<svg height="60" viewBox="0 0 60 60" width="60" xmlns="http://www.w3.org/2000/svg"><g fill="#6791c7" fill-rule="evenodd"><circle cx="30" cy="30" fill-opacity=".2" r="30"/><path d="m36.3135681 30.5003481c0-3.7497873-3.0490115-6.7915947-6.8132189-6.7915947s-6.8139173 3.0407632-6.8139173 6.7915947c0 3.7501353 3.0493607 6.7912466 6.8139173 6.7912466 3.7631598 0 6.8132189-3.0407632 6.8132189-6.7912466m13.5091011-.0205363c-4.6498212 6.1257316-12.0221361 10.0843625-20.3219708 10.0843625-8.3008823 0-15.6724988-3.9586309-20.32231991-10.0843625 4.64947191-6.1253835 12.02143761-10.0840145 20.32197071-10.0840145s15.6721496 3.958631 20.32232 10.0840145m4.1773308.0114864c-5.1153271-8.1038288-14.1743589-13.4912982-24.4996508-13.4912982-10.3252918 0-19.3850221 5.3874694-24.5003492 13.4912982 5.1153271 8.114271 14.1750574 13.5087018 24.5003492 13.5087018 10.3252919 0 19.3843237-5.3944308 24.4996508-13.5087018" fill-rule="nonzero"/></g></svg>