<svg width="210" height="86" viewBox="0 0 210 86" fill="none" xmlns="http://www.w3.org/2000/svg">
<path d="M47.7669 29.6538L51.4772 23.2239C52.5585 21.3415 51.9224 18.9303 50.0355 17.8516C48.1486 16.7729 45.7316 17.4074 44.6503 19.2899L40.9189 25.7198C32.9896 23.2239 24.1062 26.46 19.7811 33.9475C17.0249 38.7065 16.6857 44.1846 18.3606 48.9859L25.2298 37.099C26.7988 34.3705 29.3641 32.4246 32.4171 31.5997C35.4701 30.7749 38.6503 31.1979 41.3853 32.7842C47.0249 36.0415 48.9754 43.2751 45.7104 48.9013C42.4454 54.5274 35.2157 56.4733 29.5549 53.2161L33.4984 46.4055C35.3853 47.4842 37.8023 46.8496 38.8836 44.9672C39.9648 43.0847 39.3288 40.6735 37.4419 39.5948C35.5549 38.5161 33.138 39.1507 32.0567 41.0331L19.5055 62.7552C18.4242 64.6376 19.0602 67.0488 20.9472 68.1275C22.8341 69.2062 25.251 68.5717 26.3323 66.6893L30.0638 60.2594C37.9931 62.7552 46.8765 59.5191 51.2016 52.0316C55.5267 44.5653 53.8942 35.28 47.7669 29.6538Z" fill="white"/>
<path d="M64.4524 34.3286H70.5584C74.099 34.3286 77.0248 36.0841 77.0248 40.1451C77.0248 44.2061 74.099 45.9828 70.5584 45.9828H68.0354V51.6724H64.4524V34.3286ZM70.4524 42.8525C72.2121 42.8525 73.3358 42.0699 73.3358 40.1451C73.3358 38.1992 72.1697 37.4801 70.4524 37.4801H68.0354V42.8525H70.4524Z" fill="white"/>
<path d="M82.2615 34.3286H93.7526V37.459H85.8445V41.4353H92.8198V44.5022H85.8445V48.5209H94.1131V51.6513H82.2615V34.3286Z" fill="white"/>
<path d="M100.113 34.3286H103.675V48.5209H111.541V51.6513H100.113V34.3286Z" fill="white"/>
<path d="M115.527 43.0001C115.527 37.8816 119.512 34.1167 124.516 34.1167C129.52 34.1167 133.505 37.8816 133.505 43.0001C133.505 48.1187 129.52 51.8835 124.516 51.8835C119.512 51.8835 115.527 48.1187 115.527 43.0001ZM129.816 43.0001C129.816 39.764 127.675 37.2894 124.516 37.2894C121.357 37.2894 119.216 39.764 119.216 43.0001C119.216 46.2362 121.357 48.7109 124.516 48.7109C127.675 48.7109 129.816 46.2362 129.816 43.0001Z" fill="white"/>
<path d="M142.304 37.459H137.343V34.3286H150.827V37.459H145.866V51.6513H142.283V37.459H142.304Z" fill="white"/>
<path d="M154.643 43.0001C154.643 37.8816 158.629 34.1167 163.633 34.1167C168.636 34.1167 172.622 37.8816 172.622 43.0001C172.622 48.1187 168.636 51.8835 163.633 51.8835C158.629 51.8835 154.643 48.1187 154.643 43.0001ZM168.933 43.0001C168.933 39.764 166.792 37.2894 163.633 37.2894C160.474 37.2894 158.332 39.764 158.332 43.0001C158.332 46.2362 160.474 48.7109 163.633 48.7109C166.792 48.7109 168.933 46.2362 168.933 43.0001Z" fill="white"/>
<path d="M183.52 43.6135C182.65 42.7886 181.442 41.2446 181.442 41.2446C181.442 41.2446 181.696 43.1482 181.696 44.3961V51.6509H178.346V34.1802H178.707L187.463 42.3868C188.311 43.1694 189.498 44.7557 189.498 44.7557C189.498 44.7557 189.265 42.7886 189.265 41.6042V34.3494H192.615V51.8201H192.255L183.52 43.6135Z" fill="white"/>
</svg>
