<svg id="svg5219" xmlns="http://www.w3.org/2000/svg" viewBox="0 0 248.03 51.57"><defs><style>.cls-1{fill:#fff;}</style></defs><title>britishredcross</title><g id="layer1"><path id="path3269" class="cls-1" d="M40.37,21.4V4.21H23.18V21.4H6V38.6h17.2V55.79H40.37V38.6H57.56V21.4Z" transform="translate(-5.98 -4.21)"/><path id="path3281" class="cls-1" d="M74.74,24.33h3.54c1.35,0,2.6.34,2.6,2,0,1.45-1,2.05-2.31,2.05H74.74ZM71,38.6h8.33c3.1,0,6.07-1.5,6.07-5a4.2,4.2,0,0,0-3.16-4.36,3.78,3.78,0,0,0,2.34-3.59c0-3.2-2.22-4.26-5.49-4.26H71V38.6Zm3.78-7.66h4.11c1.62,0,2.73.7,2.73,2.46s-1.3,2.27-2.8,2.27h-4Z" transform="translate(-5.98 -4.21)"/><path id="path3285" class="cls-1" d="M86.95,26.14H90.2v2.31h0a4.4,4.4,0,0,1,4-2.64,2.57,2.57,0,0,1,.75.12V29.1A7.14,7.14,0,0,0,93.74,29c-2.5,0-3.38,1.8-3.38,4v5.61H86.95Z" transform="translate(-5.98 -4.21)"/><path id="path3287" class="cls-1" d="M100,24.22H96.53V21.4H100Zm-3.43,1.92H100V38.6H96.53Z" transform="translate(-5.98 -4.21)"/><path id="path3291" class="cls-1" d="M107.22,26.14h2.5v2.29h-2.5v6.16c0,1.15.28,1.45,1.43,1.45a5.27,5.27,0,0,0,1.07-.1v2.68a13.48,13.48,0,0,1-2,.12c-2.09,0-3.93-.48-3.93-3V28.44h-2.07V26.14h2.07V22.41h3.43v3.73Z" transform="translate(-5.98 -4.21)"/><path id="path3293" class="cls-1" d="M115.6,24.22h-3.43V21.4h3.43Zm-3.43,1.92h3.43V38.6h-3.43Z" transform="translate(-5.98 -4.21)"/><path id="path3297" class="cls-1" d="M120.35,34.54c0,1.5,1.28,2.1,2.63,2.1,1,0,2.24-.38,2.24-1.59,0-1-1.43-1.4-3.88-1.93-2-.44-4-1.13-4-3.33,0-3.17,2.75-4,5.43-4s5.21.91,5.48,4H125c-.1-1.33-1.11-1.68-2.33-1.68-.78,0-1.92.15-1.92,1.16,0,1.23,1.94,1.4,3.88,1.85s4,1.18,4,3.49c0,3.28-2.85,4.34-5.68,4.34s-5.72-1.08-5.87-4.39h3.27Z" transform="translate(-5.98 -4.21)"/><path id="path3301" class="cls-1" d="M130,21.4h3.42v6.47h.07a4.38,4.38,0,0,1,3.64-2.07c3.63,0,4.54,2,4.54,5.12v7.66h-3.42v-7c0-2-.61-3.06-2.18-3.06-1.87,0-2.65,1-2.65,3.57v6.53H130V21.4Z" transform="translate(-5.98 -4.21)"/><path id="path3305" class="cls-1" d="M145.45,38.6h3.78V31.88H153c1.89,0,2.59.79,2.85,2.6a18.71,18.71,0,0,0,.61,4.12h3.78c-.69-1-.66-3-.74-4.08-.12-1.73-.64-3.54-2.5-4v0a4.22,4.22,0,0,0,2.73-4.31,4.72,4.72,0,0,0-5-4.74h-9.26V38.6Zm3.78-14.26h4.13c1.69,0,2.6.73,2.6,2.39s-.91,2.46-2.6,2.46h-4.13V24.33Z" transform="translate(-5.98 -4.21)"/><path id="path3309" class="cls-1" d="M173.2,33.2c.24-3.83-1.81-7.4-6-7.4a6.24,6.24,0,0,0-6.36,6.57c0,3.85,2.43,6.55,6.36,6.55A5.59,5.59,0,0,0,173,34.74h-3a2.81,2.81,0,0,1-2.69,1.61c-1.91,0-3-1-3.07-3.15h9Zm-9-2.17a2.7,2.7,0,0,1,2.84-2.64c1.66,0,2.41.91,2.72,2.64Z" transform="translate(-5.98 -4.21)"/><path id="path3313" class="cls-1" d="M183.86,38.6h3.25V21.4h-3.42v6.27h0A4.36,4.36,0,0,0,180,25.81c-3.66,0-5.51,3.11-5.51,6.45s1.83,6.67,5.59,6.67A4.12,4.12,0,0,0,183.81,37h.05v1.6Zm-.05-6.26c0,2-.67,4-2.93,4s-3-2-3-4,.77-4,3-4,2.93,1.92,2.93,3.94" transform="translate(-5.98 -4.21)"/><path id="path3317" class="cls-1" d="M201.92,27.19a3.71,3.71,0,0,0-3.75-3c-3.4,0-4.68,2.89-4.68,5.9s1.28,5.75,4.68,5.75c2.31,0,3.61-1.58,3.9-3.85h3.66a7.26,7.26,0,0,1-7.56,7c-5.33,0-8.46-4-8.46-8.93S192.84,21,198.17,21c3.78,0,7,2.21,7.42,6.19h-3.67Z" transform="translate(-5.98 -4.21)"/><path id="path3321" class="cls-1" d="M207.34,26.14h3.25v2.31h0a4.4,4.4,0,0,1,4-2.64,2.53,2.53,0,0,1,.75.12V29.1a7.08,7.08,0,0,0-1.23-.11c-2.51,0-3.37,1.8-3.37,4v5.61h-3.42V26.14Z" transform="translate(-5.98 -4.21)"/><path id="path3325" class="cls-1" d="M215.77,32.38c0,3.95,2.53,6.55,6.43,6.55s6.45-2.6,6.45-6.55-2.53-6.57-6.45-6.57-6.43,2.61-6.43,6.57m3.42,0c0-2,.7-4,3-4s3,2,3,4-.7,4-3,4-3-2-3-4" transform="translate(-5.98 -4.21)"/><path id="path3329" class="cls-1" d="M233,34.54c0,1.5,1.28,2.1,2.62,2.1,1,0,2.24-.38,2.24-1.59,0-1-1.42-1.4-3.87-1.93-2-.44-4-1.13-4-3.33,0-3.17,2.74-4,5.41-4s5.23.91,5.49,4h-3.25c-.1-1.33-1.11-1.68-2.34-1.68-.76,0-1.89.15-1.89,1.16,0,1.23,1.92,1.4,3.87,1.85s4,1.18,4,3.49c0,3.28-2.85,4.34-5.68,4.34s-5.7-1.08-5.85-4.39Z" transform="translate(-5.98 -4.21)"/><path id="path3333" class="cls-1" d="M245.73,34.54c0,1.5,1.28,2.1,2.62,2.1,1,0,2.24-.38,2.24-1.59,0-1-1.42-1.4-3.87-1.93-2-.44-4-1.13-4-3.33,0-3.17,2.75-4,5.41-4s5.23.91,5.5,4h-3.25c-.1-1.33-1.11-1.68-2.34-1.68-.77,0-1.9.15-1.9,1.16,0,1.23,1.92,1.4,3.87,1.85s4,1.18,4,3.49c0,3.28-2.84,4.34-5.69,4.34s-5.7-1.08-5.85-4.39Z" transform="translate(-5.98 -4.21)"/></g></svg>