<svg viewBox="0 0 494.35 38.19" xmlns="http://www.w3.org/2000/svg"><path d="m179.25 38.19c-12.58 0-20.74-9.07-20.74-18.51v-1.17c0-9.6 8.16-18.51 20.74-18.51s20.81 8.91 20.81 18.51v1.17c0 9.44-8.16 18.51-20.81 18.51zm14.08-19.58c0-6.88-5-13-14.08-13s-14 6.13-14 13v.86c0 6.88 5 13.12 14 13.12s14.08-6.24 14.08-13.12z" fill="#3499cd"/><g fill="#010101"><path d="m37.12 36.8-4.69-8.8h-20.86l-4.57 8.8h-7l19.2-35.52h5.55l19.52 35.52zm-15.31-28.59-7.73 14.94h15.73z"/><path d="m74.56 38.19c-12.75 0-18.67-6.94-18.67-16.16v-20.75h6.62v20.85c0 6.56 4.32 10.46 12.53 10.46 8.43 0 11.89-3.9 11.89-10.46v-20.85h6.67v20.72c0 8.83-5.6 16.19-19.04 16.19z"/><path d="m130.72 6.83v30h-6.67v-30h-15.52v-5.55h37.71v5.55z"/><path d="m259.47 36.8v-28.11l-1.76 3.1-14.88 25h-3.25l-14.72-25-1.76-3.1v28.11h-6.51v-35.52h9.23l14 24.37 1.66 3 1.65-3 13.87-24.37h9.12v35.52z"/><path d="m316.54 36.8-4.7-8.8h-20.84l-4.53 8.8h-7l19.2-35.52h5.54l19.47 35.52zm-15.31-28.59-7.73 14.94h15.73z"/><path d="m350.56 6.83v30h-6.66v-30h-15.52v-5.55h37.7v5.55z"/><path d="m399.47 6.83v30h-6.67v-30h-15.52v-5.55h37.72v5.55z"/><path d="m431.42 36.8v-32.16c2.66 0 3.73-1.44 3.73-3.36h2.85v35.52z"/><path d="m490.19 11.31a20.69 20.69 0 0 0 -14.19-5.71c-9.49 0-14.83 6.51-14.83 13.28v.69c0 6.72 5.39 13 15.31 13a20.78 20.78 0 0 0 13.92-5.71l4 4.21a26.53 26.53 0 0 1 -18.4 7.12c-13.44 0-21.6-8.75-21.6-18.35v-1.17c0-9.6 8.91-18.67 21.92-18.67 7.52 0 14.35 3.15 18 7.09z"/><path d="m183.65 12.36a2.59 2.59 0 0 1 .75 3.64l-6.08 9.42a2.59 2.59 0 0 1 -3.58.79 2.61 2.61 0 0 1 -.76-3.6l6.08-9.42a2.6 2.6 0 0 1 3.59-.78z"/></g></svg>