<svg enable-background="new 0 0 8.1 8.1" viewBox="0 0 8.1 8.1" xmlns="http://www.w3.org/2000/svg"><path clip-rule="evenodd" d="m4.1 0c2.2 0 4.1 1.8 4.1 4.1 0 .2-.2.4-.4.4s-.4-.2-.4-.4c0-1.8-1.5-3.3-3.3-3.3s-3.3 1.5-3.3 3.3 1.5 3.3 3.3 3.3c.5 0 1-.1 1.5-.3.2-.1.4 0 .5.2s0 .4-.2.5c-.6.2-1.2.3-1.8.3-2.3 0-4.1-1.8-4.1-4 0-2.3 1.8-4.1 4.1-4.1zm-2.1 4.1c0 1.1.9 2 2 2 .6 0 1.1-.2 1.5-.6.3.4.7.6 1.2.6.8 0 1.4-.6 1.4-1.4l-2-.2v-1.9c0-.1-.1-.2-.2-.2h-.6c-.4-.2-.8-.4-1.2-.4-1.2 0-2.1.9-2.1 2.1zm6.1.6h-.8zm-5.2-.5-.9-.1zm2.3.3-2.3-.3c.1.6.6 1.1 1.2 1.1.5 0 .9-.3 1.1-.8zm0-.1-2.3-.2v-.1c0-.7.5-1.2 1.2-1.2s1.2.5 1.2 1.2c0 .1-.1.2-.1.3zm0 0c0 .1 0 .1-.1.2h.1z" fill="#969da2" fill-rule="evenodd"/></svg>