<svg enable-background="new 0 0 8.8 8.8" viewBox="0 0 8.8 8.8" xmlns="http://www.w3.org/2000/svg"><path clip-rule="evenodd" d="m4.4 8.8c2.4 0 4.4-2 4.4-4.4s-2-4.4-4.4-4.4-4.4 2-4.4 4.4 2 4.4 4.4 4.4zm0-.9c-1.9 0-3.5-1.6-3.5-3.5s1.6-3.5 3.5-3.5 3.5 1.6 3.5 3.5-1.6 3.5-3.5 3.5zm-2.5-2.4c-.1 0-.1 0 0 0-.2-.2-.1-.5.1-.6s.4-.1.6.1.1.1.1.1c.1.1.2.3.4.4.2.3.4.4.6.5s.5.2.7.2.5-.1.7-.2.4-.2.6-.4c.1-.1.3-.3.4-.4 0 0 .1-.1.1-.1.1-.2.4-.3.6-.1s.3.4.1.6v.1c0 .1-.1.1-.1.2-.2 0-.3.2-.5.4-.3.2-.5.4-.8.5-.4.1-.7.2-1.1.2s-.8-.1-1.1-.2-.5-.3-.8-.5c-.2-.2-.3-.4-.5-.5 0-.1-.1-.2-.1-.3 0 .1 0 .1 0 0zm1.2-2.9c0-.2.2-.4.4-.4s.5.2.5.4v1.4c0 .2-.2.4-.4.4s-.5-.2-.5-.4zm2.2-.4c-.3 0-.5.2-.5.4v1.4c0 .2.2.4.4.4s.4-.2.4-.4v-1.4c.1-.2-.1-.4-.3-.4z" fill="#969da2" fill-rule="evenodd"/></svg>