<svg enable-background="new 0 0 8.1 4.9" viewBox="0 0 8.1 4.9" xmlns="http://www.w3.org/2000/svg"><path clip-rule="evenodd" d="m.1 2.2c-.1.1-.1.3 0 .5s0 0 .1.1c0 .1.1.2.2.2.2.3.5.5.8.7.4.4.8.6 1.3.8.5.3 1 .4 1.6.4.5 0 1.1-.1 1.6-.3.4-.2.9-.4 1.2-.7.3-.2.6-.5.8-.7.1-.2.2-.3.3-.4 0 0 0 0 .1-.1.1-.1.1-.4 0-.5s0 0-.1-.1-.2-.2-.3-.2c-.2-.3-.5-.5-.8-.8-.4-.3-.8-.6-1.2-.7-.6-.3-1.1-.4-1.6-.4-.6 0-1.1.1-1.6.4-.5.1-.9.4-1.3.7-.3.2-.6.5-.8.7-.1.1-.2.2-.2.3 0 0-.1 0-.1.1zm.9.2.7-.7c.3-.3.7-.5 1.1-.6.4-.2.9-.3 1.3-.3s.8.1 1.3.3c.4.2.7.4 1.1.7l.6.6c.1.1 0 0 0 0s0 0 0 0c-.2.3-.4.5-.7.7-.3.3-.7.5-1.1.7s-.8.3-1.2.3c-.5 0-.9-.1-1.3-.3s-.7-.4-1.1-.7c-.3-.2-.5-.4-.7-.7s-.1.1 0 0zm3.9 0c0 .4-.4.8-.8.8s-.8-.3-.8-.8.4-.8.8-.8.8.4.8.8z" fill="#969da2" fill-rule="evenodd"/></svg>