<svg height="354" viewBox="0 0 502 354" width="502" xmlns="http://www.w3.org/2000/svg" xmlns:xlink="http://www.w3.org/1999/xlink"><linearGradient id="a" gradientTransform="matrix(479.7 -84.58 -64.21 -364.13 1411365.19 41503.52)" gradientUnits="userSpaceOnUse" x1="-2837.87" x2="-2838.9" y1="773.15" y2="772.38"><stop offset="0" stop-color="#bdecf3"/><stop offset=".47" stop-color="#b38ff4"/><stop offset="1" stop-color="#fea6b4"/></linearGradient><clipPath id="b"><path d="m165.86 350.72c-118.3-20.9-212.3-237.2-140-320.3s481.7 19.8 475.5 140.2-225 199.6-335.5 180.1z"/></clipPath><linearGradient id="c" gradientTransform="matrix(26.46 0 0 -24.64 24217.03 19033.69)" gradientUnits="userSpaceOnUse" x1="-911.67" x2="-911.67" y1="760.87" y2="759.87"><stop offset="0" stop-color="#ffd58a"/><stop offset="1" stop-color="#ffa9fb"/></linearGradient><linearGradient id="d" gradientTransform="matrix(30.75 0 0 -38.57 28293.3 29827.23)" x1="-916.67" x2="-916.67" xlink:href="#c" y1="767.06" y2="766.06"/><linearGradient id="e" gradientTransform="matrix(69.15 0 0 -151.18 64681.47 117406.75)" gradientUnits="userSpaceOnUse" x1="-933.53" x2="-934.09" y1="775.21" y2="774.11"><stop offset="0" stop-color="#405482"/><stop offset="1" stop-color="#1d2946"/></linearGradient><linearGradient id="f" gradientTransform="matrix(24.67 0 0 -119.96 22639.63 93148.04)" gradientUnits="userSpaceOnUse" x1="-909.14" x2="-909.01" y1="773.48" y2="774.48"><stop offset="0" stop-color="#b0cdff"/><stop offset="1" stop-color="#7971e2"/></linearGradient><linearGradient id="g" gradientTransform="matrix(4.31 0 0 -12.2 3344.58 9266.9)" x1="-727.25" x2="-728.49" xlink:href="#e" y1="742.42" y2="743.35"/><linearGradient id="h" gradientTransform="matrix(33.75 0 0 -17.94 31200.56 13734.43)" x1="-919.15" x2="-919.55" xlink:href="#e" y1="753.37" y2="754.6"/><linearGradient id="i" gradientTransform="matrix(31.4 0 0 -57.65 28994.99 44613.36)" gradientUnits="userSpaceOnUse" x1="-917.28" x2="-917.35" y1="769.67" y2="770.69"><stop offset="0" stop-color="#ffa3a7"/><stop offset="1" stop-color="#7971e2"/></linearGradient><linearGradient id="j" gradientTransform="matrix(95.93 0 0 -126.99 90155.91 98438.07)" gradientUnits="userSpaceOnUse" x1="-937.62" x2="-937.62" y1="774.68" y2="773.68"><stop offset="0" stop-color="#ffa3a7"/><stop offset="1" stop-color="#f9b9ff"/></linearGradient><linearGradient id="k" gradientTransform="matrix(27.53 0 0 -15.43 25338.93 11744.87)" gradientUnits="userSpaceOnUse" x1="-913.06" x2="-913.06" y1="749.66" y2="750.66"><stop offset="0" stop-color="#a890ff"/><stop offset="1" stop-color="#ff87a9"/></linearGradient><linearGradient id="l" gradientTransform="matrix(19.23 0 0 -15.2 17497.91 11562.76)" gradientUnits="userSpaceOnUse" x1="-898.21" x2="-898.21" y1="750.24" y2="749.24"><stop offset="0" stop-color="#6d56be"/><stop offset="1" stop-color="#d641ad"/></linearGradient><linearGradient id="m" gradientTransform="matrix(26.4 0 0 -12.05 24432.79 9143.8)" x1="-911.56" x2="-911.69" xlink:href="#i" y1="742.89" y2="742.08"/><linearGradient id="n" gradientTransform="matrix(160.42 0 0 -121.64 151345.49 94406.33)" x1="-941.59" x2="-941.57" xlink:href="#e" y1="774.51" y2="773.54"/><linearGradient id="o" gradientTransform="matrix(115.86 0 0 -200.02 109219.1 155192.36)" gradientUnits="userSpaceOnUse" x1="-939.32" x2="-939.32" y1="774.89" y2="775.89"><stop offset=".16" stop-color="#ff418c"/><stop offset="1" stop-color="#f2ffac"/></linearGradient><path d="m165.86 350.72c-118.3-20.9-212.3-237.2-140-320.3s481.7 19.8 475.5 140.2-225 199.6-335.5 180.1z" fill="url(#a)"/><g clip-path="url(#b)"><path d="m111.45 297.15c.43-2.23-.47-3.57-2.7-4l-20.3-3.9-3.35 20.75 19.7 3.8q3.3.75 4-2.65z" fill="url(#c)"/><path d="m100.35 242.25a12.51 12.51 0 0 0 -3.25.55c-.53 2-1 4.12-1.55 6.25-.53 2.5-1.07 5.07-1.6 7.7-.3 1.33-.57 2.68-.8 4.05q-1.65 7.95-2.85 16.25a19.54 19.54 0 0 0 7.35 3.25 20.28 20.28 0 0 0 5.95.4 18.8 18.8 0 0 0 8.55-3 24.15 24.15 0 0 0 3.55-2.9 19 19 0 0 0 4.9-9.2 18.5 18.5 0 0 0 -2.75-14.5 17.66 17.66 0 0 0 -4.6-5.15 19.49 19.49 0 0 0 -7.4-3.25 19.85 19.85 0 0 0 -3.9-.5c-.57 0-1.1.02-1.6.05z" fill="url(#d)"/><path d="m125.2 210a27.4 27.4 0 0 0 -7.65 1.9q-10.35 4.5-14.35 13.65a115.72 115.72 0 0 0 -6.1 17.25 12.51 12.51 0 0 1 3.25-.55c.5 0 1-.05 1.6-.05a19.85 19.85 0 0 1 3.9.5 19.49 19.49 0 0 1 7.4 3.25 17.66 17.66 0 0 1 4.6 5.15 18.5 18.5 0 0 1 2.75 14.5 19 19 0 0 1 -4.9 9.2 24.15 24.15 0 0 1 -3.55 2.9 18.8 18.8 0 0 1 -8.55 3 20.28 20.28 0 0 1 -5.95-.4 19.54 19.54 0 0 1 -7.35-3.25 18.66 18.66 0 0 1 -.3 2.25l-1.5 9.95 20.3 3.9c2.23.43 3.13 1.77 2.7 4l-2.7 14q-.65 3.4-4 2.65l-19.7-3.8-9 51.15h38.25l28-109.8q6.45-20.75-1.45-33.1-5.8-9.15-15.7-8.25z" fill="url(#e)"/><path d="m328.4 300.35q-12 4.5-17.25 3.25-22.54-5.6-25.45 10.2 5.81 3.1 11.75 6.25 28.05 16.4 43.5-18.4-4.54-4.2-12.55-1.3z" fill="#374973"/><path d="m204.2 241.3a39.27 39.27 0 0 1 1.4 4.35 100.84 100.84 0 0 1 2.7 14.55q.85 6.3 1.4 14.25 1.16 15.9 1.4 38.2.26 21.3-.3 48.45h17.55q.85-24.64.3-48.45-.41-18.5-1.7-36.55a13.51 13.51 0 0 0 -.1-1.65q-.49-6.9-1.1-13.7-.5-10.25-5.35-15.1-4.65-4.65-13.2-4.5a20 20 0 0 0 -3 .15z" fill="url(#f)"/><path d="m204.65 205.25v-7.95l-2.3-.4.25 14.2c.07 1.53.17 3.05.3 4.55a142.3 142.3 0 0 0 4.3 25.5q8.55-.15 13.2 4.5 4.84 4.84 5.35 15.1.6 6.79 1.1 13.7a13.51 13.51 0 0 1 .1 1.65q1.31 18 1.7 36.55.56 23.81-.3 48.45h18.5a156.52 156.52 0 0 1 3.3-21q1.24-5.65 4.35-15.95 2-6 3.3-11.55a99.61 99.61 0 0 0 2.25-13.85q1.15-14.06-3-24.35c-.5-1.23-1.07-2.45-1.7-3.65l-24.35-49.25a22.89 22.89 0 0 0 -6.65-7.05.34.34 0 0 0 -.25-.15 19.92 19.92 0 0 0 -4.8-2q-3.1-.94-7.95-2a14.86 14.86 0 0 1 -2.8-.85 12.29 12.29 0 0 1 -1.75-.95 4.44 4.44 0 0 1 -2.15-3.25zm-13.5 3.3c-.8-1.73-1.63-3.42-2.5-5.05-.43-.83-.88-1.67-1.35-2.5a34 34 0 0 1 -1 7.55q-1.95 7.65-8.15 4.55-4.09-2.1-9.9-4.55-6.2-2.6-14.4-5.7l-7.6 3.2a0 0 0 0 0 -.05 0 20.7 20.7 0 0 1 -2.1.65c-.53.1-1.07.18-1.6.25q-6 .56-11.25 1.55-1.8.34-3.45.75l-2.65.7q9.9-.9 15.7 8.2 7.9 12.35 1.45 33.1l-28 109.8h96.5q.55-27.15.3-48.45-.25-22.31-1.4-38.2-.55-7.95-1.4-14.25a100.84 100.84 0 0 0 -2.7-14.55 39.27 39.27 0 0 0 -1.4-4.35q-3.4-10.25-7-19.25-3-7.1-6.05-13.45zm-5.8 50.55a2.34 2.34 0 0 1 .75 1.7l.45 14.5a2.46 2.46 0 0 1 -.7 1.75 2.28 2.28 0 0 1 -1.65.75l-14.3.2a2.3 2.3 0 0 1 -1.7-.7 2.65 2.65 0 0 1 -.75-1.75l-.4-14.45a2.37 2.37 0 0 1 .65-1.8 2.51 2.51 0 0 1 1.6-.7l14.35-.2a2.3 2.3 0 0 1 1.7.7zm-11.1 2h-3.6a1 1 0 0 0 -.8.35 1.09 1.09 0 0 0 -.3.8l.3 11a1.48 1.48 0 0 0 .35.85 1 1 0 0 0 .85.3l3.55-.05a1.11 1.11 0 0 0 .8-.35.9.9 0 0 0 .3-.8l-.3-11.05a1.11 1.11 0 0 0 -.35-.8 1 1 0 0 0 -.8-.25zm9.05.2a1 1 0 0 0 -.75-.3h-3.55a1.19 1.19 0 0 0 -1.15 1.2l.2 6.15a1.3 1.3 0 0 0 .35.85 1.26 1.26 0 0 0 .85.3l3.5-.05a1 1 0 0 0 .8-.35 1 1 0 0 0 .3-.8l-.15-6.25a.9.9 0 0 0 -.4-.75z" fill="#202b49"/><path d="m204.7 197.35a0 0 0 0 0 0 0v7.95a4.44 4.44 0 0 0 2.1 3.3 12.29 12.29 0 0 0 1.75.95c.27-.13.42-.45.45-.95.1-1.13-.42-3.27-1.55-6.4a27.72 27.72 0 0 0 -2.75-4.85z" fill="url(#g)"/><path d="m186.35 208.55a34 34 0 0 0 1-7.55l-11.5-4.95-.4.7a10.05 10.05 0 0 1 -4.1 3.7 17.58 17.58 0 0 1 -8.1 1.65c-1.6 0-3.32-.15-5.15-.35-1.33-.2-2.72-.45-4.15-.75-.47 1-.47 1.58 0 1.85q8.21 3.1 14.4 5.7 5.8 2.44 9.9 4.55 6.15 3.11 8.1-4.55z" fill="url(#h)"/><path d="m186.1 260.8a2.34 2.34 0 0 0 -.75-1.7 2.3 2.3 0 0 0 -1.7-.7l-14.35.2a2.51 2.51 0 0 0 -1.6.7 2.37 2.37 0 0 0 -.65 1.8l.4 14.45a2.65 2.65 0 0 0 .75 1.75 2.3 2.3 0 0 0 1.7.7l14.3-.2a2.28 2.28 0 0 0 1.65-.75 2.46 2.46 0 0 0 .7-1.75zm-3.55.2a1 1 0 0 1 .75.3.9.9 0 0 1 .4.75l.15 6.25a1 1 0 0 1 -.3.8 1 1 0 0 1 -.8.35l-3.5.05a1.26 1.26 0 0 1 -.85-.3 1.3 1.3 0 0 1 -.35-.85l-.2-6.15a1.19 1.19 0 0 1 1.15-1.2zm-11.9.15h3.6a1 1 0 0 1 .8.3 1.11 1.11 0 0 1 .35.8l.3 11.05a.9.9 0 0 1 -.3.8 1.11 1.11 0 0 1 -.8.35l-3.55.05a1 1 0 0 1 -.85-.3 1.48 1.48 0 0 1 -.35-.85l-.3-11a1.09 1.09 0 0 1 .3-.8 1 1 0 0 1 .8-.4zm24-104.65q-2.65.3-2.8 3.25l19.5 1 16.4.8q1.5-.15 2.1-2.4a2.79 2.79 0 0 0 -1.7-.9zm-64.45-112.3q-4.3 2.7-9.25 13.95-4.76 11.3-15.1 14.45-10.6 4.05-10.2 14.3a29.29 29.29 0 0 1 -7.35 20.2q-7.6 9-3.1 17.6t-4.6 20.65q-9.15 12-2.9 22.8a89 89 0 0 1 7.25 16q3.19 9.26 15.55 8.5 7.35-.49 11 3.2 6.7 9.2 17 5.35 11.3-3.7 17.6-2.35a.16.16 0 0 0 .1.05h.15a.21.21 0 0 0 .15.05q3.94 1.2 7.4 1.95c1.43.3 2.82.55 4.15.75 1.83.2 3.55.32 5.15.35a17.58 17.58 0 0 0 8.1-1.65 10.05 10.05 0 0 0 4.1-3.7l.4-.7a14.14 14.14 0 0 0 1.3-4.3 23.77 23.77 0 0 0 .2-3.85 39 39 0 0 0 -.35-4.25q-2-8.55-13.3-18l-.35-.45a0 0 0 0 0 -.05-.05q-5.9-7.2 1.95-17.95 8.51-9.41 1.9-16.5-5.55-7.84-5.3-21.65.19-7.84 8.35-16.85 15.95-15.1-.1-28.3 14.15 7.2 21.25 4.2 5.14-2 14.2 7.65t17.8 5.6q7.15-1.8 11.1 6 3.79 7.9 13 5.45 7.55-3.41 9.2 7.9l-4 51.9q-2.44 25.39-20.9 33.95-10.84 4.91-27.2 4.2c-.77 0-1.55 0-2.35 0l.2 6.25 2.3.4a0 0 0 0 1 0 0 27.72 27.72 0 0 1 2.7 4.8 57.64 57.64 0 0 0 7.75-3.85l2.8-1.8q4.1-3 9.65.1c.63.4 1.3.85 2 1.35q6.71 5 12.55 3.05a35 35 0 0 0 10.3-5.35 23.42 23.42 0 0 1 7.45-3.4 93.47 93.47 0 0 1 10.5-2.55q13.46-2.5 12.75-18.25t3.55-21.6a.52.52 0 0 1 .1-.2q7.54-13.5 1.6-23.55c-.6-1.1-1.13-2.2-1.6-3.3a25 25 0 0 1 -.55-16.9c.2-.53.38-1.07.55-1.6q3.15-10.24 0-15.85a11.94 11.94 0 0 0 -7.3-5.4q-9.75-3.15-9.85-12.7.19-14.85-20.2-20.85-15.3-3.15-18.8-9.3-9.9-15.8-32.6-6.25-11.45 5.1-17.2.4h-.1q-11.5-9.4-23.7 3.7a26.73 26.73 0 0 0 -2.2 2.5 5.31 5.31 0 0 1 -1.3 1.1v.45a6.14 6.14 0 0 1 -2.9.25 26.07 26.07 0 0 0 -10.75-1.2 21.58 21.58 0 0 0 -9.65 3.1z" fill="#fff"/><path d="m178.4 184.25c-.5-.23-1-.43-1.45-.6a39 39 0 0 1 .35 4.25 23.77 23.77 0 0 1 -.2 3.85 14.14 14.14 0 0 1 -1.3 4.3l11.5 4.95c.47.83.92 1.67 1.35 2.5.87 1.63 1.7 3.32 2.5 5.05q3 6.34 6 13.5 3.65 9 7 19.25a20 20 0 0 1 3-.15 142.3 142.3 0 0 1 -4.3-25.5c-.13-1.5-.23-3-.3-4.55l-.25-14.2-.2-6.25-6.25-1a106.4 106.4 0 0 1 -17.45-5.4z" fill="url(#i)"/><path d="m234.4 87.3q-3.94-7.85-11.1-6-8.7 4.09-17.8-5.6t-14.2-7.7q-7.1 3-21.25-4.2 16 13.2.1 28.45-8.15 9-8.35 16.85-.26 13.8 5.3 21.65 6.6 7.09-1.9 16.5-7.84 10.75-1.95 17.95a0 0 0 0 1 .05.05l.35.45q11.29 9.41 13.3 18c.47.17 1 .37 1.45.6a106.4 106.4 0 0 0 17.5 5.45l6.25 1h2.35q16.35.7 27.2-4.2 18.45-8.55 20.9-33.95l4-51.9q-1.65-11.3-9.2-7.9-9.2 2.4-13-5.5zm-38.15 35.8a3.78 3.78 0 0 1 .6.5 3.63 3.63 0 0 0 .3.35c.07.17.13.32.2.45a2.64 2.64 0 0 1 .15 1.15 2.37 2.37 0 0 1 -.85 1.85 2.48 2.48 0 0 1 -1.65.65h-.25l-12.25-.65a2.72 2.72 0 0 1 -1.85-1 2.6 2.6 0 0 1 -.65-1.9 3.4 3.4 0 0 1 .2-.85 2.26 2.26 0 0 1 .65-1h.05a2.94 2.94 0 0 1 1.9-.65l12.2.7a2.48 2.48 0 0 1 1.05.3zm-4.35 36.65q.15-3 2.8-3.25l33.5 1.75a2.79 2.79 0 0 1 1.7.9c.77.9.93 2.33.5 4.3a18.38 18.38 0 0 1 -1.45 3.7 13.8 13.8 0 0 1 -5.15 5.3 16.53 16.53 0 0 1 -4.7 1.9 30 30 0 0 1 -8.8.8q-13.55-.9-17.25-10a14.35 14.35 0 0 1 -1.05-3.75 7.91 7.91 0 0 1 -.1-1.65zm52.15-34a2.66 2.66 0 0 1 1.8.9 2.1 2.1 0 0 1 .5.75 3.43 3.43 0 0 1 .2 1.15 2.34 2.34 0 0 1 -.75 1.7c-.07.07-.12.1-.15.1a2.28 2.28 0 0 1 -1.9.7l-12.25-.65a2.57 2.57 0 0 1 -1.85-.95 2.53 2.53 0 0 1 -.65-1.85 2 2 0 0 1 .2-.9 3.41 3.41 0 0 1 .7-1 2.66 2.66 0 0 1 1.95-.65z" fill="url(#j)"/><path d="m245.85 126.6a2.66 2.66 0 0 0 -1.8-.9l-12.2-.7a2.66 2.66 0 0 0 -1.95.65 3.41 3.41 0 0 0 -.7 1 2 2 0 0 0 -.2.9 2.53 2.53 0 0 0 .65 1.85 2.57 2.57 0 0 0 1.85.95l12.25.65a2.28 2.28 0 0 0 1.9-.7s.08 0 .15-.1a2.34 2.34 0 0 0 .75-1.7 3.43 3.43 0 0 0 -.2-1.15 2.1 2.1 0 0 0 -.5-.75zm-49-3a3.78 3.78 0 0 0 -.6-.5l-.2-.1a2.48 2.48 0 0 0 -1.05-.3l-12.2-.7a2.94 2.94 0 0 0 -1.9.65h-.05a2.26 2.26 0 0 0 -.65 1 3.4 3.4 0 0 0 -.2.85 2.6 2.6 0 0 0 .65 1.9 2.72 2.72 0 0 0 1.85 1l12.25.65h.25a2.48 2.48 0 0 0 1.65-.65 2.37 2.37 0 0 0 .85-1.85 2.64 2.64 0 0 0 -.15-1.15c-.07-.13-.13-.28-.2-.45a3.63 3.63 0 0 1 -.3-.35z" fill="#405a97"/><path d="m192 161.45a14.35 14.35 0 0 0 1.05 3.75q3.7 9 17.25 10a30 30 0 0 0 8.8-.8q1.91-6.45-7.7-13.6l-19.5-1a7.91 7.91 0 0 0 .1 1.65z" fill="url(#k)"/><path d="m229 167.15a18.38 18.38 0 0 0 1.45-3.7c.43-2 .27-3.4-.5-4.3q-.6 2.25-2.1 2.4l-16.4-.8q9.6 7.16 7.7 13.6a16.53 16.53 0 0 0 4.7-1.9 13.8 13.8 0 0 0 5.15-5.3z" fill="url(#l)"/><path d="m353.6 192.45.7.3 21.35 9.85a8.88 8.88 0 0 1 1 .35l3.4-6.65-26-5.4c-.18.53-.32 1.1-.45 1.55z" fill="url(#m)"/><path d="m353.6 192.45q-4.35-1.5-6.4 4.75-3.75 9.9-7.7 19.35a481.89 481.89 0 0 1 -27.85 56.6q-4.31 7.55-10.45 3.3l-50.95-44.9c-.93-.87-1.87-1.67-2.8-2.4q-16.75-14.06-28.2-16.8a19.92 19.92 0 0 1 4.8 2 .34.34 0 0 1 .25.15 22.89 22.89 0 0 1 6.7 7l24.4 49.3c.63 1.2 1.2 2.42 1.7 3.65q4.15 10.31 3 24.35 12.34 7.69 25.65 15 2.9-15.8 25.45-10.2 5.25 1.25 17.25-3.25 8-2.89 12.55 1.3a761.2 761.2 0 0 0 35.85-85.1q1.31-3.7 2.55-7.35c.87-3-.05-5.12-2.75-6.25a8.88 8.88 0 0 0 -1-.35l-21.35-9.85z" fill="url(#n)"/></g><path d="m396 8.25a17.52 17.52 0 0 0 -24.1-5 16.65 16.65 0 0 0 -7.6 11.05l-15.75 75.4a22.16 22.16 0 0 0 -11.85 9.75 32.34 32.34 0 0 0 -4.15 12.2c0 .23-.07.48-.1.75q-2.29 16.8 6.6 46.4l-4.5 21.75a5.9 5.9 0 0 0 1 4.55 6 6 0 0 0 3.95 2.75l14.5 3 26 5.4 18.75 3.95a6 6 0 0 0 4.7-.85l.25-.15a6 6 0 0 0 2.55-3.8l4.55-21.65a176.74 176.74 0 0 0 24.25-36.5l11.15-22c.23-.5.45-1 .65-1.5.27-.8.48-1.57.65-2.3a17 17 0 0 0 -.6-8.9l-.15-.4a16.22 16.22 0 0 0 -8.3-9.55.65.65 0 0 0 -.2-.15 17.27 17.27 0 0 0 -7.7-2 22.83 22.83 0 0 0 -.75-3.25 16.4 16.4 0 0 0 -8.7-10 17 17 0 0 0 -8.45-2 13.34 13.34 0 0 0 -.55-2.2 16.77 16.77 0 0 0 -8.65-10l-.2-.1a16.32 16.32 0 0 0 -13.15-.85h-.1l8.55-40.7a16.88 16.88 0 0 0 -2.55-13.1zm-12.1-2.4a12.38 12.38 0 0 1 8.1 5.35 0 0 0 0 0 .05.05 12.14 12.14 0 0 1 1.75 9.5l-11.95 57.15 2.35-4.65a12.41 12.41 0 0 1 7.35-6.25 12.58 12.58 0 0 1 15.95 8 12.42 12.42 0 0 1 .45 6.7 7.16 7.16 0 0 1 1.3-.5 12.63 12.63 0 0 1 15.9 8 11.87 11.87 0 0 1 .2 7.6 5.3 5.3 0 0 1 1-.4 12.65 12.65 0 0 1 15.4 17.4l-10.7 21.2h-.05a.49.49 0 0 0 -.05.2 174.59 174.59 0 0 1 -24.6 36.8l-4.8 22.7a1.54 1.54 0 0 1 -.7 1 1.44 1.44 0 0 1 -1.15.2l-59.25-12.35a1.38 1.38 0 0 1 -.95-.7 1.41 1.41 0 0 1 -.25-1.2l4.75-22.65q-9-29.59-6.85-45.6 2.14-16.55 15.5-19.5l16.35-78.3a12.2 12.2 0 0 1 5.45-8v.05a12 12 0 0 1 9.45-1.8zm-5.65 84h-.05l-13.1 3.8a6.63 6.63 0 0 0 6.1 2.7q5.15-.25 13.15-4.8a11.34 11.34 0 0 0 -6-1.7zm25.8-6.6h-.05a9.26 9.26 0 0 0 .5-7.3 9.15 9.15 0 0 0 -4.7-5.5 8.87 8.87 0 0 0 -7.25-.5 9.16 9.16 0 0 0 -5.55 4.7h.05l-6.25 12.25a11.49 11.49 0 0 1 7.35 3.8h.05a13 13 0 0 1 2.85 6.65v-.05q2.55 12.86-17.75 18.2a8.44 8.44 0 0 0 2.7 2h.05a9.17 9.17 0 0 0 7.2.55 9.5 9.5 0 0 0 5.4-4.5l13.35-26.25c.07-.17.13-.32.2-.45h.05zm20.35 57.6-.55.2a12.58 12.58 0 0 1 -16-8.05 13.15 13.15 0 0 1 -.7-3.45 13.2 13.2 0 0 1 -3.15 1.55 12.45 12.45 0 0 1 -9.65-.7 12.85 12.85 0 0 1 -6.95-10.85 14.88 14.88 0 0 1 -3.15 1.55h-.05a11.92 11.92 0 0 1 -9.6-.75 12.53 12.53 0 0 1 -4.7-4l-3.35.8 3.5 5.95a1.69 1.69 0 0 1 .15 1.2 1.54 1.54 0 0 1 -.7 1 1.69 1.69 0 0 1 -1.2.15 1.54 1.54 0 0 1 -.95-.75l-4.2-7.2-6.25-1.3a1.38 1.38 0 0 1 -.95-.7 1.28 1.28 0 0 1 -.25-1.15 1.54 1.54 0 0 1 .7-1 1.39 1.39 0 0 1 1.15-.2l6.6 1.4 6.05-1.45a.51.51 0 0 1 .3-.1q19-4.4 17.45-15.1a11.8 11.8 0 0 0 -1.4-4.05q-9.26 5.5-15.25 5.65-6.41.25-9.35-4.9l-7.5 2.15h-.15a1 1 0 0 1 -.3 0q-11.81 2.45-13.75 17-2 15.64 6.85 44.65a2.16 2.16 0 0 1 0 .8l-4.5 21.5 56.2 11.8 4.55-21.5a1.2 1.2 0 0 1 .35-.75 166.26 166.26 0 0 0 20.7-29.4zm-66.3 16.55a.7.7 0 0 1 -.1-.5l.6-3a.57.57 0 0 1 .3-.4.45.45 0 0 1 .5-.1l3.5.75 1.6-3.6a.6.6 0 0 1 .35-.35.56.56 0 0 1 .4 0l3.2.65a.77.77 0 0 1 .55.55 1.83 1.83 0 0 1 -.05.4l-1.45 3.35 2.2.45 1.6-3.6a.45.45 0 0 1 .3-.3.55.55 0 0 1 .45-.1l3.25.7a.49.49 0 0 1 .35.15 1.63 1.63 0 0 1 .15.4.42.42 0 0 1 -.05.35l-1.45 3.3 2.7.6a.57.57 0 0 1 .4.3.55.55 0 0 1 .1.45l-.65 3a.57.57 0 0 1 -.3.4.62.62 0 0 1 -.5.15l-3.55-.75-1 2.25 2.6.55a.57.57 0 0 1 .4.3.8.8 0 0 1 .15.5l-.65 3a.63.63 0 0 1 -.25.4.81.81 0 0 1 -.55.1l-3.55-.7-1.65 3.6a.66.66 0 0 1 -.3.35.73.73 0 0 1 -.45.05l-3.3-.65a.64.64 0 0 1 -.35-.25.49.49 0 0 1 -.15-.35.42.42 0 0 1 .05-.35l1.55-3.45-2.2-.4-1.6 3.65a.6.6 0 0 1 -.35.35.68.68 0 0 1 -.45.05l-3.2-.7a.73.73 0 0 1 -.35-.2.49.49 0 0 1 -.15-.35.56.56 0 0 1 .05-.4l1.45-3.45-2.55-.45a.94.94 0 0 1 -.4-.3.55.55 0 0 1 -.1-.55l.6-3a.57.57 0 0 1 .3-.4.64.64 0 0 1 .5-.1l3.5.75 1-2.25-2.6-.55a.57.57 0 0 1 -.4-.3zm19.9-7.15a.57.57 0 0 1 -.4-.3.48.48 0 0 1 -.1-.5l1.1-5.5a.6.6 0 0 1 .3-.45.7.7 0 0 1 .5-.1 10.51 10.51 0 0 0 3.5.2l-.05.05a11.36 11.36 0 0 0 3-.9h.05a5.82 5.82 0 0 0 2.1-1.4 0 0 0 0 0 .05 0 5.45 5.45 0 0 0 1.35-2 .9.9 0 0 1 .35-.35.68.68 0 0 1 .45 0l7.15 1.5a.57.57 0 0 1 .4.3.8.8 0 0 1 .15.5l-7.2 34.35a.85.85 0 0 1 -.25.45.81.81 0 0 1 -.55.1l-8.45-1.75a.94.94 0 0 1 -.4-.3.7.7 0 0 1 -.1-.5l4.55-21.75zm-10.05 9.4-2.25-.45-1 2.25 2.2.45zm59.4-60.25a9 9 0 0 0 -5.35 4.35h-.05l-10.65 21.25a8.82 8.82 0 0 0 -.4 7v.05a9.37 9.37 0 0 0 12 6 9 9 0 0 0 5.25-4.2.58.58 0 0 1 .15-.25l10.7-21.15h-.05a9 9 0 0 0 .4-7 9.42 9.42 0 0 0 -11.95-6zm2 17.1a1.52 1.52 0 0 1 .8 1 1.31 1.31 0 0 1 -.15 1.15 1.53 1.53 0 0 1 -2.1.7l-4.45-2.4a1.59 1.59 0 0 1 1.5-2.8zm.85 7a1.43 1.43 0 0 1 -.15 1.2 1.57 1.57 0 0 1 -2.1.65l-9.55-5a1.58 1.58 0 0 1 .3-2.9 1.43 1.43 0 0 1 1.2.15l9.5 5a1.69 1.69 0 0 1 .85.85zm-8.4-26.3a9 9 0 0 0 .35-7 8.81 8.81 0 0 0 -4.7-5.5 9 9 0 0 0 -7.25-.55 8.91 8.91 0 0 0 -5.2 4.15 2.16 2.16 0 0 1 -.1.25h-.05l-12.85 25.55-.05.05-.45.85a9.46 9.46 0 0 0 11.55 13 9.28 9.28 0 0 0 5.4-4.5l10.7-21.2.05-.05a.5.5 0 0 0 .05-.15zm-23.1 12.6a1.69 1.69 0 0 1 -.8-1 1.52 1.52 0 0 1 1.1-1.9 1.29 1.29 0 0 1 1.2.1l9.55 5a1.54 1.54 0 0 1 .75 1 1.4 1.4 0 0 1 -.1 1.15 1.51 1.51 0 0 1 -.9.8 1.41 1.41 0 0 1 -1.2-.15zm9.45-1-4.45-2.35a1.57 1.57 0 0 1 -.65-2.1 1.69 1.69 0 0 1 .95-.8 1.53 1.53 0 0 1 1.2.1l4.45 2.35a1.59 1.59 0 0 1 -1.5 2.8zm-36-92.6v.05l-16.05 76.75 6.2-1.8h.15.05l14.2-4.2 13.95-66.9a9.28 9.28 0 0 0 -1.35-7.1l.05.05a9.35 9.35 0 0 0 -6.1-4.05 8.68 8.68 0 0 0 -7.05 1.35 8.72 8.72 0 0 0 -4.1 5.85zm-5 41.6a1.54 1.54 0 0 1 -1-.7 1.69 1.69 0 0 1 -.25-1.2 1.73 1.73 0 0 1 .7-1 1.44 1.44 0 0 1 1.15-.2l10.9 2.3a1.59 1.59 0 0 1 .55 2.85 1.69 1.69 0 0 1 -1.2.25zm9.35-7.1a1.38 1.38 0 0 1 1 .65 1.69 1.69 0 0 1 .25 1.2 1.73 1.73 0 0 1 -.7 1 1.44 1.44 0 0 1 -1.15.2l-4.35-.85a1.38 1.38 0 0 1 -1-.65 1.53 1.53 0 0 1 -.2-1.2 1.48 1.48 0 0 1 1.8-1.2z" fill="url(#o)"/><path d="m392 11.2a12.38 12.38 0 0 0 -8.05-5.35 12 12 0 0 0 -9.45 1.8v-.05a12.2 12.2 0 0 0 -5.45 8l-16.4 78.3q-13.35 3-15.5 19.5-2.15 16 6.85 45.6l-4.75 22.65a1.41 1.41 0 0 0 .25 1.2 1.38 1.38 0 0 0 .95.7l59.25 12.35a1.44 1.44 0 0 0 1.15-.2 1.54 1.54 0 0 0 .7-1l4.8-22.7a174.59 174.59 0 0 0 24.65-36.75.49.49 0 0 1 .05-.2h.05l10.7-21.2a12.64 12.64 0 0 0 -15.4-17.4 5.3 5.3 0 0 0 -1 .4 11.87 11.87 0 0 0 -.2-7.6 12.63 12.63 0 0 0 -15.9-8 7.16 7.16 0 0 0 -1.3.5 12.42 12.42 0 0 0 -.45-6.7 12.58 12.58 0 0 0 -15.95-8 12.41 12.41 0 0 0 -7.35 6.25l-2.35 4.65 11.9-57.15a12.14 12.14 0 0 0 -1.75-9.5 0 0 0 0 1 -.05-.1zm-19.9 5.05v-.05a8.72 8.72 0 0 1 4.1-5.9 8.68 8.68 0 0 1 7.05-1.3 9.35 9.35 0 0 1 6.1 4.05l-.05-.05a9.28 9.28 0 0 1 1.35 7.15l-13.95 66.85-14.2 4.15h-.05-.15l-6.2 1.85zm50 74a9 9 0 0 1 -.35 7l-2.55 5a.5.5 0 0 1 -.05.15l-.05.05-10.7 21.2a9.28 9.28 0 0 1 -5.4 4.5 9.51 9.51 0 0 1 -11.55-13l.45-.85.05-.05 12.8-25.5h.05a2.16 2.16 0 0 0 .1-.25 8.91 8.91 0 0 1 5.25-4.15 9 9 0 0 1 7.25.55 8.81 8.81 0 0 1 4.75 5.3zm-.1 13.5a9.61 9.61 0 0 1 12.55-3.85 9.1 9.1 0 0 1 4.75 5.5 9 9 0 0 1 -.4 7h.1l-10.7 21.15a.58.58 0 0 0 -.15.25 9 9 0 0 1 -5.25 4.2 9.37 9.37 0 0 1 -12-6 8.82 8.82 0 0 1 .4-7l10.7-21.2zm1.85 37.3.55-.2a166.26 166.26 0 0 1 -20.7 29.35 1.2 1.2 0 0 0 -.35.75l-4.55 21.55-56.15-11.75 4.5-21.5a2.16 2.16 0 0 0 0-.8q-8.85-29-6.85-44.65 2-14.55 13.75-17a1 1 0 0 0 .3 0h.15l7.5-2.2q3 5.15 9.35 4.9 6-.15 15.25-5.65a11.8 11.8 0 0 1 1.4 4.05q1.6 10.69-17.45 15.1a.51.51 0 0 0 -.3.1l-6.05 1.45-6.6-1.4a1.39 1.39 0 0 0 -1.15.2 1.54 1.54 0 0 0 -.7 1 1.28 1.28 0 0 0 .25 1.15 1.38 1.38 0 0 0 .95.7l6.25 1.3 4.2 7.2a1.54 1.54 0 0 0 .95.75 1.69 1.69 0 0 0 1.2-.15 1.54 1.54 0 0 0 .7-1 1.69 1.69 0 0 0 -.15-1.2l-3.5-5.95 3.35-.8a12.53 12.53 0 0 0 4.7 4 11.92 11.92 0 0 0 9.6.75h.05a14.88 14.88 0 0 0 3.15-1.55 12.85 12.85 0 0 0 6.95 10.85 12.45 12.45 0 0 0 9.65.7 13.2 13.2 0 0 0 3.15-1.55 13.15 13.15 0 0 0 .7 3.45 12.58 12.58 0 0 0 16 8.05zm-19.85-57.8h.05l-1.85 3.55h-.05c-.07.13-.13.28-.2.45l-13.3 26.25a9.5 9.5 0 0 1 -5.4 4.5 9.17 9.17 0 0 1 -7.2-.55h-.05a8.44 8.44 0 0 1 -2.7-2q20.29-5.35 17.75-18.2v.05a13 13 0 0 0 -2.85-6.65h-.05a11.49 11.49 0 0 0 -7.35-3.8l6.25-12.25h-.05a9.16 9.16 0 0 1 5.55-4.7 8.87 8.87 0 0 1 7.25.5 9.15 9.15 0 0 1 4.7 5.5 9.26 9.26 0 0 1 -.5 7.35zm-25.8 6.6h.2a11.34 11.34 0 0 1 6 1.7q-8 4.55-13.15 4.8a6.63 6.63 0 0 1 -6.1-2.7zm-.65 60.1a.57.57 0 0 0 .4.3l7.5 1.55-4.55 21.75a.7.7 0 0 0 .1.5.94.94 0 0 0 .4.3l8.45 1.75a.81.81 0 0 0 .55-.1.85.85 0 0 0 .25-.45l7.2-34.35a.8.8 0 0 0 -.15-.5.57.57 0 0 0 -.4-.3l-7.15-1.5a.68.68 0 0 0 -.45 0 .9.9 0 0 0 -.35.35 5.45 5.45 0 0 1 -1.35 2 0 0 0 0 1 -.05 0 5.82 5.82 0 0 1 -2.1 1.4h-.05a11.36 11.36 0 0 1 -3 .9l.05-.05a10.51 10.51 0 0 1 -3.5-.2.7.7 0 0 0 -.5.1.6.6 0 0 0 -.3.45l-1.1 5.5a.48.48 0 0 0 .1.65zm-19.55 7a.7.7 0 0 0 .1.5.57.57 0 0 0 .4.3l2.6.55-1 2.25-3.5-.75a.64.64 0 0 0 -.5.1.57.57 0 0 0 -.3.4l-.6 3a.55.55 0 0 0 .1.55.94.94 0 0 0 .4.3l2.55.45-1.45 3.4a.56.56 0 0 0 -.05.4.49.49 0 0 0 .15.35.73.73 0 0 0 .35.2l3.2.7a.68.68 0 0 0 .45-.05.6.6 0 0 0 .35-.35l1.6-3.65 2.2.4-1.55 3.45a.42.42 0 0 0 -.05.35.49.49 0 0 0 .15.35.64.64 0 0 0 .35.25l3.3.65a.73.73 0 0 0 .45-.05.66.66 0 0 0 .3-.35l1.65-3.65 3.55.7a.81.81 0 0 0 .55-.1.63.63 0 0 0 .25-.4l.65-3a.8.8 0 0 0 -.15-.5.57.57 0 0 0 -.4-.3l-2.6-.55 1-2.25 3.55.75a.62.62 0 0 0 .5-.15.57.57 0 0 0 .3-.4l.65-3a.55.55 0 0 0 -.1-.45.57.57 0 0 0 -.4-.3l-2.7-.6 1.45-3.3a.42.42 0 0 0 .05-.35 1.63 1.63 0 0 0 -.15-.4.49.49 0 0 0 -.35-.15l-3.25-.7a.55.55 0 0 0 -.45.1.45.45 0 0 0 -.3.3l-1.6 3.6-2.2-.45 1.45-3.35a1.83 1.83 0 0 0 .05-.4.77.77 0 0 0 -.55-.55l-3.2-.65a.56.56 0 0 0 -.4 0 .6.6 0 0 0 -.35.35l-1.6 3.6-3.5-.75a.45.45 0 0 0 -.5.1.57.57 0 0 0 -.3.4zm7.65 2.3 2.25.45-1 2.25-2.2-.45zm64.45-34.55a1.43 1.43 0 0 0 .15-1.2 1.69 1.69 0 0 0 -.8-1l-9.5-5a1.43 1.43 0 0 0 -1.2-.15 1.58 1.58 0 0 0 -.3 2.9l9.55 5a1.57 1.57 0 0 0 2.1-.65zm.1-7.2a1.52 1.52 0 0 0 -.8-1l-4.4-2.4a1.6 1.6 0 0 0 -2.15.7 1.57 1.57 0 0 0 .65 2.1l4.45 2.4a1.53 1.53 0 0 0 2.1-.7 1.31 1.31 0 0 0 .15-1.15zm-26.5-11 4.45 2.35a1.59 1.59 0 0 0 1.5-2.8l-4.45-2.35a1.53 1.53 0 0 0 -1.2-.1 1.69 1.69 0 0 0 -.95.8 1.57 1.57 0 0 0 .65 2.1zm-5.8 2.4a1.69 1.69 0 0 0 .8 1l9.55 5a1.41 1.41 0 0 0 1.2.15 1.51 1.51 0 0 0 .9-.8 1.4 1.4 0 0 0 .1-1.15 1.54 1.54 0 0 0 -.75-1l-9.55-5a1.29 1.29 0 0 0 -1.2-.1 1.52 1.52 0 0 0 -1.05 1.95zm-20.4-57.5a1.38 1.38 0 0 0 -1-.65l-4.35-.85a1.48 1.48 0 0 0 -1.8 1.2 1.53 1.53 0 0 0 .2 1.2 1.38 1.38 0 0 0 1 .65l4.35.85a1.44 1.44 0 0 0 1.15-.2 1.73 1.73 0 0 0 .7-1 1.69 1.69 0 0 0 -.25-1.25zm-11.35 5.7a1.54 1.54 0 0 0 1 .7l10.85 2.25a1.69 1.69 0 0 0 1.2-.25 1.56 1.56 0 0 0 -.55-2.85l-10.9-2.25a1.44 1.44 0 0 0 -1.15.2 1.73 1.73 0 0 0 -.7 1 1.69 1.69 0 0 0 .25 1.2z" fill="#fff"/></svg>