<svg enable-background="new 0 0 7.3 7.3" viewBox="0 0 7.3 7.3" xmlns="http://www.w3.org/2000/svg"><path clip-rule="evenodd" d="m.7 3.5s-.1.1 0 0c-.1.2-.2.2-.2.3-.2.2-.3.4-.4.7s-.1.7-.1 1c.1.4.3.8.6 1.1.4.4.8.6 1.2.7.3.1.7 0 1-.1s.5-.2.7-.3c.1-.1.1-.1.2-.1 0 0 .1-.1.1-.1l3.4-3.4c.2-.2.2-.5 0-.6l-2.5-2.6c-.2-.1-.4-.1-.6 0zm5.6-.6-3.1 3.1s-.1.1-.1.1c-.2.2-.4.2-.5.3-.2.1-.4.1-.6 0-.2 0-.5-.1-.7-.4-.2-.2-.4-.4-.4-.7 0-.2 0-.4 0-.6.1-.1.2-.2.3-.4 0 0 .1-.1.1-.1s3.1-3.1 3.1-3.1zm-3.6 2.7c-.3.2-.7.2-.9 0-.3-.3-.3-.7 0-.9.3-.3.7-.3.9 0 .3.2.3.6 0 .9z" fill="#969da2" fill-rule="evenodd"/></svg>