<svg enable-background="new 0 0 16.3 11.4" viewBox="0 0 16.3 11.4" xmlns="http://www.w3.org/2000/svg"><path clip-rule="evenodd" d="m3.3 1.6c0 .9-.7 1.6-1.6 1.6-1 .1-1.7-.7-1.7-1.6s.7-1.6 1.6-1.6 1.7.7 1.7 1.6zm2.4-1.6c-.5 0-.8.4-.8.8s.4.8.8.8h9.8c.4 0 .8-.4.8-.8s-.4-.8-.8-.8zm-.8 4.1c0-.4.4-.8.8-.8h6.5c.4 0 .8.4.8.8s-.4.8-.8.8h-6.5c-.5 0-.8-.4-.8-.8zm-1.6 4c0 .9-.7 1.6-1.6 1.6-1 .1-1.7-.7-1.7-1.6s.7-1.6 1.6-1.6 1.7.7 1.7 1.6zm1.6-.8c0-.4.4-.8.8-.8h9.8c.4 0 .8.4.8.8s-.4.8-.8.8h-9.8c-.5 0-.8-.3-.8-.8zm.8 2.5c-.4 0-.8.4-.8.8s.4.8.8.8h8.1c.4 0 .8-.4.8-.8s-.4-.8-.8-.8z" fill="#969da2" fill-rule="evenodd"/></svg>